SplineFontDB: 1.0
FontName: NimbusRomNo9L-MediItal
FullName: Nimbus Roman No9 L Bold Italic
FamilyName: Nimbus Roman No9 L
Weight: Bold
Copyright: Copyright (URW)++,Copyright 1999 by (URW)++ Design & Development; Cyrillic glyphs added by Valek Filippov (C) 2001-2004
Version: 1.06
ItalicAngle: -15.3
UnderlinePosition: -100
UnderlineWidth: 50
Ascent: 800
Descent: 200
NeedsXUIDChange: 1
UniqueID: 4065971
FSType: 0
OS2WinAscent: 0
OS2WinAOffset: 1
OS2WinDescent: 0
OS2WinDOffset: 1
HheadAscent: 0
HheadAOffset: 1
HheadDescent: 0
HheadDOffset: 1
ScriptLang: 2
 1 latn 1 dflt 
 1 DFLT 1 dflt 
Encoding: adobestandard
UnicodeInterp: none
DisplaySize: -36
AntiAlias: 1
FitToEm: 1
WinInfo: 330 30 14
BeginPrivate: 7
BlueValues 23 [-20 0 449 469 669 689]
BlueScale 8 0.039625
StdHW 4 [27]
StdVW 5 [120]
StemSnapH 206 [27 33 36 43 54 64 73 91] 
systemdict /internaldict known
{1183615869 systemdict /internaldict get exec
/StemSnapLength 2 copy known { get 8 lt } { pop pop true } ifelse }
{ true } ifelse { pop [27 33] } if
StemSnapV 2 []
ForceBold 5 false
EndPrivate
BeginChars: 767 660
StartChar: exclam
Encoding: 33 33 2
Width: 389
Flags: W
HStem: -13 146<130 148> 664 20G<285.5 321.5>
Fore
196 204 m 1
 167 212 l 1
 197 368 215 487 220 565 c 0
 222 609 224 620 232 638 c 0
 246 667 270 684 301 684 c 0
 342 684 370 655 370 611 c 0
 370 584 365 569 339 522 c 1
 283 411 238 312 196 204 c 1
140 133 m 0
 178 133 213 97 213 58 c 0
 213 19 180 -13 139 -13 c 0
 98 -13 67 17 67 58 c 0
 67 100 99 133 140 133 c 0
EndSplineSet
EndChar
StartChar: quotedbl
Encoding: 34 34 3
Width: 555
Flags: W
HStem: 665 20G<211 243 471 503>
Fore
177 398 m 1
 136 398 l 1
 152 612 l 1
 155 650 192 685 230 685 c 0
 256 685 276 663 276 636 c 0
 276 622 275 620 261 589 c 2
 259 584 l 1
 177 398 l 1
437 398 m 1
 396 398 l 1
 412 612 l 1
 415 650 452 685 490 685 c 0
 516 685 536 663 536 636 c 0
 536 622 535 620 521 589 c 2
 519 584 l 1
 437 398 l 1
EndSplineSet
EndChar
StartChar: numbersign
Encoding: 35 35 4
Width: 500
Flags: W
HStem: 0 21G<-22 56 169 247> 210 73<-14 63 171 254 362 429> 210 280<71 254 254 429> 417 73<70 147 254 338 445 513>
DStem: 63 210 141 210 -22 0 56 0 147 417 225 417 93 283 171 283 254 210 332 210 169 0 247 0 263 700 340 700 176 490 254 490 338 417 416 417 284 283 362 283 454 700 531 700 367 490 445 490
Fore
449 283 m 1xd0
 429 210 l 1xd0
 332 210 l 1xa0
 247 0 l 1
 169 0 l 1
 254 210 l 1xc0
 141 210 l 1xa0
 56 0 l 1
 -22 0 l 1
 63 210 l 1xc0
 -33 210 l 1xa0
 -13 283 l 1
 93 283 l 1
 147 417 l 1
 51 417 l 1xd0
 71 490 l 1
 176 490 l 1
 263 700 l 1
 340 700 l 1
 254 490 l 1
 367 490 l 1xa0
 454 700 l 1
 531 700 l 1
 445 490 l 1
 533 490 l 1
 513 417 l 1
 416 417 l 1
 362 283 l 1
 449 283 l 1xd0
338 417 m 1
 225 417 l 1
 171 283 l 1
 284 283 l 1
 338 417 l 1
EndSplineSet
EndChar
StartChar: dollar
Encoding: 36 36 5
Width: 500
Flags: W
HStem: 0 32<186 221> 637 33<273 301>
VStem: 79 99<488 542> 323 109<157 201>
DStem: 127 7 178 0 98 -100 150 -100 211 303 253 274 137 42 186 32 303 635 351 625 248 436 292 410 331 733 381 733 313 668 361 661
Fore
497 598 m 1
 455 465 l 1
 434 470 l 1
 435 481 435 494 435 500 c 0
 435 569 411 605 351 625 c 1
 292 410 l 1
 353 357 372 338 396 308 c 0
 419 277 432 238 432 201 c 0
 432 87 331 0 201 0 c 2
 178 0 l 1
 150 -100 l 1
 98 -100 l 1
 127 7 l 1
 64 22 33 39 -20 86 c 1
 22 228 l 1
 44 222 l 1
 47 114 67 74 137 42 c 1
 211 303 l 1
 105 384 79 420 79 488 c 0
 79 591 164 670 275 670 c 0
 283 670 291 670 313 668 c 1
 331 733 l 1
 381 733 l 1
 361 661 l 1
 394 655 441 636 479 612 c 1
 497 598 l 1
248 436 m 1
 303 635 l 1
 298 637 294 637 288 637 c 0
 222 637 178 599 178 542 c 0
 178 502 195 476 248 436 c 1
253 274 m 1
 186 32 l 1
 221 32 230 33 247 39 c 0
 294 57 323 101 323 157 c 0
 323 204 308 230 253 274 c 1
EndSplineSet
EndChar
StartChar: percent
Encoding: 37 37 6
Width: 833
Flags: W
HStem: -10 46<583 617> 294 46<168 202> 585 38<422 440> 659 20G<207 277.5>
VStem: 347 34<565 590> 759 34<245 262>
DStem: 543 612 644 692 194 -8 250 -8
Fore
676 376 m 0
 746 376 793 329 793 260 c 0
 793 184 760 101 706 44 c 0
 674 10 628 -10 583 -10 c 0
 503 -10 450 45 450 128 c 0
 450 192 485 265 539 316 c 0
 582 356 627 376 676 376 c 0
708 325 m 0
 684 326 658 308 635 273 c 0
 605 230 570 137 567 93 c 0
 565 61 587 36 617 36 c 0
 653 36 688 65 718 119 c 0
 745 168 759 214 759 257 c 0
 759 295 738 323 708 325 c 0
194 -8 m 1
 543 612 l 1
 500 594 461 585 424 585 c 0
 414 585 401 587 381 590 c 1
 380 501 363 444 320 382 c 0
 281 325 228 294 168 294 c 0
 93 294 39 351 39 431 c 0
 39 555 151 679 263 679 c 0
 292 679 311 672 340 651 c 0
 368 631 394 623 436 623 c 0
 499 623 549 643 605 692 c 1
 644 692 l 1
 250 -8 l 1
 194 -8 l 1
287 631 m 0
 270 633 246 613 224 581 c 0
 191 531 157 441 154 394 c 0
 152 363 173 340 202 340 c 0
 272 340 347 463 347 577 c 0
 347 599 346 601 318 612 c 0
 311 615 310 615 302 623 c 0
 295 629 292 630 287 631 c 0
EndSplineSet
EndChar
StartChar: ampersand
Encoding: 38 38 7
Width: 778
Flags: W
HStem: -19 71<198 265> -18 79<529 596> 649 33<413 427>
VStem: 5 133<148 190> 234 121<476 530> 477 80<566 582>
Fore
673 101 m 1x7c
 699 80 l 1
 638 7 595 -18 529 -18 c 0x7c
 476 -18 435 0 390 44 c 1
 324 -1 268 -19 198 -19 c 0xbc
 84 -19 5 49 5 148 c 0
 5 194 26 242 63 280 c 0
 97 316 129 334 245 384 c 1
 237 429 234 452 234 476 c 0
 234 598 309 682 419 682 c 0
 499 682 557 634 557 568 c 0
 557 501 499 446 375 396 c 1
 387 322 420 235 461 169 c 1
 518 241 535 270 535 298 c 0
 535 320 521 329 479 336 c 1
 479 361 l 1
 691 361 l 1
 691 336 l 1
 629 324 624 319 486 133 c 1
 525 82 557 61 596 61 c 0
 623 61 644 72 673 101 c 1x7c
253 343 m 1
 169 302 138 260 138 190 c 0
 138 111 193 52 265 52 c 0xbc
 296 52 322 60 362 80 c 1
 306 167 279 232 253 343 c 1
366 434 m 1
 403 456 403 456 414 465 c 0
 453 495 477 538 477 582 c 0
 477 624 458 649 425 649 c 0
 380 649 355 607 355 530 c 0
 355 505 357 488 366 434 c 1
EndSplineSet
EndChar
StartChar: quoteright
Encoding: 39 8217 8
Width: 333
Flags: W
HStem: 665 20G<196.5 242.5>
Fore
111 369 m 1
 98 393 l 1
 176 435 216 474 216 510 c 0
 216 524 209 533 186 548 c 0
 156 569 146 585 146 612 c 0
 146 654 176 685 217 685 c 0
 268 685 302 646 302 587 c 0
 302 506 226 419 111 369 c 1
EndSplineSet
KernsSLIF: 121 -18 1 0 119 -23 1 0 118 -23 1 0 116 -19 1 0 115 -26 1 0 114 -26 1 0 46 -59 1 0 111 -50 1 0 100 -50 1 0 44 -57 1 0 262 -94 1 0 256 -94 1 0 257 -94 1 0 225 -116 1 0 65 -94 1 0
EndChar
StartChar: parenleft
Encoding: 40 40 9
Width: 333
Flags: W
VStem: 28 94<110 207>
Fore
326 685 m 1
 344 665 l 1
 263 591 226 543 190 462 c 0
 147 366 122 237 122 110 c 0
 122 -6 138 -68 193 -164 c 1
 170 -179 l 1
 69 -41 28 70 28 207 c 0
 28 279 41 344 68 404 c 0
 114 508 174 573 326 685 c 1
EndSplineSet
EndChar
StartChar: parenright
Encoding: 41 41 10
Width: 333
Flags: W
VStem: 177 94<299 399>
Fore
-27 -179 m 1
 -44 -159 l 1
 32 -89 63 -51 95 14 c 0
 145 114 177 266 177 399 c 0
 177 513 159 580 105 670 c 1
 128 685 l 1
 180 614 201 580 224 524 c 0
 255 450 271 372 271 299 c 0
 271 202 245 114 192 33 c 0
 141 -47 90 -95 -27 -179 c 1
EndSplineSet
EndChar
StartChar: asterisk
Encoding: 42 42 11
Width: 500
Flags: W
HStem: 334 105<115 144 377 406> 497 106<114 144 377 407> 665 20G<245.5 276>
VStem: 253 15<442 454 482 510>
Fore
253 482 m 1
 253 494 l 2
 253 527 246 552 227 584 c 0
 214 606 210 618 210 633 c 0
 210 664 230 685 261 685 c 0
 291 685 311 664 311 633 c 0
 311 618 307 606 294 584 c 0
 275 552 268 527 268 494 c 2
 268 482 l 1
 279 488 l 2
 308 505 320 517 344 555 c 0
 365 590 383 603 407 603 c 0
 432 603 456 577 456 548 c 0
 456 533 447 519 430 508 c 0
 416 499 406 497 377 497 c 0
 333 496 320 493 287 474 c 2
 276 468 l 1
 287 462 l 2
 320 443 331 441 377 439 c 0
 406 439 417 436 430 429 c 0
 446 420 456 403 456 388 c 0
 456 359 433 334 406 334 c 0
 381 334 365 346 344 382 c 0
 322 418 312 428 279 448 c 2
 268 454 l 1
 268 442 l 2
 268 410 275 386 294 353 c 0
 306 331 311 318 311 303 c 0
 311 273 291 252 260 252 c 0
 230 252 210 273 210 304 c 0
 210 318 215 331 227 353 c 0
 246 386 253 410 253 442 c 2
 253 454 l 1
 242 448 l 2
 209 428 199 418 177 382 c 0
 156 346 140 334 115 334 c 0
 88 334 65 359 65 388 c 0
 65 403 75 420 91 429 c 0
 103 436 115 439 144 439 c 0
 190 441 201 443 234 462 c 2
 245 468 l 1
 234 474 l 2
 201 493 188 496 144 497 c 0
 115 497 105 499 91 508 c 0
 74 519 65 532 65 549 c 0
 65 577 89 603 114 603 c 0
 138 603 155 590 177 555 c 0
 201 517 213 505 242 488 c 2
 253 482 l 1
EndSplineSet
EndChar
StartChar: plus
Encoding: 43 43 12
Width: 570
Flags: W
HStem: 0 21G<241 329> 209 88<33 241 329 537>
VStem: 241 88<0 209 297 506>
Fore
241 297 m 1
 241 506 l 1
 329 506 l 1
 329 297 l 1
 537 297 l 1
 537 209 l 1
 329 209 l 1
 329 0 l 1
 241 0 l 1
 241 209 l 1
 33 209 l 1
 33 297 l 1
 241 297 l 1
EndSplineSet
EndChar
StartChar: comma
Encoding: 44 44 13
Width: 250
Flags: W
Fore
-47 -182 m 1
 -60 -158 l 1
 18 -116 58 -77 58 -41 c 0
 58 -27 51 -17 28 -2 c 0
 -2 18 -12 34 -12 61 c 0
 -12 103 18 134 59 134 c 0
 110 134 144 95 144 36 c 0
 144 -45 68 -131 -47 -182 c 1
EndSplineSet
KernsSLIF: 39 -23 1 0 186 -1 1 0 49 -26 1 0
EndChar
StartChar: hyphen
Encoding: 45 45 14
Width: 333
Flags: W
HStem: 166 116<25 248>
Fore
271 282 m 1
 248 166 l 1
 2 166 l 1
 26 282 l 1
 271 282 l 1
EndSplineSet
KernsSLIF: 89 -69 1 0 87 -59 1 0 86 -62 1 0 84 -59 1 0 262 -13 1 0 256 -13 1 0 257 -13 1 0 225 -22 1 0 65 -13 1 0
EndChar
StartChar: period
Encoding: 46 46 15
Width: 250
Flags: W
HStem: -13 21G<43.5 85>
Fore
66 135 m 0
 106 135 139 101 139 61 c 0
 139 19 106 -13 64 -13 c 0
 23 -13 -9 19 -9 60 c 0
 -9 103 23 135 66 135 c 0
EndSplineSet
KernsSLIF: 39 -27 1 0 186 -5 1 0 49 -32 1 0
EndChar
StartChar: slash
Encoding: 47 47 16
Width: 278
Flags: W
HStem: -18 21G<-64 23> 665 20G<255 342>
DStem: 255 685 342 685 -64 -18 23 -18
Fore
255 685 m 1
 342 685 l 1
 23 -18 l 1
 -64 -18 l 1
 255 685 l 1
EndSplineSet
EndChar
StartChar: zero
Encoding: 48 48 17
Width: 500
Flags: W
HStem: -14 29<160 179> 654 29<320 329>
VStem: 17 103<81 206> 374 103<442 582>
Fore
327 683 m 0
 418 683 477 588 477 442 c 0
 477 285 398 104 298 29 c 0
 259 0 219 -14 177 -14 c 0
 81 -14 17 73 17 206 c 0
 17 354 79 515 172 611 c 0
 217 657 272 683 327 683 c 0
325 654 m 0
 288 654 260 614 223 510 c 0
 176 380 120 145 120 81 c 0
 120 41 140 15 170 15 c 0
 211 15 240 53 273 149 c 0
 296 216 345 408 362 494 c 0
 370 531 374 563 374 582 c 0
 374 627 356 654 325 654 c 0
EndSplineSet
KernsSLIF: 55 -12 1 0 49 -50 1 0 52 -1 1 0
EndChar
StartChar: one
Encoding: 49 49 18
Width: 500
Flags: W
HStem: 0 23<5 31.02 271 350 350 350>
DStem: 252 556 419 683 124 97 265 123
Fore
5 0 m 1
 5 23 l 1
 77 23 107 42 124 97 c 1
 252 556 l 1
 254 565 256 574 256 580 c 0
 256 602 241 613 210 613 c 0
 191 613 174 612 147 608 c 1
 149 631 l 1
 265 648 328 661 419 683 c 1
 265 123 l 2
 254 83 253 78 253 69 c 0
 253 32 271 24 350 23 c 1
 350 0 l 1
 5 0 l 1
EndSplineSet
KernsSLIF: 48 -48 1 0 50 -32 1 0 51 -43 1 0 54 -62 1 0 55 -65 1 0 46 -39 1 0 49 -48 1 0 57 -40 1 0 52 -75 1 0 53 -45 1 0 56 -56 1 0 44 -38 1 0
EndChar
StartChar: two
Encoding: 50 50 19
Width: 500
Flags: W
HStem: 0 111<106 340> 593 90<219 281>
VStem: 312 134<483 515>
Fore
419 191 m 1
 340 0 l 1
 -27 0 l 1
 -27 24 l 1
 63 114 l 2
 251 301 312 392 312 483 c 0
 312 552 277 593 219 593 c 0
 167 593 126 566 86 507 c 1
 64 519 l 1
 92 573 108 597 137 623 c 0
 181 663 228 683 281 683 c 0
 374 683 446 609 446 515 c 0
 446 440 396 358 302 278 c 2
 106 111 l 1
 255 111 l 2
 333 111 356 125 394 191 c 1
 419 191 l 1
EndSplineSet
KernsSLIF: 55 -27 1 0 49 -48 1 0 52 -8 1 0
EndChar
StartChar: three
Encoding: 51 51 20
Width: 500
Flags: W
HStem: -13 40<118 175> 612 71<234 301>
VStem: 285 123<189 250> 321 129<522 547>
Fore
128 347 m 1xe0
 132 369 l 1
 261 396 321 445 321 522 c 0
 321 577 287 612 234 612 c 0
 187 612 159 594 118 537 c 1
 97 550 l 1
 159 643 220 683 301 683 c 0
 386 683 450 625 450 547 c 0xd0
 450 487 414 438 343 403 c 2
 331 397 l 1
 388 354 408 316 408 250 c 0
 408 104 279 -13 118 -13 c 0
 36 -13 -15 18 -15 67 c 0
 -15 101 9 123 45 123 c 0
 71 123 87 112 110 77 c 0
 127 52 133 43 135 41 c 0
 143 33 159 27 175 27 c 0
 236 27 285 100 285 189 c 0
 285 256 260 304 213 328 c 0
 189 341 170 345 128 347 c 1xe0
EndSplineSet
KernsSLIF: 55 -27 1 0 49 -67 1 0 52 -15 1 0
EndChar
StartChar: four
Encoding: 52 52 21
Width: 500
Flags: W
HStem: 0 248<53 316> 150 98<53 229 384 426> 663 20G<440 503>
DStem: 229 150 358 150 188 0 316 0 335 528 503 683 256 248 384 248 440 683 335 528 13 255 53 248
Fore
453 248 m 1x60
 426 150 l 1
 358 150 l 1x60
 316 0 l 1
 188 0 l 1xa0
 229 150 l 1
 -15 150 l 1
 13 255 l 1
 440 683 l 1
 503 683 l 1
 384 248 l 1
 453 248 l 1x60
53 248 m 1xa0
 256 248 l 1
 335 528 l 1
 53 248 l 1xa0
EndSplineSet
KernsSLIF: 55 -21 1 0 49 -50 1 0 52 1 1 0
EndChar
StartChar: five
Encoding: 53 53 22
Width: 500
Flags: W
HStem: -13 40<120 173> 560 109<203 451>
VStem: 307 105<189 250>
DStem: 204 669 197 560 73 372 163 484
Fore
197 560 m 1
 163 484 l 1
 255 465 282 456 316 433 c 0
 378 393 412 328 412 250 c 0
 412 102 284 -13 120 -13 c 0
 41 -13 -11 19 -11 66 c 0
 -11 99 14 123 48 123 c 0
 78 123 95 110 119 70 c 0
 140 36 152 27 173 27 c 0
 243 27 307 104 307 189 c 0
 307 253 271 311 209 342 c 0
 171 362 139 369 73 372 c 1
 204 669 l 1
 487 669 l 1
 451 560 l 1
 197 560 l 1
EndSplineSet
KernsSLIF: 55 -37 1 0 49 -56 1 0 52 -13 1 0
EndChar
StartChar: six
Encoding: 54 54 23
Width: 500
Flags: W
HStem: -15 32<182 199> 382 40<251 293>
VStem: 23 112<95 195> 319 124<251 315>
Fore
503 679 m 1
 509 655 l 1
 374 604 292 530 231 409 c 1
 261 419 273 422 293 422 c 0
 386 422 443 357 443 251 c 0
 443 103 334 -15 197 -15 c 0
 88 -15 23 64 23 195 c 0
 23 336 98 475 224 569 c 0
 305 628 369 653 503 679 c 1
251 382 m 0
 219 382 210 373 189 320 c 0
 156 238 135 148 135 95 c 0
 135 42 153 17 190 17 c 0
 215 17 238 32 251 56 c 0
 284 119 319 253 319 315 c 0
 319 361 298 382 251 382 c 0
EndSplineSet
KernsSLIF: 55 -32 1 0 49 -52 1 0 52 2 1 0
EndChar
StartChar: seven
Encoding: 55 55 24
Width: 500
Flags: W
HStem: 0 21G<52 144> 556 113<144 384>
Fore
83 479 m 1
 57 479 l 1
 144 669 l 1
 525 669 l 1
 144 0 l 1
 52 0 l 1
 384 556 l 1
 251 556 l 2
 147 556 120 544 83 479 c 1
EndSplineSet
KernsSLIF: 50 -30 1 0 51 -42 1 0 54 -60 1 0 55 -27 1 0 46 -81 1 0 49 -43 1 0 52 -79 1 0 53 -60 1 0 56 -46 1 0 44 -80 1 0 58 -90 1 0
EndChar
StartChar: eight
Encoding: 56 56 25
Width: 500
Flags: W
HStem: -13 30<184 211> 650 33<290 312>
VStem: 3 97<139 155> 109 111<499 553> 306 113<147 193> 383 93<530 555>
Fore
333 381 m 1xf4
 333 376 l 1
 394 309 419 257 419 193 c 0xf8
 419 74 325 -13 197 -13 c 0
 82 -13 3 54 3 153 c 0
 3 238 59 296 183 340 c 1
 183 345 l 1
 127 404 109 441 109 499 c 0
 109 605 190 683 300 683 c 0
 354 683 408 662 442 628 c 0
 464 605 476 575 476 540 c 0
 476 469 436 425 333 381 c 1xf4
209 321 m 1
 193 310 193 310 190 307 c 0
 129 262 100 209 100 141 c 0
 100 64 138 17 199 17 c 0
 261 17 306 72 306 147 c 0
 306 199 295 219 209 321 c 1
310 403 m 1
 367 463 383 493 383 544 c 0xf4
 383 608 351 650 302 650 c 0
 254 650 220 609 220 553 c 0
 220 504 241 468 310 403 c 1
EndSplineSet
KernsSLIF: 55 -13 1 0 49 -52 1 0 52 -4 1 0
EndChar
StartChar: nine
Encoding: 57 57 26
Width: 500
Flags: W
HStem: 245 43<204 243> 651 32<299 320>
VStem: 53 124<352 412> 363 112<476 582>
Fore
-6 -10 m 1
 -12 15 l 1
 110 52 204 135 265 259 c 1
 241 248 226 245 204 245 c 0
 114 245 53 312 53 412 c 0
 53 564 161 683 299 683 c 0
 348 683 388 668 417 639 c 0
 454 601 475 542 475 476 c 0
 475 334 398 191 273 99 c 0
 193 40 129 15 -6 -10 c 1
314 651 m 0
 283 651 256 630 235 589 c 0
 204 528 177 416 177 352 c 0
 177 311 200 288 243 288 c 0
 285 288 293 298 320 377 c 0
 345 450 345 450 353 491 c 0
 359 524 363 561 363 582 c 0
 363 628 347 651 314 651 c 0
EndSplineSet
KernsSLIF: 55 -12 1 0 49 -67 1 0 52 -18 1 0
EndChar
StartChar: colon
Encoding: 58 58 27
Width: 333
Flags: W
HStem: -13 148<86 104> 311 148<182 200>
Fore
98 135 m 0
 138 135 171 101 171 61 c 0
 171 19 138 -13 96 -13 c 0
 55 -13 23 19 23 61 c 0
 23 103 56 135 98 135 c 0
191 459 m 0
 231 459 264 425 264 385 c 0
 264 343 231 311 189 311 c 0
 148 311 116 343 116 385 c 0
 116 427 149 459 191 459 c 0
EndSplineSet
EndChar
StartChar: semicolon
Encoding: 59 59 28
Width: 333
Flags: W
HStem: 311 148<178 200>
Fore
-12 -183 m 1
 -25 -159 l 1
 53 -117 93 -78 93 -42 c 0
 93 -28 86 -18 63 -3 c 0
 33 17 23 33 23 60 c 0
 23 102 53 133 94 133 c 0
 145 133 179 94 179 35 c 0
 179 -46 104 -132 -12 -183 c 1
191 459 m 0
 231 459 264 425 264 385 c 0
 264 343 231 311 189 311 c 0
 148 311 116 343 116 385 c 0
 116 427 149 459 191 459 c 0
EndSplineSet
EndChar
StartChar: less
Encoding: 60 60 29
Width: 570
Flags: W
DStem: 31 211 154 253 539 -12 539 84 539 518 539 422 31 295 154 253
Fore
539 -12 m 1
 31 211 l 1
 31 295 l 1
 539 518 l 1
 539 422 l 1
 154 253 l 1
 539 84 l 1
 539 -12 l 1
EndSplineSet
EndChar
StartChar: equal
Encoding: 61 61 30
Width: 570
Flags: W
HStem: 107 88<33 537> 311 88<33 537>
Fore
537 399 m 1
 537 311 l 1
 33 311 l 1
 33 399 l 1
 537 399 l 1
537 195 m 1
 537 107 l 1
 33 107 l 1
 33 195 l 1
 537 195 l 1
EndSplineSet
EndChar
StartChar: greater
Encoding: 62 62 31
Width: 570
Flags: W
DStem: 31 422 31 518 416 253 539 295 416 253 539 211 31 84 31 -12
Fore
31 -12 m 1
 31 84 l 1
 416 253 l 1
 31 422 l 1
 31 518 l 1
 539 295 l 1
 539 211 l 1
 31 -12 l 1
EndSplineSet
EndChar
StartChar: question
Encoding: 63 63 32
Width: 500
Flags: W
HStem: -13 148<142 160> 653 31<270 294>
VStem: 79 148<61 68> 119 122<545 557> 343 127<539 573>
Fore
196 208 m 1xd8
 167 215 l 1
 171 270 192 316 238 374 c 2
 279 425 l 2
 323 480 343 526 343 573 c 0
 343 622 316 653 274 653 c 0
 242 653 212 634 212 615 c 0
 212 609 215 603 223 593 c 0
 236 576 241 562 241 547 c 0
 241 515 214 488 180 488 c 0
 146 488 119 517 119 555 c 0
 119 630 193 684 294 684 c 0
 399 684 470 626 470 539 c 0
 470 477 433 427 344 369 c 2
 278 326 l 2
 240 301 224 278 196 208 c 1xd8
154 135 m 0
 194 135 227 101 227 61 c 0
 227 19 194 -13 152 -13 c 0
 111 -13 79 19 79 61 c 0xe8
 79 103 112 135 154 135 c 0
EndSplineSet
EndChar
StartChar: at
Encoding: 64 64 33
Width: 832
Flags: W
HStem: -18 46<430 464> 143 47<365 407> 646 39<414 452>
VStem: 63 91<301 351> 272 76<256 277> 724 46<365 402>
Fore
545 463 m 1
 556 501 l 1
 627 501 l 1
 562 244 l 1
 560 238 560 233 560 224 c 0
 560 195 574 179 597 179 c 0
 627 179 654 196 677 230 c 0
 706 271 724 329 724 379 c 0
 724 525 594 646 437 646 c 0
 272 646 154 511 154 322 c 0
 154 151 277 28 449 28 c 0
 518 28 569 40 647 76 c 1
 660 41 l 1
 563 -4 511 -18 439 -18 c 0
 228 -18 63 134 63 328 c 0
 63 527 228 685 436 685 c 0
 624 685 770 555 770 387 c 0
 770 255 683 142 583 142 c 0
 534 142 492 176 490 217 c 1
 455 171 408 143 365 143 c 0
 313 143 272 193 272 257 c 0
 272 330 304 409 355 463 c 0
 386 496 430 515 473 515 c 0
 509 515 523 505 545 463 c 1
486 467 m 0
 461 469 427 449 399 417 c 0
 366 379 348 329 348 275 c 0
 348 223 371 190 407 190 c 0
 436 190 466 215 488 257 c 0
 509 298 526 358 528 402 c 0
 530 441 515 465 486 467 c 0
EndSplineSet
EndChar
StartChar: A
Encoding: 65 65 34
Width: 667
Flags: W
HStem: 0 25<129 129 289 299.667 579.8 593> 208 40<161 353> 663 20G<388 413>
DStem: 309 491 413 683 346 248 509 111 388 683 309 491 16 95 161 248 388 683 138 208 16 95 79 106
Fore
593 25 m 1
 593 0 l 1
 289 0 l 1
 289 25 l 1
 353 31 368 42 368 84 c 0
 368 97 366 117 360 156 c 0
 359 163 356 184 353 208 c 1
 138 208 l 1
 79 106 l 2
 69 89 64 73 64 60 c 0
 64 36 83 25 129 25 c 1
 129 0 l 1
 -67 0 l 1
 -67 25 l 1
 -31 33 -16 46 16 95 c 1
 388 683 l 1
 413 683 l 1
 509 111 l 1
 522 35 527 30 593 25 c 1
161 248 m 1
 346 248 l 1
 309 491 l 1
 161 248 l 1
EndSplineSet
KernsSLIF: 121 -67 0 0 119 -56 0 0 118 -51 0 0 117 -18 0 0 116 -4 0 0 39 -101 0 0 186 -78 0 0 113 -18 0 0 46 1 0 0 111 -23 0 0 45 -23 0 0 172 -68 0 0 171 -58 0 0 103 -20 0 0 101 -25 0 0 100 -5 0 0 332 -29 0 0 99 -20 0 0 98 -1 0 0 97 -5 0 0 89 -44 0 0 87 -107 0 0 86 -110 0 0 300 -61 0 0 298 -61 0 0 301 -61 0 0 299 -61 0 0 85 -61 0 0 84 -33 0 0 81 -54 0 0 286 -53 0 0 79 -53 0 0 71 -59 0 0 264 -63 0 0 67 -61 0 0
EndChar
StartChar: B
Encoding: 66 66 35
Width: 667
Flags: W
HStem: 0 25<-24 -16> 0 32<247 277> 637 32<116 392> 644 25<116 134>
VStem: 419 153<206 229> 477 147<521 538>
DStem: 178 546 338 593 56 97 277 368 178 546 269 338 56 97 203 94
Fore
116 644 m 1x98
 116 669 l 1
 388 669 l 2
 543 669 624 619 624 523 c 0x24
 624 482 606 442 577 417 c 0
 542 388 511 374 435 355 c 1
 536 322 572 284 572 206 c 0
 572 78 460 0 277 0 c 2x68
 -24 0 l 1
 -24 25 l 1
 24 31 40 46 56 97 c 1
 178 546 l 2
 185 571 189 593 189 603 c 0
 189 615 182 628 173 633 c 0
 161 640 152 642 116 644 c 1x98
269 338 m 1
 203 94 l 1
 200 81 198 72 198 65 c 0
 198 43 217 32 255 32 c 0
 299 32 333 45 360 72 c 0
 395 108 419 171 419 229 c 0x48
 419 266 407 295 385 313 c 0
 365 330 335 336 269 338 c 1
338 593 m 2
 277 368 l 1
 351 371 385 378 416 398 c 0
 456 424 477 472 477 536 c 0
 477 603 448 637 390 637 c 0x24
 358 637 348 629 338 593 c 2
EndSplineSet
KernsSLIF: 89 -50 0 0 87 -46 0 0 86 -46 0 0 233 -23 0 0 288 -22 0 0 286 -22 0 0 289 -22 0 0 287 -22 0 0 234 -20 0 0 79 -22 0 0 261 -34 0 0 262 -34 0 0 256 -34 0 0 259 -34 0 0 257 -34 0 0 225 -40 0 0 65 -34 0 0
EndChar
StartChar: C
Encoding: 67 67 36
Width: 667
Flags: W
HStem: -18 53<304 336> 650 35<440 466>
VStem: 32 154<209 241>
Fore
677 685 m 1
 626 451 l 1
 594 457 l 1
 596 470 597 479 597 492 c 0
 597 590 547 650 466 650 c 0
 425 650 386 634 349 604 c 0
 258 528 186 355 186 209 c 0
 186 100 242 35 336 35 c 0
 367 35 398 41 426 53 c 0
 468 71 496 94 546 153 c 1
 576 131 l 1
 544 87 528 69 498 47 c 0
 441 4 375 -18 304 -18 c 0
 141 -18 32 86 32 241 c 0
 32 483 217 685 440 685 c 0
 481 685 528 677 571 664 c 0
 586 659 601 656 609 656 c 0
 624 656 633 663 647 685 c 1
 677 685 l 1
EndSplineSet
KernsSLIF: 286 -25 0 0 287 -25 0 0 79 -25 0 0 75 -28 0 0 72 -26 0 0 262 -24 0 0 256 -24 0 0 257 -24 0 0 225 -31 0 0 65 -24 0 0
EndChar
StartChar: D
Encoding: 68 68 37
Width: 744
Flags: W
HStem: 0 25<-24 -15.8333> 0 34<247 264> 638 31<116 408>
VStem: 560 147<396 457>
DStem: 177 543 340 600 56 97 212 126
Fore
116 644 m 1xb0
 116 669 l 1
 406 669 l 2
 595 669 707 567 707 396 c 0
 707 169 517 0 262 0 c 2x70
 -24 0 l 1
 -24 25 l 1
 25 31 41 46 56 97 c 1
 177 543 l 1
 185 575 189 592 189 602 c 0
 189 626 179 634 147 639 c 0
 143 640 130 642 116 644 c 1xb0
340 600 m 1
 212 126 l 1
 212 126 211 124 211 122 c 0
 202 96 199 80 199 68 c 0
 199 45 216 34 253 34 c 0
 348 34 419 71 472 147 c 0
 526 224 560 343 560 457 c 0
 560 579 506 638 395 638 c 0
 363 638 347 627 340 600 c 1
EndSplineSet
KernsSLIF: 89 -64 0 0 88 -64 0 0 87 -58 0 0 86 -60 0 0 84 -27 0 0 74 -67 0 0 261 -54 0 0 262 -54 0 0 258 -54 0 0 256 -54 0 0 259 -54 0 0 257 -54 0 0 65 -54 0 0
EndChar
StartChar: E
Encoding: 69 69 38
Width: 670
Flags: W
HStem: 0 32<247 530> 338 32<269 297> 637 32<116 425>
DStem: 179 546 339 593 56 97 278 370 179 546 269 338 56 97 213 129
Fore
589 194 m 1
 530 0 l 1
 -24 0 l 1
 -24 25 l 1
 28 33 40 44 56 97 c 1
 179 546 l 2
 185 568 189 591 189 606 c 0
 189 627 178 635 147 639 c 0
 142 640 130 642 116 644 c 1
 116 669 l 1
 656 669 l 1
 613 479 l 1
 586 484 l 1
 586 546 579 571 556 595 c 0
 529 622 475 637 402 637 c 0
 361 637 349 628 339 593 c 1
 278 370 l 1
 410 369 436 382 483 476 c 1
 511 472 l 1
 437 199 l 1
 409 204 l 1
 412 223 413 234 413 248 c 0
 413 317 383 336 269 338 c 1
 213 129 l 1
 211 123 l 1
 210 115 208 109 206 104 c 0
 201 84 198 73 198 66 c 0
 198 42 216 32 259 32 c 0
 345 32 413 51 469 90 c 0
 508 117 529 142 564 199 c 1
 589 194 l 1
EndSplineSet
EndChar
StartChar: F
Encoding: 70 70 39
Width: 656
Flags: W
HStem: 0 25<257 271> 338 32<269 297> 637 32<116 432>
DStem: 179 546 339 593 56 97 278 370 179 546 269 338 56 97 215 137
Fore
504 472 m 1
 430 199 l 1
 402 204 l 1
 405 223 406 234 406 248 c 0
 406 316 376 336 269 338 c 1
 215 137 l 1
 214 135 213 129 211 122 c 0
 203 97 200 81 200 69 c 0
 200 38 215 29 271 25 c 1
 271 0 l 1
 -24 0 l 1
 -24 25 l 1
 28 33 40 44 56 97 c 1
 179 546 l 2
 185 568 189 592 189 606 c 0
 189 627 178 636 147 639 c 0
 142 640 130 642 116 644 c 1
 116 669 l 1
 649 669 l 1
 606 479 l 1
 579 484 l 1
 579 540 573 567 553 590 c 0
 526 621 475 637 402 637 c 0
 362 637 349 628 339 593 c 1
 278 370 l 1
 409 371 429 382 476 476 c 1
 504 472 l 1
EndSplineSet
KernsSLIF: 117 -42 0 0 114 -38 0 0 46 -98 0 0 249 -79 0 0 250 -86 0 0 351 -45 0 0 352 -82 0 0 111 -81 0 0 106 -34 0 0 105 -29 0 0 45 -54 0 0 335 -86 0 0 101 -86 0 0 44 -96 0 0 328 -75 0 0 241 -83 0 0 322 -48 0 0 323 -75 0 0 97 -75 0 0 286 -48 0 0 79 -48 0 0 74 -88 0 0 261 -101 0 0 262 -101 0 0 258 -101 0 0 256 -101 0 0 259 -101 0 0 257 -101 0 0 65 -101 0 0
EndChar
StartChar: G
Encoding: 71 71 40
Width: 722
Flags: W
HStem: -18 38<317 343> 304 26<419 429.75 692.75 706> 649 36<446 470>
VStem: 21 156<208 251>
Fore
706 330 m 1
 706 304 l 1
 653 300 646 292 627 222 c 1
 579 41 l 1
 551 28 l 2
 494 2 394 -18 317 -18 c 0
 142 -18 21 92 21 251 c 0
 21 404 108 555 240 632 c 0
 301 667 372 685 448 685 c 0
 494 685 527 679 572 664 c 0
 591 657 599 655 608 655 c 0
 628 655 639 663 650 685 c 1
 681 685 l 1
 630 464 l 1
 601 468 l 1
 599 536 592 565 570 598 c 0
 548 630 509 649 462 649 c 0
 417 649 374 633 336 601 c 0
 245 524 177 357 177 208 c 0
 177 86 235 20 341 20 c 0
 380 20 421 33 435 50 c 0
 439 55 439 55 462 133 c 0
 489 225 493 242 493 268 c 0
 493 277 487 288 481 292 c 0
 470 298 462 300 419 304 c 1
 419 330 l 1
 706 330 l 1
EndSplineSet
KernsSLIF: 89 -31 0 0 87 -27 0 0 86 -27 0 0 84 -42 0 0 261 -14 0 0 262 -14 0 0 258 -14 0 0 256 -14 0 0 259 -14 0 0 257 -14 0 0 225 -20 0 0 65 -14 0 0
EndChar
StartChar: H
Encoding: 72 72 41
Width: 778
Flags: W
HStem: 0 25<-24 -16.8571 259.4 272 340 356.75 629.5 657> 329 44<278 505> 644 25<400.5 433 791.714 799>
DStem: 178 546 332 572 56 97 278 373 178 546 266 329 56 97 216 148 505 329 718 572 441 97 609 175 564 546 718 572 517 373 609 175
Fore
657 25 m 1
 657 0 l 1
 340 0 l 1
 340 25 l 1
 407 29 427 43 441 97 c 1
 505 329 l 1
 266 329 l 1
 216 148 l 1
 215 143 213 138 212 132 c 0
 203 100 199 82 199 68 c 0
 199 36 209 30 272 25 c 1
 272 0 l 1
 -24 0 l 1
 -24 25 l 1
 26 32 40 45 56 97 c 1
 178 546 l 2
 185 572 189 593 189 604 c 0
 189 626 178 635 147 639 c 0
 142 640 130 642 116 644 c 1
 116 669 l 1
 433 669 l 1
 433 644 l 1
 368 642 348 627 332 572 c 1
 278 373 l 1
 517 373 l 1
 564 546 l 2
 569 564 574 595 574 607 c 0
 574 627 564 635 533 639 c 0
 528 640 515 642 501 644 c 1
 501 669 l 1
 799 669 l 1
 799 644 l 1
 748 637 734 625 718 572 c 1
 609 175 l 1
 603 153 l 2
 589 103 584 80 584 66 c 0
 584 37 602 27 657 25 c 1
EndSplineSet
EndChar
StartChar: I
Encoding: 73 73 42
Width: 393
Flags: W
HStem: 0 25<-24 -15.8333 253 272> 644 25<405.5 414>
DStem: 179 546 332 572 56 97 218 152
Fore
272 25 m 1
 272 0 l 1
 -24 0 l 1
 -24 25 l 1
 25 31 40 45 56 97 c 1
 179 546 l 2
 184 564 189 595 189 607 c 0
 189 627 179 635 148 639 c 0
 143 640 130 642 116 644 c 1
 116 669 l 1
 414 669 l 1
 414 644 l 1
 363 638 348 625 332 572 c 1
 218 152 l 2
 205 103 200 80 200 65 c 0
 200 37 215 28 272 25 c 1
EndSplineSet
EndChar
StartChar: J
Encoding: 74 74 43
Width: 500
Flags: W
HStem: -99 36<83 106> 644 25<515.833 524>
VStem: -46 127<0 14>
DStem: 289 546 443 572 175 114 315 93
Fore
524 669 m 1
 524 644 l 1
 475 638 460 625 443 572 c 1
 315 93 l 2
 280 -38 214 -99 106 -99 c 0
 18 -99 -46 -56 -46 2 c 0
 -46 41 -18 72 18 72 c 0
 53 72 81 44 81 9 c 0
 81 -5 78 -11 68 -24 c 0
 60 -33 58 -38 58 -45 c 0
 58 -57 67 -63 85 -63 c 0
 121 -63 136 -35 175 114 c 2
 289 546 l 2
 296 572 300 595 300 607 c 0
 300 625 287 635 258 639 c 0
 253 640 241 642 227 644 c 1
 227 669 l 1
 524 669 l 1
EndSplineSet
KernsSLIF: 262 -39 0 0 256 -39 0 0 225 -42 0 0 65 -39 0 0
EndChar
StartChar: K
Encoding: 75 75 44
Width: 664
Flags: W
HStem: 0 25<-24 -15.8333 252 265 329 341 599.5 609> 642 27<488 509>
DStem: 178 546 332 572 56 97 270 344 178 546 268 337 56 97 201 88 268 337 389 398 381 95 546 60
Fore
389 398 m 1
 546 60 l 2
 557 36 571 29 609 25 c 1
 609 0 l 1
 329 0 l 1
 329 25 l 1
 341 26 352 27 356 28 c 0
 382 30 394 38 394 52 c 0
 394 63 390 75 381 95 c 2
 268 337 l 1
 201 88 l 1
 200 83 199 77 199 71 c 0
 199 38 213 29 265 25 c 1
 265 0 l 1
 -24 0 l 1
 -24 25 l 1
 25 31 40 44 56 97 c 1
 178 546 l 2
 185 572 189 593 189 604 c 0
 189 626 178 635 147 639 c 0
 142 640 130 642 116 644 c 1
 116 669 l 1
 426 669 l 1
 426 644 l 1
 367 639 348 624 332 572 c 1
 270 344 l 1
 476 520 544 588 544 617 c 0
 544 632 534 639 509 642 c 0
 506 642 497 643 488 644 c 1
 488 669 l 1
 699 669 l 1
 699 644 l 1
 656 638 648 635 605 596 c 2
 389 398 l 1
EndSplineSet
KernsSLIF: 121 -68 0 0 362 -8 0 0 117 -8 0 0 351 -13 0 0 352 -13 0 0 111 -13 0 0 45 -30 0 0 101 -16 0 0 328 3 0 0 241 -4 0 0 322 3 0 0 97 3 0 0 83 -1 0 0 286 -43 0 0 287 -43 0 0 234 -42 0 0 79 -43 0 0 71 -46 0 0 67 -51 0 0
EndChar
StartChar: L
Encoding: 76 76 45
Width: 609
Flags: W
HStem: 0 32<247 529> 644 25<416.5 433>
DStem: 179 546 332 572 56 97 203 94
Fore
588 194 m 1
 529 0 l 1
 -24 0 l 1
 -24 25 l 1
 25 32 40 45 56 97 c 1
 179 546 l 2
 184 564 189 595 189 607 c 0
 189 627 179 635 148 639 c 0
 143 640 130 642 116 644 c 1
 116 669 l 1
 433 669 l 1
 433 644 l 1
 367 640 348 627 332 572 c 1
 203 94 l 2
 200 83 198 70 198 62 c 0
 198 41 218 32 262 32 c 0
 344 32 415 52 469 90 c 0
 508 118 530 143 564 199 c 1
 588 194 l 1
EndSplineSet
KernsSLIF: 121 -23 0 0 362 5 0 0 117 5 0 0 39 -67 0 0 186 -45 0 0 45 41 0 0 89 -41 0 0 87 -74 0 0 86 -77 0 0 298 -17 0 0 85 -17 0 0 84 -30 0 0 83 1 0 0 290 4 0 0 288 4 0 0 286 4 0 0 289 4 0 0 287 4 0 0 79 4 0 0 71 4 0 0 262 28 0 0 256 28 0 0 257 28 0 0 225 25 0 0 65 28 0 0
EndChar
StartChar: M
Encoding: 77 77 46
Width: 896
Flags: W
HStem: 0 25<170 178 463 479.25 755.667 775> 644 25<120 141 908.5 917>
DStem: 181 551 218 547 72 178 117 178 218 547 341 669 285 -12 395 189 688 561 836 572 563 97 713 123 705 669 688 561 395 189 313 -12
Fore
917 669 m 1
 917 644 l 1
 866 638 851 624 836 572 c 1
 713 123 l 1
 712 118 l 1
 711 113 l 1
 705 92 703 78 703 68 c 0
 703 36 717 28 775 25 c 1
 775 0 l 1
 463 0 l 1
 463 25 l 1
 528 29 547 43 563 97 c 1
 688 561 l 1
 313 -12 l 1
 285 -12 l 1
 218 547 l 1
 117 178 l 2
 104 130 98 102 98 86 c 0
 98 45 114 33 178 25 c 1
 178 0 l 1
 -29 0 l 1
 -29 25 l 1
 25 37 32 48 72 178 c 1
 181 551 l 2
 188 576 192 596 192 609 c 0
 192 637 183 641 120 644 c 1
 120 669 l 1
 341 669 l 1
 395 189 l 1
 705 669 l 1
 917 669 l 1
EndSplineSet
EndChar
StartChar: N
Encoding: 78 78 47
Width: 722
Flags: W
HStem: 0 25<167.2 179> 644 25<109 120 537 548.8>
DStem: 192 589 216 534 72 178 117 178 216 534 304 669 473 -15 519 204 599 491 644 491 519 204 501 -15
Fore
304 669 m 1
 519 204 l 1
 599 491 l 2
 610 531 617 567 617 585 c 0
 617 623 596 639 537 644 c 1
 537 669 l 1
 746 669 l 1
 746 644 l 1
 688 631 683 623 644 491 c 1
 501 -15 l 1
 473 -15 l 1
 216 534 l 1
 117 178 l 1
 106 137 99 102 99 84 c 0
 99 45 120 30 179 25 c 1
 179 0 l 1
 -29 0 l 1
 -29 25 l 1
 26 36 33 47 72 178 c 1
 192 589 l 1
 173 633 164 639 109 644 c 1
 109 669 l 1
 304 669 l 1
EndSplineSet
KernsSLIF: 362 -33 0 0 117 -33 0 0 46 -26 0 0 249 -32 0 0 351 -34 0 0 352 -34 0 0 111 -32 0 0 335 -38 0 0 101 -37 0 0 44 -24 0 0 328 -27 0 0 241 -34 0 0 322 -27 0 0 323 -27 0 0 97 -25 0 0 286 -32 0 0 287 -32 0 0 79 -32 0 0 71 -26 0 0 264 -30 0 0 67 -32 0 0 262 -39 0 0 256 -39 0 0 257 -39 0 0 225 -42 0 0 65 -39 0 0
EndChar
StartChar: O
Encoding: 79 79 48
Width: 722
Flags: W
HStem: -18 34<261 284> 651 34<427.95 460>
VStem: 27 144<137 221> 547 144<454 531>
Fore
449 685 m 0
 588 685 691 587 691 454 c 0
 691 308 609 149 485 58 c 0
 418 8 342 -18 263 -18 c 0
 122 -18 27 78 27 221 c 0
 27 360 113 521 234 609 c 0
 302 659 376 685 449 685 c 0
445 651 m 0
 381 651 328 610 277 520 c 0
 222 424 171 239 171 137 c 0
 171 63 210 16 273 16 c 0
 327 16 372 46 418 113 c 0
 485 211 547 411 547 531 c 0
 547 603 506 651 445 651 c 0
EndSplineSet
KernsSLIF: 89 -56 0 0 88 -63 0 0 87 -52 0 0 86 -52 0 0 84 -18 0 0 262 -57 0 0 256 -57 0 0 257 -57 0 0 225 -67 0 0 65 -57 0 0
EndChar
StartChar: P
Encoding: 80 80 49
Width: 614
Flags: W
HStem: 0 25<251.333 270> 317 35<311 343> 637 32<116 393>
VStem: 470 146<514 546>
DStem: 179 546 336 593 56 97 272 354 179 546 262 322 56 97 208 123
Fore
116 644 m 1
 116 669 l 1
 403 669 l 2
 542 669 616 615 616 514 c 0
 616 394 509 317 343 317 c 0
 317 317 298 318 262 322 c 1
 208 123 l 1
 204 107 198 74 198 64 c 0
 198 37 214 28 270 25 c 1
 270 0 l 1
 -24 0 l 1
 -24 25 l 1
 28 33 40 44 56 97 c 1
 179 546 l 2
 185 568 189 592 189 606 c 0
 189 627 178 636 147 639 c 0
 142 640 130 642 116 644 c 1
336 593 m 1
 272 354 l 1
 289 353 300 352 314 352 c 0
 384 352 421 375 447 434 c 0
 461 465 470 511 470 546 c 0
 470 604 439 637 386 637 c 0
 367 637 356 633 347 622 c 0
 343 617 343 617 336 593 c 1
EndSplineSet
KernsSLIF: 46 -109 0 0 249 -47 0 0 250 -57 0 0 351 -35 0 0 352 -52 0 0 111 -52 0 0 45 -54 0 0 335 -57 0 0 101 -57 0 0 44 -107 0 0 328 -50 0 0 241 -58 0 0 322 -38 0 0 323 -50 0 0 97 -50 0 0 74 -105 0 0 262 -89 0 0 256 -89 0 0 257 -89 0 0 225 -104 0 0 65 -89 0 0
EndChar
StartChar: Q
Encoding: 81 81 50
Width: 722
Flags: W
HStem: -208 90<396 479> 651 34<427.95 460>
VStem: 27 144<136 211> 547 144<452 531>
Fore
634 -40 m 1
 655 -59 l 1
 574 -168 505 -208 396 -208 c 0
 355 -208 322 -202 260 -182 c 0
 208 -166 185 -161 156 -161 c 0
 124 -161 97 -168 42 -189 c 1
 28 -165 l 1
 184 -35 l 2
 192 -28 197 -24 198 -23 c 0
 200 -21 201 -19 203 -16 c 1
 200 -12 197 -10 189 -7 c 0
 136 12 123 19 97 44 c 0
 52 86 27 146 27 211 c 0
 27 454 233 685 449 685 c 0
 589 685 691 587 691 452 c 0
 691 319 624 179 514 80 c 0
 437 11 382 -9 252 -17 c 1
 231 -37 206 -62 206 -64 c 0
 206 -68 216 -70 244 -72 c 0
 286 -75 330 -82 354 -90 c 2
 396 -103 l 2
 432 -114 453 -118 479 -118 c 0
 539 -118 576 -99 634 -40 c 1
445 651 m 0
 381 651 328 610 277 520 c 0
 222 423 171 239 171 136 c 0
 171 63 210 17 273 17 c 0
 327 17 372 47 418 114 c 0
 485 212 547 411 547 531 c 0
 547 603 506 651 445 651 c 0
EndSplineSet
EndChar
StartChar: R
Encoding: 82 82 51
Width: 672
Flags: W
HStem: 0 25<-24 -15.8333 257.5 272 595.8 607> 331 32<278 298> 637 32<116 394>
VStem: 477 151<524 544>
DStem: 179 546 338 593 56 97 278 363 179 546 269 331 56 97 214 138 298 331 436 343 405 0 519 97
Fore
116 644 m 1
 116 669 l 1
 392 669 l 2
 550 669 628 622 628 526 c 0
 628 470 599 419 548 385 c 0
 516 364 491 354 436 343 c 1
 519 97 l 1
 541 38 551 30 607 25 c 1
 607 0 l 1
 405 0 l 1
 298 331 l 1
 269 331 l 1
 214 138 l 2
 205 107 200 81 200 67 c 0
 200 37 214 29 272 25 c 1
 272 0 l 1
 -24 0 l 1
 -24 25 l 1
 25 31 40 45 56 97 c 1
 179 546 l 1
 184 563 189 595 189 607 c 0
 189 627 179 635 148 639 c 0
 143 640 130 642 116 644 c 1
338 593 m 1
 278 363 l 1
 340 364 379 371 405 388 c 0
 448 415 477 476 477 542 c 0
 477 602 444 637 387 637 c 0
 356 637 347 629 338 593 c 1
EndSplineSet
KernsSLIF: 121 -12 0 0 362 -13 0 0 363 -13 0 0 117 -13 0 0 250 -23 0 0 351 -18 0 0 352 -18 0 0 111 -18 0 0 45 -30 0 0 335 -21 0 0 101 -21 0 0 328 -1 0 0 241 -9 0 0 322 -1 0 0 323 -1 0 0 97 -1 0 0 89 -40 0 0 87 -46 0 0 86 -46 0 0 298 -44 0 0 85 -44 0 0 84 -24 0 0 286 -34 0 0 287 -34 0 0 234 -32 0 0 79 -34 0 0 71 -28 0 0 264 -32 0 0 67 -33 0 0
EndChar
StartChar: S
Encoding: 83 83 52
Width: 556
Flags: W
HStem: -18 34<219 239> 650 35<303 327>
VStem: 102 121<491 545> 347 121<142 185>
Fore
2 -18 m 1
 38 206 l 1
 67 204 l 1
 71 144 79 114 98 83 c 0
 123 41 169 16 221 16 c 0
 270 16 305 35 328 74 c 0
 340 96 347 120 347 142 c 0
 347 188 312 235 234 295 c 0
 178 339 137 383 115 425 c 0
 107 442 102 464 102 491 c 0
 102 601 189 685 303 685 c 0
 331 685 358 680 401 666 c 0
 426 659 443 655 452 655 c 0
 473 655 487 663 496 681 c 1
 526 681 l 1
 486 480 l 1
 459 484 l 1
 446 601 407 650 327 650 c 0
 263 650 223 609 223 545 c 0
 223 500 238 478 300 431 c 0
 422 338 468 271 468 185 c 0
 468 61 379 -18 239 -18 c 0
 199 -18 165 -11 116 6 c 0
 93 14 80 17 70 17 c 0
 51 17 44 11 32 -18 c 1
 2 -18 l 1
EndSplineSet
KernsSLIF: 116 -6 0 0 89 -24 0 0 87 -20 0 0 86 -20 0 0 84 -34 0 0 262 -11 0 0 256 -11 0 0 257 -11 0 0 225 -17 0 0 65 -11 0 0
EndChar
StartChar: T
Encoding: 84 84 53
Width: 611
Flags: W
HStem: 0 25<50 381 357.667 381> 634 35<99 469.876>
DStem: 303 634 449 634 155 97 309 128
Fore
650 669 m 1
 614 477 l 1
 587 479 l 1
 582 590 543 633 449 634 c 1
 309 128 l 2
 302 102 298 81 298 66 c 0
 298 34 311 28 381 25 c 1
 381 0 l 1
 50 0 l 1
 50 25 l 1
 64 25 l 2
 115 25 141 46 155 97 c 2
 303 634 l 1
 201 632 138 591 86 491 c 1
 61 498 l 1
 99 669 l 1
 650 669 l 1
EndSplineSet
KernsSLIF: 121 -86 0 0 119 -89 0 0 118 -89 0 0 117 -91 0 0 59 -98 0 0 115 -78 0 0 114 -76 0 0 46 -79 0 0 249 -90 0 0 111 -90 0 0 106 -27 0 0 105 -19 0 0 45 -74 0 0 172 -120 0 0 171 -110 0 0 103 -95 0 0 101 -94 0 0 44 -77 0 0 58 -98 0 0 99 -89 0 0 241 -91 0 0 97 -83 0 0 89 11 0 0 87 15 0 0 86 15 0 0 83 -16 0 0 290 -22 0 0 233 -22 0 0 288 -22 0 0 286 -22 0 0 289 -22 0 0 287 -22 0 0 234 -18 0 0 79 -22 0 0 74 -63 0 0 71 -9 0 0 67 -15 0 0 261 -52 0 0 262 -52 0 0 258 -52 0 0 256 -52 0 0 259 -52 0 0 257 -52 0 0 225 -54 0 0 65 -52 0 0
EndChar
StartChar: U
Encoding: 85 85 54
Width: 722
Flags: W
HStem: -18 56<290 327> 640 29<98 129>
VStem: 67 138<137 159>
DStem: 156 529 315 572 100 323 233 272 597 491 642 491 539 282 576 263
Fore
744 669 m 1
 744 644 l 1
 689 633 682 623 642 491 c 1
 576 263 l 2
 545 155 521 101 487 62 c 0
 442 9 375 -18 290 -18 c 0
 159 -18 67 50 67 148 c 0
 67 181 79 243 100 323 c 1
 156 529 l 2
 165 562 171 593 171 605 c 0
 171 627 161 635 129 640 c 0
 125 640 112 642 98 644 c 1
 98 669 l 1
 409 669 l 1
 409 644 l 1
 347 641 332 629 315 572 c 1
 233 272 l 2
 208 181 205 166 205 139 c 0
 205 76 251 38 327 38 c 0
 382 38 426 58 460 98 c 0
 490 135 512 185 539 282 c 2
 597 491 l 1
 608 532 616 571 616 588 c 0
 616 623 593 639 536 644 c 1
 536 669 l 1
 744 669 l 1
EndSplineSet
KernsSLIF: 114 -32 0 0 46 -41 0 0 112 -30 0 0 110 -39 0 0 109 -35 0 0 44 -40 0 0 261 -65 0 0 262 -65 0 0 256 -65 0 0 259 -65 0 0 257 -65 0 0 225 -71 0 0 65 -65 0 0
EndChar
StartChar: V
Encoding: 86 86 55
Width: 667
Flags: W
HStem: -18 21G<231 263> 644 25<65 88.5574 351.833 363 523 548>
DStem: 155 491 288 583 231 -18 339 182 529 484 656 604 339 182 263 -18
Fore
715 669 m 1
 715 644 l 1
 687 635 669 623 656 604 c 1
 263 -18 l 1
 231 -18 l 1
 155 491 l 1
 133 634 127 644 65 644 c 1
 65 669 l 1
 363 669 l 1
 363 644 l 1
 296 638 287 633 287 599 c 0
 287 593 287 589 288 583 c 1
 339 182 l 1
 529 484 l 2
 568 545 588 589 588 611 c 0
 588 630 576 639 548 642 c 0
 544 642 534 643 523 644 c 1
 523 669 l 1
 715 669 l 1
EndSplineSet
KernsSLIF: 121 -34 0 0 117 -47 0 0 59 -96 0 0 114 -44 0 0 46 -97 0 0 249 -81 0 0 111 -83 0 0 105 -12 0 0 45 -62 0 0 172 -109 0 0 171 -99 0 0 103 -83 0 0 101 -87 0 0 44 -96 0 0 58 -96 0 0 241 -84 0 0 97 -76 0 0 84 7 0 0 83 -25 0 0 290 -64 0 0 233 -64 0 0 288 -64 0 0 286 -64 0 0 289 -64 0 0 287 -64 0 0 79 -64 0 0 71 -53 0 0 67 -60 0 0 261 -100 0 0 262 -100 0 0 258 -100 0 0 256 -100 0 0 259 -100 0 0 257 -100 0 0 225 -111 0 0 65 -100 0 0
EndChar
StartChar: W
Encoding: 87 87 56
Width: 889
Flags: W
HStem: -18 21G<220 249 541 570> 644 25<334.167 342 658.4 669 753 767>
VStem: 471 135<537 586>
DStem: 142 561 282 575 220 -18 321 226 471 537 482 471 321 226 249 -18 482 471 612 521 541 -18 645 226 801 553 856 572 645 226 570 -18
Fore
940 669 m 1
 940 645 l 1
 898 639 884 627 856 572 c 1
 570 -18 l 1
 541 -18 l 1
 482 471 l 1
 249 -18 l 1
 220 -18 l 1
 142 561 l 1
 132 632 130 634 65 645 c 1
 65 669 l 1
 342 669 l 1
 342 644 l 1
 295 638 281 627 281 591 c 0
 281 587 281 580 282 575 c 1
 321 226 l 1
 471 537 l 1
 470 623 460 637 400 645 c 1
 400 669 l 1
 669 669 l 1
 669 644 l 1
 616 639 606 630 606 586 c 0
 606 575 606 572 612 521 c 1
 645 226 l 1
 801 553 l 2
 813 579 816 587 816 599 c 0
 816 635 809 640 753 644 c 1
 753 669 l 1
 940 669 l 1
EndSplineSet
KernsSLIF: 121 -25 0 0 117 -38 0 0 59 -79 0 0 114 -34 0 0 46 -64 0 0 249 -57 0 0 111 -58 0 0 105 -11 0 0 45 -37 0 0 172 -84 0 0 171 -74 0 0 103 -63 0 0 101 -62 0 0 44 -62 0 0 58 -78 0 0 241 -60 0 0 97 -51 0 0 84 8 0 0 83 -24 0 0 290 -47 0 0 233 -48 0 0 288 -47 0 0 286 -47 0 0 289 -47 0 0 287 -47 0 0 79 -47 0 0 71 -41 0 0 67 -46 0 0 261 -83 0 0 262 -83 0 0 258 -83 0 0 256 -83 0 0 259 -83 0 0 257 -83 0 0 225 -87 0 0 65 -83 0 0
EndChar
StartChar: X
Encoding: 88 88 57
Width: 667
Flags: W
HStem: 0 25<178.75 190 278 288.8 577 586> 641 28<100 389.187 491 513>
DStem: 275 309 289 264 207 235 155 116 476 520 595 583 382 421 396 378
Fore
586 25 m 1
 586 0 l 1
 278 0 l 1
 278 25 l 1
 332 30 346 38 346 63 c 0
 346 84 335 127 308 204 c 0
 295 243 293 250 289 264 c 1
 155 116 l 2
 133 92 125 78 125 65 c 0
 125 42 145 29 190 25 c 1
 190 0 l 1
 -24 0 l 1
 -24 25 l 1
 18 33 49 61 207 235 c 2
 275 309 l 1
 191 581 l 1
 175 627 160 638 100 644 c 1
 100 669 l 1
 405 669 l 1
 405 644 l 1
 391 642 380 641 375 641 c 0
 342 637 331 628 331 605 c 0
 331 591 342 549 365 476 c 0
 367 471 369 465 371 458 c 2
 382 421 l 1
 476 520 l 2
 527 574 546 600 546 618 c 0
 546 633 536 640 513 642 c 0
 509 642 501 643 491 644 c 1
 491 669 l 1
 694 669 l 1
 694 644 l 1
 658 639 639 627 595 583 c 1
 396 378 l 1
 470 141 l 2
 499 47 514 33 586 25 c 1
EndSplineSet
KernsSLIF: 121 -81 0 0 117 -21 0 0 111 -26 0 0 45 -46 0 0 101 -29 0 0 97 -9 0 0 81 -58 0 0 286 -56 0 0 79 -56 0 0 67 -58 0 0
EndChar
StartChar: Y
Encoding: 89 89 58
Width: 611
Flags: W
HStem: 0 25<73 86.8 373.333 395> 644 25<73 356 301 356 451 477.5>
DStem: 234 313 378 308 174 97 326 117 492 538 568 575 363 352 378 308
Fore
234 313 m 1
 146 581 l 1
 127 634 124 637 73 644 c 1
 73 669 l 1
 356 669 l 1
 356 644 l 1
 301 643 286 635 286 607 c 0
 286 590 296 554 319 488 c 0
 322 478 329 458 338 429 c 0
 341 418 356 374 363 352 c 1
 492 538 l 2
 512 567 518 580 518 598 c 0
 518 633 504 642 451 644 c 1
 451 669 l 1
 659 669 l 1
 659 644 l 1
 621 636 602 621 568 575 c 1
 378 308 l 1
 326 117 l 2
 320 94 318 84 318 72 c 0
 318 35 330 28 395 25 c 1
 395 0 l 1
 73 0 l 1
 73 25 l 1
 142 30 156 40 174 97 c 1
 234 313 l 1
EndSplineSet
KernsSLIF: 118 -54 0 0 117 -59 0 0 59 -91 0 0 46 -69 0 0 112 -54 0 0 249 -75 0 0 111 -76 0 0 105 -12 0 0 45 -63 0 0 172 -107 0 0 171 -97 0 0 103 -81 0 0 101 -80 0 0 44 -67 0 0 58 -91 0 0 241 -77 0 0 97 -69 0 0 84 7 0 0 83 -25 0 0 290 -61 0 0 233 -61 0 0 288 -61 0 0 286 -61 0 0 289 -61 0 0 287 -61 0 0 79 -61 0 0 71 -54 0 0 67 -59 0 0 261 -45 0 0 262 -45 0 0 258 -45 0 0 256 -45 0 0 259 -45 0 0 257 -45 0 0 225 -47 0 0 65 -45 0 0
EndChar
StartChar: Z
Encoding: 90 90 59
Width: 611
Flags: W
HStem: 0 35<156 495> 634 35<122 422>
DStem: 423 634 590 640 -11 29 156 35
Fore
554 194 m 1
 495 0 l 1
 -11 0 l 1
 -11 29 l 1
 423 634 l 1
 345 634 l 2
 235 634 172 597 93 487 c 1
 65 491 l 1
 122 669 l 1
 590 669 l 1
 590 640 l 1
 156 35 l 1
 226 35 l 2
 314 35 373 49 418 80 c 0
 458 107 496 149 527 199 c 1
 554 194 l 1
EndSplineSet
KernsSLIF: 121 -39 0 0 118 -29 0 0
EndChar
StartChar: bracketleft
Encoding: 91 91 60
Width: 333
Flags: W
HStem: -159 35<106 182> 639 35<162 355>
DStem: 162 674 234 576 -37 -159 76 -100
Fore
355 639 m 1
 286 639 l 2
 250 639 248 636 234 576 c 2
 76 -100 l 2
 75 -104 79 -113 83 -117 c 0
 88 -122 96 -124 111 -124 c 2
 189 -124 l 1
 182 -159 l 1
 -37 -159 l 1
 162 674 l 1
 362 674 l 1
 355 639 l 1
EndSplineSet
EndChar
StartChar: backslash
Encoding: 92 92 61
Width: 278
Flags: W
HStem: -18 21G<195 279> 665 20G<-1 84>
DStem: -1 685 84 685 195 -18 279 -18
Fore
-1 685 m 1
 84 685 l 1
 279 -18 l 1
 195 -18 l 1
 -1 685 l 1
EndSplineSet
EndChar
StartChar: bracketright
Encoding: 93 93 62
Width: 333
Flags: W
HStem: -157 35<-50 143> 639 35<122 201>
DStem: 229 616 343 674 71 -61 143 -157
Fore
-49 -122 m 1
 19 -122 l 2
 55 -122 57 -119 71 -61 c 1
 229 616 l 2
 232 628 216 639 194 639 c 2
 116 639 l 1
 123 674 l 1
 343 674 l 1
 143 -157 l 1
 -56 -157 l 1
 -49 -122 l 1
EndSplineSet
EndChar
StartChar: asciicircum
Encoding: 94 94 63
Width: 570
Flags: W
HStem: 649 20G<245 325>
DStem: 245 669 285 576 67 304 156 304 285 576 325 669 414 304 503 304
Fore
156 304 m 1
 67 304 l 1
 245 669 l 1
 325 669 l 1
 503 304 l 1
 414 304 l 1
 285 576 l 1
 156 304 l 1
EndSplineSet
EndChar
StartChar: underscore
Encoding: 95 95 64
Width: 500
Flags: W
HStem: -125 50<0 500>
Fore
500 -125 m 1
 0 -125 l 1
 0 -75 l 1
 500 -75 l 1
 500 -125 l 1
EndSplineSet
EndChar
StartChar: quoteleft
Encoding: 96 8216 65
Width: 333
Flags: W
Fore
319 685 m 1
 332 661 l 1
 253 619 214 580 214 545 c 0
 214 530 221 520 244 505 c 0
 274 485 284 469 284 442 c 0
 284 400 254 369 213 369 c 0
 162 369 128 408 128 467 c 0
 128 548 203 634 319 685 c 1
EndSplineSet
KernsSLIF: 89 -7 1 0 87 -3 1 0 86 -3 1 0 84 -18 1 0 262 -83 1 0 256 -83 1 0 257 -83 1 0 225 -105 1 0 65 -83 1 0
EndChar
StartChar: a
Encoding: 97 97 66
Width: 500
Flags: W
HStem: -13 71<87 147> 442 20G<190.5 273.5>
VStem: -21 123<99.9685 129> 237 113<52 72>
Fore
434 127 m 1
 455 112 l 1
 398 25 351 -14 304 -14 c 0
 267 -14 237 15 237 52 c 0
 237 66 240 80 251 119 c 1
 194 24 148 -13 87 -13 c 0
 22 -13 -21 38 -21 114 c 0
 -21 270 129 462 252 462 c 0
 295 462 317 441 326 390 c 1
 344 449 l 1
 455 456 l 1
 384 220 l 2
 360 139 350 97 350 72 c 0
 350 63 355 57 362 57 c 0
 378 57 393 72 434 127 c 1
266 420 m 0
 239 422 206 391 176 338 c 0
 135 264 102 164 102 112 c 0
 102 81 121 58 147 58 c 0
 174 58 204 85 231 133 c 0
 269 201 303 314 303 373 c 0
 303 400 288 418 266 420 c 0
EndSplineSet
KernsSLIF: 121 -3 0 0 119 -5 0 0 118 -5 0 0 39 -22 0 0 106 -2 0 0
EndChar
StartChar: b
Encoding: 98 98 67
Width: 500
Flags: W
HStem: -13 33<124 142> 394 68<275 332> 642 27<76 84.9>
VStem: -14 123<47 52> 319 125<322 340>
Fore
76 642 m 1
 76 669 l 1
 165 679 214 686 284 699 c 1
 194 371 l 1
 245 438 281 462 332 462 c 0
 398 462 444 411 444 338 c 0
 444 159 287 -13 124 -13 c 0
 59 -13 -14 19 -14 47 c 0
 -14 52 -3 96 6 128 c 2
 100 455 l 2
 126 546 139 599 139 612 c 0
 139 635 125 642 76 642 c 1
275 394 m 0
 242 394 210 364 184 307 c 0
 169 272 146 209 135 170 c 0
 127 138 109 56 109 47 c 0
 109 32 122 20 140 20 c 0
 183 20 222 51 256 111 c 0
 292 173 319 266 319 325 c 0
 319 371 304 394 275 394 c 0
EndSplineSet
KernsSLIF: 121 -17 0 0 119 -12 0 0 118 -12 0 0
EndChar
StartChar: c
Encoding: 99 99 68
Width: 444
Flags: W
HStem: -13 64<148 196> 429 33<266 280>
VStem: -5 128<124 148> 272 120<354 372>
Fore
318 141 m 1
 346 123 l 1
 311 73 295 54 269 32 c 0
 235 3 192 -13 148 -13 c 0
 58 -13 -5 49 -5 138 c 0
 -5 298 139 462 280 462 c 0
 346 462 392 425 392 372 c 0
 392 331 366 302 330 302 c 0
 297 302 272 324 272 354 c 0
 272 366 276 377 285 393 c 0
 291 402 293 408 293 412 c 0
 293 422 283 429 271 429 c 0
 241 429 211 405 185 358 c 0
 149 293 123 203 123 141 c 0
 123 87 153 51 196 51 c 0
 239 51 270 74 318 141 c 1
EndSplineSet
KernsSLIF: 107 -16 0 0 104 -20 0 0
EndChar
StartChar: d
Encoding: 100 100 69
Width: 500
Flags: W
HStem: -13 72<85 144> 442 20G<190 265.5> 643 27<308 320.5>
VStem: 240 109<51 71>
Fore
427 131 m 1
 449 115 l 1
 394 27 349 -11 300 -11 c 0
 262 -11 240 12 240 51 c 0
 240 66 243 81 251 118 c 1
 194 23 148 -13 85 -13 c 0
 24 -13 -21 40 -21 112 c 0
 -21 269 129 462 251 462 c 0
 280 462 299 453 323 429 c 1
 341 497 l 1
 364 581 370 606 370 615 c 0
 370 633 355 643 329 643 c 2
 308 643 l 1
 308 670 l 1
 408 678 457 685 517 699 c 1
 406 294 l 2
 371 167 349 80 349 71 c 0
 349 65 355 59 360 59 c 0
 375 59 400 86 427 131 c 1
271 420 m 0
 241 422 205 390 173 333 c 0
 137 268 106 176 103 122 c 0
 101 87 119 59 144 59 c 0
 173 59 202 84 230 133 c 0
 264 196 308 328 308 370 c 0
 308 398 293 419 271 420 c 0
EndSplineSet
EndChar
StartChar: e
Encoding: 101 101 70
Width: 444
Flags: W
HStem: -13 64<156 200> 429 33<276 293>
VStem: 5 130<123 148> 306 92<375 395>
Fore
317 142 m 1
 346 125 l 1
 286 26 232 -13 156 -13 c 0
 69 -13 5 50 5 134 c 0
 5 299 149 462 293 462 c 0
 354 462 398 426 398 375 c 0
 398 340 379 302 344 270 c 0
 294 224 245 202 141 182 c 1
 137 162 135 149 135 133 c 0
 135 79 157 51 200 51 c 0
 242 51 270 73 317 142 c 1
148 214 m 1
 159 218 174 223 181 225 c 0
 258 254 306 319 306 395 c 0
 306 417 297 429 278 429 c 0
 230 429 184 352 148 214 c 1
EndSplineSet
KernsSLIF: 121 -6 0 0 120 -15 0 0 119 -3 0 0 118 -3 0 0 116 -3 0 0 39 -12 0 0
EndChar
StartChar: f
Encoding: 102 102 71
Width: 333
Flags: W
HStem: -205 31<-74 -56> 407 42<47 112 236 319> 669 29<342 349>
VStem: -169 85<-163 -126> -169 101<-128 -118> 346 100<610 620>
Fore
328 449 m 1xf4
 319 407 l 1
 229 407 l 1
 175 154 164 109 140 30 c 0
 107 -73 80 -126 40 -162 c 0
 9 -191 -28 -205 -70 -205 c 0
 -130 -205 -169 -174 -169 -126 c 0xf4
 -169 -97 -145 -72 -117 -72 c 0
 -92 -72 -68 -96 -68 -120 c 0xec
 -68 -131 -72 -143 -80 -154 c 0
 -83 -158 -84 -161 -84 -163 c 0
 -84 -169 -76 -174 -66 -174 c 0
 -26 -174 -7 -133 24 15 c 0
 30 44 58 169 112 407 c 1
 39 407 l 1
 48 449 l 1
 121 449 l 1
 150 550 169 591 211 637 c 0
 247 676 295 698 347 698 c 0
 407 698 446 667 446 618 c 0
 446 587 425 565 395 565 c 0
 368 565 346 587 346 614 c 0
 346 624 349 633 357 645 c 0
 361 651 362 654 362 656 c 0
 362 664 355 669 345 669 c 0
 310 669 279 619 254 520 c 2
 236 449 l 1
 328 449 l 1xf4
EndSplineSet
KernsSLIF: 116 9 0 0 115 -14 0 0 39 12 0 0 249 -29 0 0 250 -35 0 0 351 20 0 0 352 -31 0 0 111 -30 0 0 108 43 0 0 106 12 0 0 105 20 0 0 102 2 0 0 335 -36 0 0 101 -35 0 0 328 -20 0 0 241 -32 0 0 322 17 0 0 323 -24 0 0 97 -23 0 0
EndChar
StartChar: g
Encoding: 103 103 72
Width: 500
Flags: W
HStem: -203 34<134 157> 153 31<187 205> 373 56<367 478> 431 31<251 259>
VStem: -52 87<-102 -89> 35 116<243 280> 266 109<-100 -53> 300 117<331 372> 300 178<373 385.198>
Fore
478 429 m 1xfc80
 478 373 l 1xfc80
 411 373 l 1
 416 357 417 347 417 331 c 0xfd
 417 271 386 220 328 187 c 0
 289 165 245 153 201 153 c 0
 190 153 181 154 170 157 c 0
 162 160 155 161 150 161 c 0
 137 161 122 141 122 125 c 0
 122 110 141 96 173 87 c 2
 226 72 l 2
 335 41 375 7 375 -53 c 0xfe
 375 -141 276 -203 136 -203 c 0
 21 -203 -52 -162 -52 -97 c 0
 -52 -73 -41 -49 -24 -35 c 0
 -1 -16 19 -8 81 7 c 1
 37 22 19 42 19 73 c 0
 19 110 34 124 115 170 c 1
 61 193 35 229 35 280 c 0
 35 381 134 462 257 462 c 0
 303 462 334 453 367 429 c 1
 478 429 l 1xfc80
115 -6 m 0
 108 -5 77 -23 65 -35 c 0
 44 -55 35 -71 35 -91 c 0
 35 -137 81 -169 146 -169 c 0
 222 -169 266 -143 266 -100 c 0xfe
 266 -74 253 -56 225 -43 c 0
 205 -33 126 -7 115 -6 c 0
255 431 m 0
 229 431 208 415 189 382 c 0
 168 344 151 283 151 243 c 0
 151 205 166 184 194 184 c 0
 224 184 249 206 271 252 c 0
 288 288 300 338 300 372 c 0xfd
 300 406 281 431 255 431 c 0
EndSplineSet
KernsSLIF: 114 3 0 0 351 -27 0 0 352 -27 0 0 108 -21 0 0 335 -32 0 0 101 -32 0 0 328 -25 0 0 241 -34 0 0 322 -25 0 0 97 -25 0 0
EndChar
StartChar: h
Encoding: 104 104 73
Width: 556
Flags: W
HStem: 0 21G<-13 108> 390 72<331 399>
VStem: 353 122<369 387>
DStem: 141 567 294 699 -13 0 187 283
Fore
476 142 m 1
 498 127 l 1
 432 24 392 -9 331 -9 c 0
 292 -9 265 15 265 49 c 0
 265 90 278 140 326 280 c 0
 330 290 333 301 337 313 c 0
 344 333 348 344 348 346 c 0
 351 355 353 363 353 369 c 0
 353 380 343 390 331 390 c 0
 305 390 272 361 230 301 c 0
 180 228 159 178 108 0 c 1
 -13 0 l 1
 141 567 l 2
 146 586 149 601 149 610 c 0
 149 632 135 643 108 643 c 0
 103 643 94 643 86 642 c 1
 86 669 l 1
 167 676 217 684 294 699 c 1
 187 283 l 1
 243 363 267 393 298 419 c 0
 334 449 363 462 399 462 c 0
 446 462 475 434 475 387 c 0
 475 368 464 326 445 265 c 1
 387 87 l 2
 384 78 384 77 384 75 c 0
 384 68 394 59 401 59 c 0
 414 59 433 80 476 142 c 1
EndSplineSet
KernsSLIF: 121 -20 0 0 39 -32 0 0
EndChar
StartChar: i
Encoding: 105 105 74
Width: 278
Flags: W
HStem: -9 70<71 138> 407 27<21 34> 550 135<183.109 204>
DStem: 73 338 223 462 15 123 132 128
Fore
216 141 m 1
 238 127 l 1
 168 22 131 -9 71 -9 c 0
 30 -9 2 17 2 54 c 0
 2 67 7 95 15 123 c 1
 73 338 l 1
 77 355 80 370 80 378 c 0
 80 399 64 407 21 407 c 1
 21 434 l 1
 99 440 169 450 223 462 c 1
 132 128 l 2
 129 116 123 82 123 76 c 0
 123 68 130 61 138 61 c 0
 153 61 176 82 202 121 c 2
 216 141 l 1
194 685 m 0
 231 685 263 654 263 617 c 0
 263 580 232 550 194 550 c 0
 157 550 128 580 128 619 c 0
 128 654 159 685 194 685 c 0
EndSplineSet
KernsSLIF: 106 -5 0 0 84 -20 0 0
EndChar
StartChar: j
Encoding: 106 106 75
Width: 278
Flags: W
HStem: -207 31<-90 -76> 407 27<31 42.2> 550 135<199.109 213>
VStem: -189 83<-164 -130> -189 98<-132 -124> 144 135<608 626>
DStem: 81 310 239 462 -11 -45 125 24
Fore
31 407 m 1xf4
 31 434 l 1
 143 444 180 449 239 462 c 1
 125 24 l 2
 85 -131 16 -207 -84 -207 c 0
 -146 -207 -189 -176 -189 -130 c 0xf4
 -189 -101 -166 -77 -140 -77 c 0
 -113 -77 -91 -99 -91 -126 c 0xec
 -91 -137 -93 -142 -104 -158 c 0
 -105 -160 -106 -162 -106 -164 c 0
 -106 -169 -93 -176 -82 -176 c 0
 -54 -176 -37 -145 -11 -45 c 2
 81 310 l 1
 88 339 93 364 93 376 c 0
 93 402 81 407 31 407 c 1xf4
210 685 m 0
 248 685 279 654 279 617 c 0
 279 580 248 550 210 550 c 0
 173 550 144 580 144 619 c 0
 144 654 175 685 210 685 c 0
EndSplineSet
EndChar
StartChar: k
Encoding: 107 107 76
Width: 500
Flags: W
HStem: -8 71<311 363> 424 25<276 295.5 475.333 483>
DStem: 133 567 286 699 -23 0 163 239 133 567 149 188 -23 0 99 0
Fore
149 188 m 1
 99 0 l 1
 -23 0 l 1
 133 567 l 2
 138 586 141 600 141 609 c 0
 141 632 127 643 99 643 c 0
 95 643 86 643 78 642 c 1
 78 669 l 1
 157 677 209 685 286 699 c 1
 163 239 l 1
 289 338 327 375 327 401 c 0
 327 417 315 422 276 424 c 1
 276 449 l 1
 483 449 l 1
 483 424 l 1
 437 418 416 406 348 348 c 2
 285 293 l 1
 323 98 335 63 363 63 c 0
 382 63 398 80 425 127 c 1
 447 116 l 1
 397 25 361 -8 311 -8 c 0
 249 -8 219 45 188 215 c 1
 149 188 l 1
EndSplineSet
KernsSLIF: 362 2 0 0 117 2 0 0 115 1 0 0 46 17 0 0 351 1 0 0 352 1 0 0 111 1 0 0 45 1 0 0 103 -14 0 0 335 -2 0 0 101 -2 0 0 44 19 0 0 328 10 0 0 241 2 0 0 322 10 0 0 323 10 0 0 97 10 0 0
EndChar
StartChar: l
Encoding: 108 108 77
Width: 278
Flags: W
HStem: -9 70<69 138>
DStem: 110 473 290 699 36 209 145 176
Fore
216 141 m 1
 238 127 l 1
 169 22 131 -9 69 -9 c 0
 29 -9 2 15 2 51 c 0
 2 75 14 133 36 209 c 1
 110 473 l 1
 130 540 144 602 144 615 c 0
 144 633 129 643 102 643 c 0
 98 643 92 643 81 642 c 1
 81 669 l 1
 156 676 204 682 290 699 c 1
 145 176 l 1
 131 124 123 90 123 76 c 0
 123 68 130 61 138 61 c 0
 155 61 176 82 216 141 c 1
EndSplineSet
KernsSLIF: 121 -8 0 0 118 -12 0 0
EndChar
StartChar: m
Encoding: 109 109 78
Width: 778
Flags: W
HStem: 0 21G<-14 107 227 347> 407 27<34 46.7778> 442 20G<374 409 593 649>
VStem: 337 118<366 394> 495 120<54 73>
DStem: 576 338 681 284 531 207 636 151
Fore
34 407 m 1
 34 434 l 1
 149 443 170 446 234 461 c 1
 170 262 l 1
 235 362 265 400 302 428 c 1
 330 451 360 462 388 462 c 0
 430 462 455 436 455 394 c 0
 455 366 448 340 429 290 c 1
 513 422 559 462 627 462 c 0
 671 462 704 431 704 391 c 0
 704 365 696 327 681 284 c 1
 636 151 l 1
 615 84 615 84 615 73 c 0
 615 66 622 59 631 59 c 0
 644 59 665 81 688 117 c 0
 690 120 695 127 700 135 c 1
 722 122 l 1
 664 24 624 -9 562 -9 c 0
 519 -9 495 13 495 54 c 0
 495 82 509 144 531 207 c 2
 576 338 l 1
 580 351 583 362 583 368 c 0
 583 379 572 389 560 389 c 0
 530 389 490 347 448 273 c 0
 412 210 406 192 347 0 c 1
 227 0 l 1
 292 207 l 1
 325 309 337 351 337 366 c 0
 337 379 328 389 318 389 c 0
 305 389 276 368 254 343 c 0
 198 276 160 190 107 0 c 1
 -14 0 l 1
 53 238 l 2
 80 333 88 367 88 381 c 0
 88 399 74 407 42 407 c 2
 34 407 l 1
EndSplineSet
KernsSLIF: 121 -16 0 0 119 -16 0 0 118 -16 0 0 112 -1 0 0
EndChar
StartChar: n
Encoding: 110 110 79
Width: 556
Flags: W
HStem: 0 21G<-6 115> 442 20G<382.5 424.5>
VStem: 354 120<369 387>
Fore
471 135 m 1
 493 122 l 1
 435 25 393 -9 334 -9 c 0
 292 -9 266 14 266 51 c 0
 266 77 278 134 294 182 c 2
 349 348 l 2
 352 358 354 366 354 369 c 0
 354 379 341 390 329 390 c 0
 311 390 280 368 260 341 c 0
 198 260 162 173 115 0 c 1
 -6 0 l 1
 23 108 l 1
 50 204 l 2
 84 324 96 371 96 382 c 0
 96 401 84 406 42 407 c 1
 42 434 l 1
 98 436 178 447 242 461 c 1
 178 263 l 1
 245 362 264 386 300 421 c 0
 328 447 364 462 401 462 c 0
 448 462 474 435 474 387 c 0
 474 363 464 318 448 272 c 1
 412 163 l 2
 394 109 387 86 387 76 c 0
 387 66 393 59 401 59 c 0
 418 59 431 73 471 135 c 1
EndSplineSet
KernsSLIF: 121 -20 0 0 119 -20 0 0 118 -20 0 0 39 -32 0 0 112 -4 0 0 84 -59 0 0
EndChar
StartChar: o
Encoding: 111 111 80
Width: 500
Flags: W
HStem: -13 29<154 174> 433 29<268 286>
VStem: -3 119<78 135> 322 119<311 375>
Fore
284 462 m 0
 375 462 441 399 441 311 c 0
 441 142 305 -13 156 -13 c 0
 64 -13 -3 50 -3 135 c 0
 -3 303 137 462 284 462 c 0
275 433 m 0
 243 433 214 410 188 364 c 0
 153 302 116 156 116 78 c 0
 116 40 135 16 165 16 c 0
 200 16 230 45 259 107 c 0
 291 177 322 307 322 375 c 0
 322 411 304 433 275 433 c 0
EndSplineSet
KernsSLIF: 121 -29 0 0 120 -26 0 0 119 -21 0 0 118 -21 0 0 116 -2 0 0 39 -22 0 0 84 -75 0 0
EndChar
StartChar: p
Encoding: 112 112 81
Width: 500
Flags: W
HStem: -205 27<-120 129 80 129> -13 35<152 169> 442 20G<309.5 371>
Fore
23 407 m 1
 23 434 l 1
 75 440 114 446 216 462 c 1
 178 347 l 1
 237 430 281 462 338 462 c 0
 404 462 446 415 446 341 c 0
 446 168 304 -13 169 -13 c 0
 148 -13 136 -9 101 9 c 1
 98 -4 l 1
 90 -32 l 1
 72 -100 64 -133 64 -145 c 0
 64 -169 80 -177 129 -178 c 1
 129 -205 l 1
 -120 -205 l 1
 -120 -178 l 1
 -114 -178 l 2
 -73 -178 -61 -165 -45 -104 c 2
 55 284 l 1
 68 333 77 373 77 382 c 0
 77 401 68 405 23 407 c 1
282 391 m 0
 256 393 223 368 198 329 c 0
 182 305 172 277 148 195 c 0
 121 104 113 74 113 58 c 0
 113 38 130 22 152 22 c 0
 185 22 218 50 249 104 c 0
 285 169 317 269 321 334 c 0
 323 366 308 389 282 391 c 0
EndSplineSet
KernsSLIF: 121 -13 0 0 116 -2 0 0
EndChar
StartChar: q
Encoding: 113 113 82
Width: 500
Flags: W
HStem: -205 27<104 124.667 345 371> -13 72<105 165> 429 20G<362 471>
VStem: 1 125<99 136>
Fore
371 -178 m 1
 371 -205 l 1
 104 -205 l 1
 104 -178 l 1
 166 -175 177 -167 194 -115 c 1
 257 98 l 1
 205 16 165 -13 105 -13 c 0
 41 -13 1 37 1 117 c 0
 1 172 19 231 53 292 c 0
 112 394 200 462 276 462 c 0
 299 462 320 454 330 440 c 0
 339 429 342 418 347 390 c 1
 362 449 l 1
 471 449 l 1
 429 294 410 223 386 145 c 0
 344 5 306 -134 306 -150 c 0
 306 -170 321 -178 357 -178 c 2
 371 -178 l 1
290 419 m 0
 262 421 227 390 195 334 c 0
 155 262 126 172 126 116 c 0
 126 78 139 59 165 59 c 0
 196 59 225 83 253 133 c 0
 288 195 325 318 325 371 c 0
 325 399 312 417 290 419 c 0
EndSplineSet
KernsSLIF: 117 -5 0 0 99 -6 0 0
EndChar
StartChar: r
Encoding: 114 114 83
Width: 389
Flags: W
HStem: 0 21G<-21 100> 361 101<270 332>
Fore
27 407 m 1
 27 434 l 1
 148 444 167 447 227 462 c 1
 161 253 l 1
 240 411 281 462 332 462 c 0
 366 462 389 436 389 396 c 0
 389 354 364 323 330 323 c 0
 314 323 301 331 286 348 c 0
 279 357 274 361 270 361 c 0
 257 361 235 336 209 291 c 0
 180 243 165 205 133 104 c 0
 129 89 115 46 100 0 c 1
 -21 0 l 1
 47 229 81 357 81 382 c 0
 81 401 72 405 27 407 c 1
EndSplineSet
KernsSLIF: 122 10 0 0 121 20 0 0 120 7 0 0 119 20 0 0 118 20 0 0 117 11 0 0 116 12 0 0 59 -30 0 0 115 1 0 0 114 14 0 0 113 -19 0 0 46 -69 0 0 112 16 0 0 249 -12 0 0 353 -15 0 0 250 -19 0 0 351 -15 0 0 354 -15 0 0 352 -15 0 0 111 -15 0 0 110 6 0 0 109 10 0 0 108 -12 0 0 107 -11 0 0 106 12 0 0 105 17 0 0 45 -13 0 0 104 -16 0 0 103 -4 0 0 102 8 0 0 336 -20 0 0 337 -20 0 0 335 -20 0 0 101 -20 0 0 100 -14 0 0 44 -67 0 0 58 -30 0 0 332 -8 0 0 99 -15 0 0 328 -13 0 0 324 -13 0 0 241 -22 0 0 322 -13 0 0 325 -13 0 0 323 -13 0 0 97 -13 0 0
EndChar
StartChar: s
Encoding: 115 115 84
Width: 389
Flags: W
HStem: -13 30<124 133> 429 33<181 199>
VStem: 47 95<336 376> 183 96<71 119>
Fore
333 461 m 1
 310 308 l 1
 283 310 l 1
 267 393 241 429 195 429 c 0
 163 429 142 408 142 376 c 0
 142 354 160 323 198 278 c 0
 254 213 279 164 279 119 c 0
 279 44 215 -13 131 -13 c 0
 111 -13 92 -9 68 -1 c 0
 55 4 44 7 37 7 c 0
 24 7 12 -1 8 -13 c 1
 -19 -13 l 1
 3 153 l 1
 30 150 l 1
 38 96 46 73 66 48 c 0
 82 28 103 17 126 17 c 0
 158 17 183 41 183 71 c 0
 183 96 165 130 127 175 c 0
 61 253 47 282 47 336 c 0
 47 412 100 462 181 462 c 0
 201 462 214 459 239 449 c 0
 257 442 266 440 275 440 c 0
 290 440 293 442 304 461 c 1
 333 461 l 1
EndSplineSet
KernsSLIF: 116 -6 0 0 39 -22 0 0
EndChar
StartChar: t
Encoding: 116 116 85
Width: 278
Flags: W
HStem: -9 70<59 127> 407 42<209 281>
DStem: 81 407 198 407 13 169 165 289
Fore
281 449 m 1
 281 407 l 1
 198 407 l 1
 165 289 l 1
 129 167 111 94 111 76 c 0
 111 69 119 61 127 61 c 0
 143 61 169 88 203 141 c 1
 225 127 l 1
 159 24 119 -9 59 -9 c 0
 17 -9 -11 17 -11 56 c 0
 -11 73 -1 118 13 169 c 1
 81 407 l 1
 30 407 l 1
 30 442 l 1
 109 472 159 513 213 594 c 1
 248 594 l 1
 209 449 l 1
 281 449 l 1
EndSplineSet
KernsSLIF: 59 -23 0 0 39 -19 0 0 351 1 0 0 352 1 0 0 111 1 0 0 104 -5 0 0 335 -2 0 0 101 -2 0 0 58 -22 0 0 328 10 0 0 241 2 0 0 322 10 0 0 323 10 0 0 97 10 0 0 83 -11 0 0
EndChar
StartChar: u
Encoding: 117 117 86
Width: 556
Flags: W
HStem: -9 72<90 155> 429 20G<370 488>
VStem: 15 119<65 88> 266 119<51 76>
DStem: 76 306 243 462 36 173 149 154
Fore
471 133 m 1
 492 120 l 1
 440 31 391 -9 331 -9 c 0
 287 -9 266 11 266 51 c 0
 266 79 272 106 290 161 c 1
 187 17 157 -9 90 -9 c 0
 41 -9 15 16 15 65 c 0
 15 89 22 125 36 173 c 1
 76 306 l 2
 85 335 90 363 90 379 c 0
 90 399 80 404 34 407 c 1
 34 434 l 1
 82 436 141 444 215 457 c 0
 231 460 237 461 243 462 c 1
 149 154 l 2
 136 111 134 103 134 88 c 0
 134 71 141 63 155 63 c 0
 175 63 197 80 228 118 c 0
 285 190 314 256 370 449 c 1
 488 449 l 1
 410 181 l 1
 385 86 385 86 385 76 c 0
 385 67 391 59 399 59 c 0
 416 59 436 80 471 133 c 1
EndSplineSet
KernsSLIF: 39 -33 0 0
EndChar
StartChar: v
Encoding: 118 118 87
Width: 444
Flags: W
HStem: -13 21G<85 111> 442 20G<325.5 355.5>
VStem: 90 112<128 166> 284 117<393 406>
Fore
16 407 m 1
 16 434 l 1
 99 446 122 450 171 462 c 1
 192 382 198 324 202 128 c 1
 301 240 328 281 328 316 c 0
 328 326 323 336 308 353 c 0
 291 373 284 387 284 404 c 0
 284 434 311 462 340 462 c 0
 371 462 401 430 401 395 c 0
 401 353 380 299 340 241 c 0
 285 161 238 108 111 -13 c 1
 85 -13 l 1
 89 123 l 1
 90 144 90 160 90 164 c 0
 90 271 79 359 62 391 c 0
 56 404 47 407 16 407 c 1
EndSplineSet
KernsSLIF: 59 -51 0 0 115 -19 0 0 46 -51 0 0 249 -22 0 0 353 -24 0 0 351 -24 0 0 352 -24 0 0 111 -24 0 0 108 -24 0 0 45 -1 0 0 103 -20 0 0 336 -28 0 0 337 -28 0 0 335 -28 0 0 101 -28 0 0 44 -51 0 0 58 -51 0 0 99 -24 0 0 327 -20 0 0 328 -20 0 0 324 -20 0 0 241 -28 0 0 322 -20 0 0 325 -20 0 0 323 -20 0 0 97 -20 0 0
EndChar
StartChar: w
Encoding: 119 119 88
Width: 667
Flags: W
HStem: -13 21G<95 122 315 342> 442 20G<360 387 538 569>
VStem: 95 109<150 187> 497 117<397 409>
DStem: 292 272 387 462 315 -13 419 130 360 462 292 272 204 187 273 237
Fore
16 407 m 1
 16 434 l 1
 99 448 130 453 171 462 c 1
 194 376 201 312 204 187 c 1
 360 462 l 1
 387 462 l 1
 419 130 l 1
 508 235 538 281 538 311 c 0
 538 321 532 334 518 353 c 0
 503 374 497 388 497 402 c 0
 497 434 523 462 553 462 c 0
 585 462 614 433 614 400 c 0
 614 316 527 183 342 -13 c 1
 315 -13 l 1
 292 272 l 1
 273 237 l 2
 229 158 185 81 179 73 c 2
 122 -13 l 1
 95 -13 l 1
 96 32 l 1
 97 67 97 68 97 72 c 1
 95 150 l 1
 92 288 78 381 58 399 c 0
 50 406 41 407 16 407 c 1
EndSplineSet
KernsSLIF: 59 -56 0 0 115 -24 0 0 46 -53 0 0 249 -28 0 0 353 -30 0 0 351 -30 0 0 352 -30 0 0 111 -30 0 0 108 -28 0 0 45 -7 0 0 103 -26 0 0 336 -34 0 0 337 -34 0 0 335 -34 0 0 101 -34 0 0 44 -53 0 0 58 -56 0 0 99 -30 0 0 327 -24 0 0 328 -24 0 0 324 -24 0 0 241 -32 0 0 322 -24 0 0 325 -24 0 0 323 -24 0 0 97 -24 0 0
EndChar
StartChar: x
Encoding: 120 120 89
Width: 500
Flags: W
HStem: -13 115<7 20> 348 114<409 421>
DStem: 132 346 264 273 162 192 296 117 162 192 173 142 118 122 149 103
Fore
400 123 m 1
 421 109 l 1
 360 21 318 -13 270 -13 c 0
 250 -13 230 -3 218 13 c 0
 196 41 188 67 173 142 c 1
 149 103 l 2
 91 7 68 -13 18 -13 c 0
 -20 -13 -46 11 -46 46 c 0
 -46 77 -22 102 9 102 c 0
 21 102 33 98 49 89 c 0
 59 83 64 81 70 81 c 0
 87 81 98 90 118 122 c 2
 162 192 l 1
 132 346 l 1
 122 395 108 413 76 413 c 0
 67 413 62 413 41 411 c 1
 41 438 l 1
 208 462 l 1
 227 434 235 409 253 324 c 1
 333 435 364 462 411 462 c 0
 441 462 469 433 469 400 c 0
 469 372 443 348 413 348 c 0
 402 348 395 350 381 359 c 0
 369 365 362 368 356 368 c 0
 333 368 308 344 273 286 c 0
 268 278 267 277 264 273 c 1
 296 117 l 2
 304 79 314 64 333 64 c 0
 351 64 361 73 400 123 c 1
EndSplineSet
KernsSLIF: 113 -12 0 0 111 -11 0 0 335 -14 0 0 101 -14 0 0 99 -10 0 0 97 -1 0 0
EndChar
StartChar: y
Encoding: 121 121 90
Width: 444
Flags: W
HStem: -205 115<-44 -32> 411 27<14 24.8333> 442 20G<315 346.5>
VStem: 273 119<396 408>
Fore
14 411 m 1
 14 438 l 1
 79 444 115 450 163 462 c 1
 181 415 207 303 229 185 c 1
 241 110 l 1
 310 243 328 285 328 315 c 0
 328 328 322 336 304 350 c 0
 280 368 273 380 273 404 c 0
 273 435 300 462 330 462 c 0
 363 462 392 432 392 398 c 0
 392 297 273 60 143 -99 c 0
 88 -165 23 -205 -32 -205 c 0
 -67 -205 -94 -178 -94 -145 c 0
 -94 -116 -70 -90 -44 -90 c 0
 -26 -90 -1 -99 16 -111 c 0
 24 -118 43 -125 50 -125 c 0
 67 -125 94 -104 115 -76 c 0
 133 -51 142 -27 142 -4 c 0
 142 27 125 124 92 284 c 0
 77 355 61 396 44 406 c 0
 37 410 32 411 14 411 c 1
EndSplineSet
KernsSLIF: 59 -44 0 0 115 -13 0 0 46 -26 0 0 249 -17 0 0 353 -19 0 0 351 -19 0 0 352 -19 0 0 111 -17 0 0 108 -16 0 0 45 2 0 0 103 -23 0 0 336 -23 0 0 337 -23 0 0 335 -23 0 0 101 -22 0 0 44 -25 0 0 58 -43 0 0 99 -17 0 0 327 -12 0 0 328 -12 0 0 324 -12 0 0 241 -19 0 0 322 -12 0 0 325 -12 0 0 323 -12 0 0 97 -11 0 0
EndChar
StartChar: z
Encoding: 122 122 91
Width: 389
Flags: W
HStem: -78 29<236 249> 353 96<56 249>
VStem: 243 103<13 19>
DStem: 249 353 368 439 -43 -1 87 104
Fore
13 295 m 1
 56 449 l 1
 368 449 l 1
 368 439 l 1
 87 104 l 1
 138 82 162 59 194 -2 c 0
 211 -37 223 -49 241 -49 c 0
 253 -49 263 -42 263 -33 c 0
 263 -30 261 -25 256 -18 c 0
 247 -6 243 2 243 13 c 0
 243 41 266 65 293 65 c 0
 321 65 346 41 346 13 c 0
 346 -38 299 -78 238 -78 c 0
 198 -78 161 -64 107 -28 c 0
 72 -4 52 5 34 5 c 0
 23 5 16 2 1 -9 c 0
 -2 -12 -10 -17 -18 -23 c 1
 -43 -1 l 1
 249 353 l 1
 104 353 l 2
 74 353 58 338 41 292 c 1
 13 295 l 1
EndSplineSet
EndChar
StartChar: braceleft
Encoding: 123 123 92
Width: 348
Flags: W
VStem: 28 104<-108 -90> 89 102<164 181>
DStem: 188 544 295 550 142 365 250 379
Fore
436 686 m 1x40
 433 674 l 1
 352 659 315 626 295 550 c 2
 250 379 l 1
 227 294 197 268 99 249 c 1
 174 229 191 215 191 173 c 0x40
 191 150 181 103 162 43 c 0
 143 -20 132 -71 132 -97 c 0
 132 -143 154 -164 213 -175 c 1
 210 -187 l 1
 117 -185 78 -177 53 -156 c 0
 36 -141 28 -122 28 -96 c 0x80
 28 -67 44 8 63 63 c 0
 79 111 89 155 89 179 c 0
 89 214 67 233 5 249 c 1
 94 268 122 293 142 365 c 1
 188 544 l 1
 219 653 277 686 436 686 c 1x40
EndSplineSet
EndChar
StartChar: bar
Encoding: 124 124 93
Width: 220
Flags: W
HStem: -18 21G<66 154> 665 20G<66 154>
VStem: 66 88<-18 685>
Fore
66 -18 m 1
 66 685 l 1
 154 685 l 1
 154 -18 l 1
 66 -18 l 1
EndSplineSet
EndChar
StartChar: braceright
Encoding: 125 125 94
Width: 348
Flags: W
VStem: 116 102<318 328> 175 104<581.535 600>
DStem: 57 120 165 134 12 -51 119 -45
Fore
-129 -187 m 1x80
 -126 -175 l 1
 -45 -160 -8 -127 12 -51 c 2
 57 120 l 1
 80 205 110 231 208 250 c 1
 133 270 116 284 116 326 c 0x80
 116 348 125 390 144 456 c 0
 165 526 175 572 175 597 c 0
 175 641 151 663 94 674 c 1
 97 686 l 1
 190 684 229 676 254 655 c 0
 271 640 279 621 279 598 c 0x40
 279 567 263 493 244 436 c 0
 228 388 218 344 218 320 c 0
 218 285 240 266 302 250 c 1
 213 230 185 206 165 134 c 1
 119 -45 l 1
 88 -154 30 -187 -129 -187 c 1x80
EndSplineSet
EndChar
StartChar: asciitilde
Encoding: 126 126 95
Width: 570
Flags: W
Fore
461 308 m 1
 516 260 l 1
 470 197 439 175 393 175 c 0
 360 175 334 183 288 208 c 0
 242 233 211 243 176 243 c 0
 147 243 131 233 107 201 c 1
 54 247 l 1
 87 305 125 331 175 331 c 0
 212 331 233 324 311 290 c 0
 360 268 375 263 393 263 c 0
 416 263 436 276 461 308 c 1
EndSplineSet
EndChar
StartChar: exclamdown
Encoding: 161 161 96
Width: 389
Flags: W
HStem: 348 146<242 260>
Fore
193 275 m 1
 222 267 l 1
 192 114 173 -11 169 -86 c 0
 167 -128 165 -141 157 -159 c 0
 143 -188 118 -205 88 -205 c 0
 47 -205 19 -176 19 -131 c 0
 19 -105 24 -89 50 -43 c 1
 106 66 151 167 193 275 c 1
248 494 m 0
 290 494 320 464 320 423 c 0
 320 381 288 348 247 348 c 0
 209 348 174 383 174 423 c 0
 174 463 207 494 248 494 c 0
EndSplineSet
EndChar
StartChar: cent
Encoding: 162 162 97
Width: 500
Flags: W
HStem: 429 33<313 327>
VStem: 42 127<136 162>
DStem: 190 -13 225 -10 144 -143 178 -143 339 413 339 313 214 57 247 52 396 576 431 576 355 459 386 449
Fore
431 576 m 1
 386 449 l 1
 422 429 439 404 439 370 c 0
 439 331 411 302 374 302 c 0
 360 302 349 306 339 313 c 1
 247 52 l 1
 289 54 324 81 365 141 c 1
 392 123 l 1
 329 33 292 3 225 -10 c 1
 178 -143 l 1
 144 -143 l 1
 190 -13 l 1
 96 -7 42 48 42 138 c 0
 42 299 185 462 327 462 c 0
 336 462 343 461 355 459 c 1
 396 576 l 1
 431 576 l 1
214 57 m 1
 339 413 l 2
 342 421 330 429 317 429 c 0
 286 429 259 406 231 356 c 0
 195 293 169 204 169 147 c 0
 169 130 173 108 180 92 c 0
 187 76 194 68 214 57 c 1
EndSplineSet
EndChar
StartChar: sterling
Encoding: 163 163 98
Width: 500
Flags: W
HStem: -12 104<283 319> -11 30<43 64> 120 42<47 64> 310 60<44 144 280 384> 524 159<401 449> 649 34<379 401>
VStem: -32 30<67 77> 396 114<575 592>
Fore
394 370 m 1x37
 384 310 l 1
 269 310 l 1
 256 252 231 184 205 141 c 2
 194 124 l 1
 254 101 287 92 319 92 c 0
 367 92 387 106 409 155 c 1
 434 155 l 1
 422 98 411 71 390 43 c 0
 365 8 325 -12 283 -12 c 0xb7
 241 -12 208 4 156 49 c 1
 129 6 101 -11 58 -11 c 0
 5 -11 -32 25 -32 75 c 0
 -32 127 7 162 64 162 c 0
 85 162 100 159 125 148 c 1
 132 215 134 226 144 310 c 1
 35 310 l 1
 45 370 l 1
 150 370 l 1
 175 494 199 551 248 607 c 0
 290 656 344 683 401 683 c 0
 464 683 510 644 510 592 c 0
 510 554 483 524 449 524 c 0x7b
 419 524 396 546 396 575 c 0
 396 585 398 597 400 609 c 0
 402 616 403 623 403 628 c 0
 403 640 393 649 379 649 c 0
 350 649 329 622 319 572 c 1
 280 370 l 1
 394 370 l 1x37
113 90 m 1
 91 111 71 120 49 120 c 0
 18 120 -2 100 -2 70 c 0
 -2 40 21 19 54 19 c 0x73
 84 19 102 41 113 90 c 1
EndSplineSet
EndChar
StartChar: fraction
Encoding: 164 8260 99
Width: 167
Flags: W
HStem: -14 21G<-169 -111> 663 20G<266 324>
DStem: 266 683 324 683 -169 -14 -111 -14
Fore
324 683 m 1
 -111 -14 l 1
 -169 -14 l 1
 266 683 l 1
 324 683 l 1
EndSplineSet
EndChar
StartChar: yen
Encoding: 165 165 100
Width: 500
Flags: W
HStem: 0 25<46 61.4 345.667 368> 0 214<47 368> 164 50<46 174 320 458> 292 50<81 210 369 491> 644 25<46 55.1667 297.5 326 428 456>
DStem: 128 581 257 580 207 342 337 344 472 538 535 575 337 344 369 342
Fore
504 342 m 1x58
 491 292 l 1
 341 292 l 1
 320 214 l 1x58
 472 214 l 1
 458 164 l 1
 306 164 l 1
 303 153 l 2
 291 110 287 87 287 68 c 0
 287 36 301 28 368 25 c 1
 368 0 l 1
 46 0 l 1
 46 25 l 1
 123 30 137 40 155 97 c 1
 174 164 l 1
 33 164 l 1xb8
 47 214 l 1
 188 214 l 1
 210 292 l 1
 68 292 l 1
 82 342 l 1
 207 342 l 1
 128 581 l 1
 108 632 101 638 46 644 c 1
 46 669 l 1
 326 669 l 1
 326 644 l 1
 269 642 251 635 251 612 c 0
 251 603 253 592 257 580 c 2
 337 344 l 1
 472 538 l 2
 492 567 498 580 498 598 c 0
 498 633 484 642 428 644 c 1
 428 669 l 1
 628 669 l 1
 628 644 l 1
 588 636 569 621 535 575 c 1
 369 342 l 1
 504 342 l 1x58
EndSplineSet
EndChar
StartChar: florin
Encoding: 166 402 101
Width: 500
Flags: W
HStem: -156 29<8 25> -29 20G<-46.5 -15> 396 44<85 183 325 434> 677 30<422 436>
VStem: -87 110<-69 -57> 424 113<607 620>
DStem: 183 396 318 396 113 32 291 242
Fore
443 440 m 1
 434 396 l 1
 318 396 l 1
 291 242 l 2
 244 -27 157 -156 23 -156 c 0
 -43 -156 -87 -121 -87 -69 c 0
 -87 -34 -63 -9 -30 -9 c 0
 0 -9 23 -31 23 -59 c 0
 23 -70 17 -83 5 -97 c 0
 -2 -105 -5 -110 -5 -114 c 0
 -5 -123 3 -127 20 -127 c 0
 37 -127 47 -123 57 -113 c 0
 77 -94 100 -34 113 32 c 1
 183 396 l 1
 78 396 l 1
 86 440 l 1
 193 440 l 1
 230 608 317 707 427 707 c 0
 490 707 537 670 537 620 c 0
 537 584 513 559 477 559 c 0
 445 559 424 579 424 609 c 0
 424 625 430 636 444 649 c 0
 450 655 453 658 453 662 c 0
 453 671 442 677 428 677 c 0
 407 677 388 664 374 640 c 0
 356 608 347 570 325 440 c 1
 443 440 l 1
EndSplineSet
EndChar
StartChar: section
Encoding: 167 167 102
Width: 500
Flags: W
HStem: -143 23<166 197> 121 27<303 318> 400 25<172 195> 663 22<323 325>
VStem: 36 114<-40 -26> 68 71<299 342> 168 70<551 590> 268 77<-44 -9> 364 71<206 243>
Fore
288 125 m 1xf780
 286 121 l 1
 329 67 345 33 345 -9 c 0
 345 -84 273 -143 181 -143 c 0
 99 -143 36 -97 36 -38 c 0
 36 -3 61 22 94 22 c 0
 126 22 150 1 150 -28 c 0xfb80
 150 -48 144 -59 128 -73 c 0
 118 -81 115 -86 115 -91 c 0
 115 -106 148 -120 182 -120 c 0
 232 -120 268 -88 268 -44 c 0
 268 -11 256 9 185 95 c 2
 119 175 l 2
 84 217 68 256 68 299 c 0
 68 368 115 425 172 425 c 0
 184 425 209 422 221 419 c 1
 223 422 l 1
 188 461 168 507 168 551 c 0
 168 630 232 685 323 685 c 0
 402 685 459 644 459 587 c 0
 459 552 434 526 401 526 c 0
 371 526 346 551 346 580 c 0
 346 595 352 605 368 618 c 0
 378 625 382 630 382 635 c 0
 382 650 354 663 323 663 c 0
 274 663 238 633 238 590 c 0
 238 558 256 526 306 467 c 2
 375 386 l 2
 413 341 435 290 435 243 c 0
 435 177 382 121 318 121 c 0
 308 121 300 122 288 125 c 1xf780
195 400 m 0
 164 400 139 374 139 342 c 0xf780
 139 321 151 291 168 266 c 0
 192 233 220 200 243 179 c 0
 267 156 283 148 305 148 c 0
 336 148 364 175 364 206 c 0
 364 273 253 400 195 400 c 0
EndSplineSet
EndChar
StartChar: currency
Encoding: 168 164 103
Width: 500
Flags: W
HStem: 95 82<250 263> 443 82<250 263>
VStem: 35 88<310 323> 377 88<291.793 323>
DStem: -26 530 32 586 72 432 128 490 72 190 128 132 -26 92 32 34 372 132 428 190 468 34 526 92 468 586 526 530 372 490 428 432
Fore
-26 92 m 1
 72 190 l 1
 46 228 35 263 35 310 c 0
 35 356 46 393 72 432 c 1
 -26 530 l 1
 32 586 l 1
 128 490 l 1
 168 515 204 525 250 525 c 0
 296 525 332 515 372 490 c 1
 468 586 l 1
 526 530 l 1
 428 432 l 1
 455 389 465 356 465 310 c 0
 465 263 454 226 428 190 c 1
 526 92 l 1
 468 34 l 1
 372 132 l 1
 331 106 294 95 250 95 c 0
 206 95 169 106 128 132 c 1
 32 34 l 1
 -26 92 l 1
250 443 m 0
 179 443 123 385 123 310 c 0
 123 236 179 177 250 177 c 0
 319 177 377 237 377 308 c 0
 377 383 321 443 250 443 c 0
EndSplineSet
EndChar
StartChar: quotesingle
Encoding: 169 39 104
Width: 278
Flags: W
HStem: 665 20G<203 235>
Fore
169 398 m 1
 128 398 l 1
 144 612 l 1
 147 650 184 685 222 685 c 0
 248 685 268 663 268 636 c 0
 268 622 267 620 253 589 c 2
 251 584 l 1
 169 398 l 1
EndSplineSet
EndChar
StartChar: quotedblleft
Encoding: 170 8220 105
Width: 500
Flags: W
VStem: 53 156<442 467> 309 156<442 467>
Fore
244 685 m 1
 257 661 l 1
 178 619 139 580 139 545 c 0
 139 530 146 520 169 505 c 0
 199 485 209 469 209 442 c 0
 209 400 179 369 138 369 c 0
 87 369 53 408 53 467 c 0
 53 548 128 634 244 685 c 1
500 685 m 1
 513 661 l 1
 434 619 395 580 395 545 c 0
 395 530 402 520 425 505 c 0
 455 485 465 469 465 442 c 0
 465 400 435 369 394 369 c 0
 343 369 309 408 309 467 c 0
 309 548 384 634 500 685 c 1
EndSplineSet
KernsSLIF: 87 3 1 0 86 3 1 0 84 -11 1 0 262 -76 1 0 256 -76 1 0 257 -76 1 0 225 -98 1 0 65 -76 1 0
EndChar
StartChar: guillemotleft
Encoding: 171 171 106
Width: 500
Flags: W
Fore
137 220 m 1
 177 137 l 2
 200 90 210 62 210 47 c 0
 210 39 203 32 195 32 c 0
 190 32 187 34 180 42 c 0
 158 67 87 141 12 217 c 1
 12 226 l 1
 182 350 l 2
 206 367 216 375 229 387 c 0
 248 405 262 415 270 415 c 0
 277 415 283 409 283 403 c 0
 283 382 252 341 182 269 c 1
 137 220 l 1
322 220 m 1
 362 137 l 2
 385 90 395 62 395 47 c 0
 395 39 388 32 380 32 c 0
 375 32 372 34 365 42 c 0
 343 67 272 141 197 217 c 1
 197 226 l 1
 367 350 l 2
 391 367 401 375 414 387 c 0
 433 405 447 415 455 415 c 0
 462 415 468 409 468 403 c 0
 468 382 437 341 367 269 c 1
 322 220 l 1
EndSplineSet
EndChar
StartChar: guilsinglleft
Encoding: 172 8249 107
Width: 333
Flags: W
Fore
157 220 m 1
 197 137 l 2
 220 90 230 62 230 47 c 0
 230 39 223 32 215 32 c 0
 210 32 207 34 200 42 c 0
 178 67 107 141 32 217 c 1
 32 226 l 1
 202 350 l 2
 226 367 236 375 249 387 c 0
 268 405 282 415 290 415 c 0
 297 415 303 409 303 403 c 0
 303 382 272 341 202 269 c 1
 157 220 l 1
EndSplineSet
EndChar
StartChar: guilsinglright
Encoding: 173 8250 108
Width: 333
Flags: W
Fore
156 227 m 1
 116 310 l 2
 93 358 83 385 83 400 c 0
 83 408 90 415 98 415 c 0
 103 415 106 413 113 405 c 0
 152 361 193 319 281 230 c 1
 281 221 l 1
 111 97 l 2
 87 80 77 71 64 60 c 1
 45 41 31 32 23 32 c 0
 16 32 10 38 10 44 c 0
 10 65 40 105 111 178 c 1
 156 227 l 1
EndSplineSet
KernsSLIF: 89 -93 1 0 87 -85 1 0 86 -89 1 0 84 -86 1 0 262 -40 1 0 256 -40 1 0 257 -40 1 0 225 -49 1 0 65 -40 1 0
EndChar
StartChar: fi
Encoding: 174 64257 109
Width: 556
Flags: W
HStem: -205 34<-100 -86> -9 21G<325 377> 407 42<26 92 221 361> 673 30<365 388>
VStem: -188 100<-129 -120> 276 123<57 77> 414 93<608 657>
DStem: 92 407 211 407 0 -4 117 22 361 407 494 459 292 138 421 176
Fore
17 407 m 1
 27 449 l 1
 103 449 l 1
 140 556 160 595 201 638 c 0
 239 679 301 703 365 703 c 0
 449 703 507 664 507 608 c 0
 507 575 483 551 450 551 c 0
 417 551 392 575 392 606 c 0
 392 619 396 630 407 642 c 0
 412 649 414 653 414 657 c 0
 414 668 405 673 388 673 c 0
 351 673 317 659 298 636 c 0
 266 598 254 568 221 449 c 1
 339 449 l 2
 354 449 391 451 447 456 c 0
 453 456 473 458 494 459 c 1
 421 176 l 1
 420 172 l 2
 407 123 399 88 399 77 c 0
 399 69 407 61 415 61 c 0
 430 61 453 84 492 140 c 1
 514 127 l 1
 446 22 407 -9 347 -9 c 0
 303 -9 276 15 276 57 c 0
 276 73 278 84 292 138 c 2
 361 407 l 1
 211 407 l 1
 117 22 l 1
 104 -30 71 -99 40 -138 c 0
 7 -180 -42 -205 -91 -205 c 0
 -147 -205 -188 -172 -188 -127 c 0
 -188 -95 -168 -73 -139 -73 c 0
 -110 -73 -88 -94 -88 -122 c 0
 -88 -133 -91 -139 -100 -149 c 0
 -105 -155 -107 -158 -107 -162 c 0
 -107 -168 -101 -171 -90 -171 c 0
 -46 -171 -31 -145 0 -4 c 1
 92 407 l 1
 17 407 l 1
EndSplineSet
Ligature: 0 0 'liga' f i
EndChar
StartChar: fl
Encoding: 175 64258 110
Width: 556
Flags: W
HStem: -205 35<-91 -73> -9 71<348 415> 407 42<29 94 221 360> 675 29<353 374>
VStem: -186 99<-126 -115> 276 122<49 79>
DStem: 94 407 213 407 2 5 134 81 360 407 553 701 281 86 402 99 402 568 553 701 372 449 402 99
Fore
20 407 m 1
 30 449 l 1
 104 449 l 1
 138 558 157 598 197 641 c 0
 232 680 291 704 353 704 c 0
 375 704 382 703 441 692 c 2
 454 689 l 1
 553 701 l 1
 402 99 l 1
 399 86 398 82 398 79 c 0
 398 70 406 62 415 62 c 0
 433 62 456 84 491 137 c 1
 511 126 l 1
 444 21 407 -9 348 -9 c 0
 306 -9 276 15 276 49 c 0
 276 60 278 73 281 86 c 2
 360 407 l 1
 213 407 l 1
 134 81 l 2
 88 -110 14 -205 -89 -205 c 0
 -147 -205 -186 -172 -186 -124 c 0
 -186 -91 -166 -71 -134 -71 c 0
 -106 -71 -87 -89 -87 -117 c 0
 -87 -127 -90 -134 -97 -145 c 0
 -101 -151 -103 -155 -103 -158 c 0
 -103 -165 -94 -170 -81 -170 c 0
 -46 -170 -31 -138 2 5 c 2
 94 407 l 1
 20 407 l 1
372 449 m 1
 402 568 l 1
 388 579 381 591 381 607 c 0
 381 620 385 628 399 649 c 0
 401 652 402 655 402 656 c 0
 402 666 384 675 366 675 c 0
 333 675 302 654 278 616 c 0
 257 581 242 539 221 449 c 1
 372 449 l 1
EndSplineSet
Ligature: 0 0 'liga' f l
EndChar
StartChar: endash
Encoding: 177 8211 111
Width: 500
Flags: W
HStem: 178 91<-24 460>
Fore
477 269 m 1
 460 178 l 1
 -40 178 l 1
 -23 269 l 1
 477 269 l 1
EndSplineSet
EndChar
StartChar: dagger
Encoding: 178 8224 112
Width: 500
Flags: W
HStem: 404 102<138 156 434 444> 665 20G<310.5 344>
VStem: 272 112<622 633>
Fore
179 -145 m 1
 156 -145 l 1
 184 28 l 1
 191 69 197 153 197 200 c 0
 197 223 196 242 191 278 c 1
 235 317 269 382 278 443 c 1
 243 442 238 441 203 423 c 0
 175 408 162 404 142 404 c 0
 111 404 91 424 91 455 c 0
 91 486 111 506 143 506 c 0
 159 506 172 502 199 489 c 0
 238 470 250 467 282 467 c 1
 289 489 291 504 291 521 c 0
 291 531 289 543 282 566 c 0
 275 593 272 609 272 624 c 0
 272 662 293 685 328 685 c 0
 360 685 384 662 384 631 c 0
 384 610 375 589 352 560 c 2
 337 541 l 2
 323 523 316 504 308 467 c 1
 339 468 353 472 390 490 c 0
 415 503 426 506 440 506 c 0
 473 506 494 485 494 454 c 0
 494 424 470 402 436 402 c 0
 424 402 412 406 390 419 c 0
 351 440 338 444 303 443 c 1
 299 420 297 405 297 387 c 0
 297 350 304 317 323 269 c 1
 284 220 248 128 214 -12 c 0
 199 -75 195 -88 179 -145 c 1
EndSplineSet
EndChar
StartChar: daggerdbl
Encoding: 179 8225 113
Width: 500
Flags: W
HStem: 38 98<351 361> 407 99<438 445> 665 20G<310 342.5>
VStem: 122 108<-92 -78> 273 108<624 635>
Fore
317 273 m 1
 267 227 250 193 226 97 c 1
 258 97 276 102 314 121 c 0
 340 134 345 136 361 136 c 0
 394 134 413 116 413 87 c 0
 413 58 392 38 360 38 c 0
 347 38 335 42 311 54 c 0
 270 72 257 76 222 75 c 1
 217 54 216 42 216 20 c 0
 216 0 217 -12 224 -38 c 0
 228 -59 230 -70 230 -80 c 0
 230 -117 210 -139 176 -139 c 0
 145 -139 122 -117 122 -88 c 0
 122 -71 129 -55 150 -26 c 0
 179 16 185 27 200 76 c 1
 160 72 149 69 107 53 c 0
 84 44 71 40 60 40 c 0
 32 40 10 60 10 87 c 0
 10 115 34 139 62 139 c 0
 74 139 89 134 114 123 c 0
 156 103 165 101 203 98 c 1
 209 122 210 136 210 169 c 0
 210 219 206 238 186 273 c 1
 236 319 253 353 277 449 c 1
 245 448 226 443 189 425 c 0
 163 412 158 410 142 410 c 0
 109 412 90 430 90 459 c 0
 90 488 111 508 142 508 c 0
 155 508 168 504 192 492 c 0
 233 474 246 470 281 471 c 1
 286 492 287 505 287 526 c 0
 287 546 285 558 279 584 c 0
 275 605 273 616 273 626 c 0
 273 663 293 685 327 685 c 0
 358 685 381 663 381 633 c 0
 381 617 374 601 353 572 c 0
 323 530 318 519 303 470 c 1
 343 474 354 477 396 493 c 0
 419 502 432 506 443 506 c 0
 471 506 493 485 493 459 c 0
 493 430 469 407 440 407 c 0
 428 407 414 412 389 423 c 0
 347 442 338 445 300 448 c 1
 294 425 293 411 293 378 c 0
 293 326 297 308 317 273 c 1
EndSplineSet
EndChar
StartChar: periodcentered
Encoding: 180 183 114
Width: 250
Flags: W
Fore
126 405 m 0
 166 405 199 371 199 331 c 0
 199 289 166 257 124 257 c 0
 83 257 51 289 51 331 c 0
 51 373 84 405 126 405 c 0
EndSplineSet
EndChar
StartChar: paragraph
Encoding: 182 182 115
Width: 500
Flags: W
HStem: -193 27<323 335.864> 644 25<267 385>
VStem: -4 79<382 400>
DStem: 141 258 330 644 56 -68 113 -193 241 644 330 644 147 283 113 -193 385 644 458 581 168 -193 289 -68
Fore
330 644 m 1
 113 -193 l 1
 -57 -193 l 1
 -50 -168 l 1
 -1 -164 16 -160 27 -150 c 0
 35 -144 40 -130 56 -68 c 2
 141 258 l 1
 91 260 68 266 43 283 c 0
 13 304 -4 343 -4 388 c 0
 -4 464 29 557 72 603 c 0
 113 647 178 669 267 669 c 2
 562 669 l 1
 556 644 l 1
 475 637 472 635 458 581 c 2
 289 -68 l 2
 285 -84 281 -101 273 -141 c 1
 272 -155 286 -162 323 -166 c 0
 326 -166 336 -167 346 -168 c 1
 339 -193 l 1
 168 -193 l 1
 385 644 l 1
 330 644 l 1
147 283 m 1
 241 644 l 1
 178 628 152 611 123 564 c 0
 95 518 75 448 75 394 c 0
 75 342 101 302 147 283 c 1
EndSplineSet
EndChar
StartChar: bullet
Encoding: 183 8226 116
Width: 350
Flags: W
Fore
176 525 m 0
 273 525 350 446 350 347 c 0
 350 253 270 175 175 175 c 0
 77 175 0 253 0 350 c 0
 0 448 77 525 176 525 c 0
EndSplineSet
EndChar
StartChar: quotesinglbase
Encoding: 184 8218 117
Width: 333
Flags: W
Fore
8 -182 m 1
 -5 -158 l 1
 74 -116 113 -77 113 -41 c 0
 113 -27 106 -17 83 -2 c 0
 53 18 43 34 43 61 c 0
 43 103 73 134 114 134 c 0
 165 134 199 95 199 36 c 0
 199 -45 124 -131 8 -182 c 1
EndSplineSet
EndChar
StartChar: quotedblbase
Encoding: 185 8222 118
Width: 500
Flags: W
VStem: -9 156<36 61> 247 156<36 61>
Fore
212 -182 m 1
 199 -158 l 1
 278 -116 317 -77 317 -41 c 0
 317 -27 310 -17 287 -2 c 0
 257 18 247 34 247 61 c 0
 247 103 277 134 318 134 c 0
 369 134 403 95 403 36 c 0
 403 -45 328 -131 212 -182 c 1
-44 -182 m 1
 -57 -158 l 1
 21 -116 61 -77 61 -41 c 0
 61 -27 54 -17 31 -2 c 0
 1 18 -9 34 -9 61 c 0
 -9 103 21 134 62 134 c 0
 113 134 147 95 147 36 c 0
 147 -45 71 -131 -44 -182 c 1
EndSplineSet
KernsSLIF: 89 -48 1 0 87 -74 1 0 86 -79 1 0 84 -37 1 0 225 19 1 0 65 24 1 0
EndChar
StartChar: quotedblright
Encoding: 186 8221 119
Width: 500
Flags: W
HStem: 665 20G<151.5 197.5 407.5 453.5>
VStem: 101 156<587 612> 357 156<587 612>
Fore
322 369 m 1
 309 393 l 1
 387 435 427 474 427 510 c 0
 427 524 420 533 397 548 c 0
 367 569 357 585 357 612 c 0
 357 654 387 685 428 685 c 0
 479 685 513 646 513 587 c 0
 513 506 437 419 322 369 c 1
66 369 m 1
 53 393 l 1
 131 435 171 474 171 510 c 0
 171 524 164 533 141 548 c 0
 111 569 101 585 101 612 c 0
 101 654 131 685 172 685 c 0
 223 685 257 646 257 587 c 0
 257 506 181 419 66 369 c 1
EndSplineSet
KernsSLIF: 89 2 1 0 87 6 1 0 86 6 1 0 84 -1 1 0 262 -72 1 0 256 -72 1 0 257 -72 1 0 225 -94 1 0 65 -72 1 0
EndChar
StartChar: guillemotright
Encoding: 187 187 120
Width: 500
Flags: W
Fore
343 227 m 1
 303 310 l 2
 280 358 270 385 270 400 c 0
 270 408 277 415 285 415 c 0
 290 415 293 413 300 405 c 0
 339 361 380 319 468 230 c 1
 468 221 l 1
 298 97 l 2
 274 80 264 71 251 60 c 1
 232 41 218 32 210 32 c 0
 203 32 197 38 197 44 c 0
 197 65 227 105 298 178 c 1
 343 227 l 1
158 227 m 1
 118 310 l 2
 95 358 85 385 85 400 c 0
 85 408 92 415 100 415 c 0
 105 415 108 413 115 405 c 0
 154 361 195 319 283 230 c 1
 283 221 l 1
 113 97 l 2
 89 80 79 71 66 60 c 1
 47 41 33 32 25 32 c 0
 18 32 12 38 12 44 c 0
 12 65 42 105 113 178 c 1
 158 227 l 1
EndSplineSet
KernsSLIF: 89 -83 1 0 87 -75 1 0 86 -79 1 0 84 -76 1 0 262 -30 1 0 256 -30 1 0 257 -30 1 0 225 -39 1 0 65 -30 1 0
EndChar
StartChar: ellipsis
Encoding: 188 8230 121
Width: 1000
Flags: W
HStem: -13 21G<92.5 134 424.5 466 756.5 798>
VStem: 40 148<61 68> 372 148<61 68> 704 148<61 68>
CounterMasks: 1 00
Fore
115 135 m 0
 155 135 188 101 188 61 c 0
 188 19 155 -13 113 -13 c 0
 72 -13 40 19 40 61 c 0
 40 103 73 135 115 135 c 0
447 135 m 0
 487 135 520 101 520 61 c 0
 520 19 487 -13 445 -13 c 0
 404 -13 372 19 372 61 c 0
 372 103 405 135 447 135 c 0
779 135 m 0
 819 135 852 101 852 61 c 0
 852 19 819 -13 777 -13 c 0
 736 -13 704 19 704 61 c 0
 704 103 737 135 779 135 c 0
EndSplineSet
Ligature: 0 1 'liga' period period period
EndChar
StartChar: perthousand
Encoding: 189 8240 122
Width: 1000
Flags: W
HStem: -18 28<462 482 823 844> 300 33<530 550 891 912> 322 30<132 153> 584 31<342 376> 634 40<204.031 209>
VStem: 7 96<420 458> 278 26<546 564> 334 99<78 124> 609 25<210 228> 696 99<78 124> 971 25<210 228>
DStem: 474 626 572 706 86 -29 134 -29
Fore
86 -29 m 1xbfe0
 474 626 l 1
 434 596 401 584 361 584 c 0
 339 584 326 587 301 597 c 1
 303 577 304 566 304 554 c 0
 304 485 275 407 234 366 c 0
 206 338 169 322 132 322 c 0
 60 322 7 379 7 458 c 0
 7 574 98 674 204 674 c 0
 230 674 249 666 275 645 c 0
 303 622 322 615 358 615 c 0
 424 615 473 642 524 706 c 1
 572 706 l 1
 134 -29 l 1
 86 -29 l 1xbfe0
206 634 m 0
 165 637 103 509 103 420 c 0
 103 376 120 352 153 352 c 0
 216 352 278 453 278 555 c 0
 278 568 274 594 271 601 c 0
 270 604 266 606 256 609 c 0
 245 612 242 614 230 622 c 0
 217 631 212 634 206 634 c 0
530 333 m 0xdfe0
 595 333 634 288 634 214 c 0
 634 144 606 72 561 24 c 0
 536 -3 500 -18 462 -18 c 0
 384 -18 334 38 334 124 c 0
 334 233 427 333 530 333 c 0xdfe0
550 300 m 0
 530 300 511 287 491 258 c 0
 459 212 433 130 433 78 c 0
 433 32 449 10 482 10 c 0
 511 10 536 26 559 59 c 0
 588 101 609 168 609 219 c 0
 609 265 584 300 550 300 c 0
891 333 m 0
 957 333 996 288 996 214 c 0
 996 144 968 71 923 24 c 0
 897 -3 862 -18 823 -18 c 0
 746 -18 696 38 696 124 c 0
 696 233 789 333 891 333 c 0
912 300 m 0
 892 300 872 286 853 258 c 0
 821 212 795 130 795 78 c 0
 795 32 811 10 844 10 c 0
 873 10 898 26 921 59 c 0
 950 101 971 168 971 219 c 0
 971 265 946 300 912 300 c 0
EndSplineSet
EndChar
StartChar: questiondown
Encoding: 191 191 123
Width: 500
Flags: W
HStem: -205 31<206 228> -29 20G<303 337> 344 148<344 350>
VStem: 30 127<-94 -60> 259 122<-78 -67> 273 148<405.493 421>
Fore
304 271 m 1xf8
 333 264 l 1
 328 209 308 163 262 105 c 2
 221 54 l 2
 177 -1 157 -47 157 -94 c 0
 157 -143 184 -174 226 -174 c 0
 258 -174 288 -155 288 -136 c 0
 288 -130 285 -124 277 -113 c 0
 264 -97 259 -83 259 -69 c 0
 259 -36 286 -9 320 -9 c 0
 354 -9 381 -38 381 -76 c 0
 381 -151 307 -205 206 -205 c 0
 101 -205 30 -147 30 -60 c 0
 30 2 67 52 156 110 c 2
 222 153 l 2
 260 178 276 201 304 271 c 1xf8
348 492 m 0
 388 492 421 458 421 418 c 0
 421 376 388 344 346 344 c 0
 305 344 273 376 273 418 c 0xf4
 273 460 306 492 348 492 c 0
EndSplineSet
EndChar
StartChar: grave
Encoding: 193 96 124
Width: 333
Flags: W
Fore
297 516 m 1
 252 516 l 1
 119 605 l 2
 97 620 85 637 85 652 c 0
 85 676 106 697 130 697 c 0
 149 697 170 684 186 663 c 2
 297 516 l 1
EndSplineSet
EndChar
StartChar: acute
Encoding: 194 180 125
Width: 333
Flags: W
Fore
188 516 m 1
 139 516 l 1
 261 647 l 2
 296 685 313 697 331 697 c 0
 357 697 379 675 379 650 c 0
 379 631 370 620 340 603 c 2
 188 516 l 1
EndSplineSet
Ligature: 0 1 'liga' space acutecomb
EndChar
StartChar: circumflex
Encoding: 195 710 126
Width: 333
Flags: W
HStem: 670 20G<200 281>
Fore
316 516 m 1
 228 611 l 1
 97 516 l 1
 40 516 l 1
 200 690 l 1
 281 690 l 1
 367 516 l 1
 316 516 l 1
EndSplineSet
EndChar
StartChar: tilde
Encoding: 196 732 127
Width: 333
Flags: W
Fore
366 655 m 1
 407 655 l 1
 385 572 350 536 290 536 c 0
 271 536 259 539 233 549 c 2
 174 572 l 2
 161 577 147 580 136 580 c 0
 114 580 101 569 88 537 c 1
 48 537 l 1
 61 609 107 655 164 655 c 0
 188 655 220 647 261 629 c 0
 287 618 304 613 315 613 c 0
 338 613 351 624 366 655 c 1
EndSplineSet
Ligature: 0 1 'liga' space tildecomb
EndChar
StartChar: macron
Encoding: 197 175 128
Width: 333
Flags: W
HStem: 553 70<67 377>
Fore
393 623 m 1
 377 553 l 1
 51 553 l 1
 68 623 l 1
 393 623 l 1
EndSplineSet
Ligature: 0 1 'liga' space uni0304
EndChar
StartChar: breve
Encoding: 198 728 129
Width: 333
Flags: W
HStem: 658 20G<71 114 348 387>
Fore
348 678 m 1
 387 678 l 1
 369 574 305 516 208 516 c 0
 115 516 71 564 71 665 c 2
 71 678 l 1
 114 678 l 1
 120 617 153 588 216 588 c 0
 281 588 317 612 348 678 c 1
EndSplineSet
Ligature: 0 1 'liga' space uni0306
EndChar
StartChar: dotaccent
Encoding: 199 729 130
Width: 333
Flags: W
Fore
227 655 m 0
 263 655 293 625 293 589 c 0
 293 555 262 525 227 525 c 0
 193 525 163 555 163 589 c 0
 163 625 192 655 227 655 c 0
EndSplineSet
Ligature: 0 1 'liga' space uni0307
EndChar
StartChar: dieresis
Encoding: 200 168 131
Width: 333
Flags: W
VStem: 55 130<578.399 592> 267 130<578.399 592>
Fore
119 655 m 0
 155 655 185 625 185 589 c 0
 185 555 154 525 119 525 c 0
 85 525 55 555 55 589 c 0
 55 625 84 655 119 655 c 0
331 655 m 0
 367 655 397 625 397 589 c 0
 397 555 366 525 331 525 c 0
 297 525 267 555 267 589 c 0
 267 625 296 655 331 655 c 0
EndSplineSet
Ligature: 0 1 'liga' space uni0308
EndChar
StartChar: ring
Encoding: 202 730 132
Width: 333
Flags: W
HStem: 540 48<222 240> 706 48<222 240>
VStem: 127 48<644 653> 292 48<635 653>
Fore
234 754 m 0
 292 754 340 706 340 647 c 0
 340 588 292 540 233 540 c 0
 174 540 127 589 127 649 c 0
 127 706 176 754 234 754 c 0
232 706 m 0
 202 706 175 678 175 647 c 0
 175 615 201 588 232 588 c 0
 265 588 292 614 292 646 c 0
 292 679 265 706 232 706 c 0
EndSplineSet
Ligature: 0 1 'liga' space uni030A
EndChar
StartChar: cedilla
Encoding: 203 184 133
Width: 333
Flags: W
HStem: -218 41<9 32> -100 41<18 66>
VStem: 65 91<-139 -129>
DStem: 41 5 85 5 -25 -92 40 -62
Fore
-25 -92 m 1
 41 5 l 1
 85 5 l 1
 40 -62 l 1
 50 -60 56 -59 66 -59 c 0
 118 -59 156 -89 156 -131 c 0
 156 -181 103 -218 32 -218 c 0
 -4 -218 -36 -211 -80 -193 c 1
 -58 -160 l 1
 -30 -173 -13 -177 9 -177 c 0
 43 -177 65 -161 65 -136 c 0
 65 -114 47 -100 18 -100 c 0
 8 -100 0 -101 -12 -104 c 1
 -25 -92 l 1
EndSplineSet
Ligature: 0 1 'liga' space uni0327
EndChar
StartChar: hungarumlaut
Encoding: 205 733 134
Width: 333
Flags: W
Fore
118 516 m 1
 69 516 l 1
 191 647 l 2
 226 685 243 697 261 697 c 0
 287 697 309 675 309 650 c 0
 309 631 300 620 270 603 c 2
 118 516 l 1
307 516 m 1
 258 516 l 1
 380 647 l 2
 415 685 432 697 450 697 c 0
 476 697 498 675 498 650 c 0
 498 631 489 620 459 603 c 2
 307 516 l 1
EndSplineSet
Ligature: 0 1 'liga' space uni030B
EndChar
StartChar: ogonek
Encoding: 206 731 135
Width: 333
Flags: W
HStem: -173 69<66 107>
VStem: -40 84<-92 -40>
Fore
28 32 m 1
 61 44 l 1
 60 37 59 34 56 24 c 0
 48 -8 44 -27 44 -40 c 0
 44 -81 66 -104 107 -104 c 0
 122 -104 133 -101 153 -91 c 0
 161 -87 162 -86 167 -84 c 1
 189 -98 l 1
 164 -144 116 -173 66 -173 c 0
 5 -173 -40 -139 -40 -92 c 0
 -40 -63 -27 -36 14 14 c 0
 22 24 24 26 28 32 c 1
EndSplineSet
Ligature: 0 1 'liga' space uni0328
EndChar
StartChar: caron
Encoding: 207 711 136
Width: 333
Flags: W
HStem: 670 20G<79 129 355 411>
Fore
411 690 m 1
 249 516 l 1
 167 516 l 1
 79 690 l 1
 129 690 l 1
 220 593 l 1
 355 690 l 1
 411 690 l 1
EndSplineSet
EndChar
StartChar: emdash
Encoding: 208 8212 137
Width: 1000
Flags: W
HStem: 178 91<-24 960>
Fore
977 269 m 1
 960 178 l 1
 -40 178 l 1
 -23 269 l 1
 977 269 l 1
EndSplineSet
EndChar
StartChar: AE
Encoding: 225 198 138
Width: 944
Flags: W
HStem: 0 25<119 131> 0 32<527 791> 255 39<225 388> 637 32<329 710> 646 23<329 345.25>
DStem: 388 255 553 338 342 96 490 97 390 574 478 627 24 102 225 294 390 574 196 255 24 102 82 98 490 627 626 605 398 294 561 370 490 627 553 338 398 294 490 97
Fore
264 0 m 1x70
 264 25 l 1
 316 33 326 43 342 96 c 1
 388 255 l 1
 196 255 l 1
 82 98 l 2
 73 85 67 71 67 59 c 0
 67 37 83 29 131 25 c 1
 131 0 l 1xa0
 -64 0 l 1x60
 -64 25 l 1
 -48 28 -42 29 -34 34 c 0
 -28 37 -16 52 24 102 c 1
 390 574 l 2
 402 590 410 607 410 618 c 0
 410 636 394 642 329 646 c 1xa8
 329 669 l 1x30
 918 669 l 1x28
 873 479 l 1
 849 484 l 1
 847 524 l 1
 843 599 789 637 685 637 c 0
 643 637 633 632 626 605 c 1
 561 370 l 1
 571 370 l 1
 580 370 l 2
 682 370 715 390 755 476 c 1
 781 472 l 1
 708 199 l 1
 683 204 l 1
 684 215 l 1
 685 224 l 1
 686 236 686 245 686 251 c 0
 686 316 663 331 553 338 c 1
 490 97 l 2
 487 86 485 75 485 69 c 0
 485 43 502 32 543 32 c 0
 614 32 677 48 720 78 c 0
 757 104 782 132 824 199 c 1
 850 196 l 1
 791 0 l 1
 264 0 l 1x70
225 294 m 1
 398 294 l 1
 490 627 l 1
 478 627 l 1
 225 294 l 1
EndSplineSet
EndChar
StartChar: ordfeminine
Encoding: 227 170 139
Width: 266
Flags: W
HStem: 400 45<86 118> 658 27<190.414 196>
VStem: 16 78<471 488> 185 77<437 451>
Fore
313 484 m 1
 326 475 l 1
 288 422 259 399 229 399 c 0
 206 399 185 417 185 437 c 0
 185 448 186 454 196 488 c 1
 159 423 130 400 86 400 c 0
 45 400 16 431 16 476 c 0
 16 572 114 685 196 685 c 0
 222 685 236 672 243 640 c 1
 254 676 l 1
 330 680 l 1
 284 540 l 1
 268 493 262 467 262 451 c 0
 262 446 264 442 267 442 c 0
 274 442 289 456 308 478 c 0
 310 481 310 481 313 484 c 1
198 658 m 0
 163 662 94 538 94 473 c 0
 94 458 105 445 118 445 c 0
 137 445 160 466 179 502 c 0
 199 539 218 601 218 630 c 0
 218 645 209 657 198 658 c 0
EndSplineSet
EndChar
StartChar: Lslash
Encoding: 232 321 140
Width: 611
Flags: W
HStem: 0 25<-22 -14.8571> 0 32<249 531> 644 25<418.5 435>
DStem: 108 278 271 338 58 97 205 94 181 546 334 572 126 345 290 410 440 491 419 421 290 410 271 338
Fore
590 194 m 1x60
 531 0 l 1x60
 -22 0 l 1
 -22 25 l 1xa0
 28 32 42 45 58 97 c 1
 108 278 l 1
 4 222 l 1
 26 292 l 1
 126 345 l 1
 181 546 l 2
 186 564 191 595 191 607 c 0
 191 627 181 635 150 639 c 0
 145 640 132 642 118 644 c 1
 118 669 l 1
 435 669 l 1
 435 644 l 1
 369 640 350 627 334 572 c 1
 290 410 l 1
 440 491 l 1
 419 421 l 1
 271 338 l 1
 205 94 l 2
 202 83 200 70 200 62 c 0
 200 41 220 32 264 32 c 0
 346 32 417 52 471 90 c 0
 510 118 532 143 566 199 c 1
 590 194 l 1x60
EndSplineSet
EndChar
StartChar: Oslash
Encoding: 233 216 141
Width: 722
Flags: W
HStem: -18 34<264 284> 651 34<427.032 460>
VStem: 27 144<141 212> 547 144<453 526>
DStem: 144 11 183 -5 65 -125 113 -125 506 630 533 593 182 77 208 38 584 764 633 764 531 672 570 656
Fore
633 764 m 1
 570 656 l 1
 609 633 625 620 644 595 c 0
 674 557 691 504 691 453 c 0
 691 307 608 149 484 58 c 0
 417 8 342 -18 266 -18 c 0
 235 -18 214 -15 183 -5 c 1
 113 -125 l 1
 65 -125 l 1
 144 11 l 1
 113 29 100 39 84 58 c 0
 47 100 27 154 27 212 c 0
 27 453 234 685 449 685 c 0
 479 685 499 682 531 672 c 1
 584 764 l 1
 633 764 l 1
182 77 m 1
 506 630 l 1
 487 645 468 651 443 651 c 0
 382 651 327 608 278 521 c 0
 220 418 171 243 171 141 c 0
 171 119 175 97 182 77 c 1
533 593 m 1
 208 38 l 1
 228 22 247 16 273 16 c 0
 327 16 372 47 418 113 c 0
 483 208 547 412 547 526 c 0
 547 548 542 571 533 593 c 1
EndSplineSet
KernsSLIF: 65 -57 0 0
EndChar
StartChar: OE
Encoding: 234 338 142
Width: 944
Flags: W
HStem: 0 32<582 818> 637 32<611 742> 645 32<437 464>
VStem: 23 141<158 223>
DStem: 500 514 659 590 392 123 598 370 500 514 589 336 392 123 525 91
Fore
946 669 m 1xd0
 900 478 l 1
 875 484 l 1
 876 498 877 512 877 521 c 0
 877 599 822 637 712 637 c 0xd0
 677 637 670 631 659 590 c 1
 598 370 l 1
 619 370 l 1
 623 370 l 2
 713 369 755 396 787 473 c 1
 814 470 l 1
 742 198 l 1
 715 203 l 1
 716 212 716 219 716 222 c 0
 718 239 719 255 719 263 c 0
 719 282 712 299 699 311 c 0
 684 324 664 329 589 336 c 1
 525 91 l 1
 523 82 521 72 521 66 c 0
 521 42 542 32 594 32 c 0
 711 32 782 78 851 199 c 1
 878 194 l 1
 818 0 l 1
 522 0 l 1
 494 0 l 2
 484 -1 475 -1 470 -1 c 2
 448 -1 l 1
 294 -8 l 1
 274 -9 l 2
 194 -9 139 8 95 46 c 0
 48 85 23 148 23 223 c 0
 23 364 99 513 217 602 c 0
 291 657 356 677 464 677 c 0xb0
 478 677 489 676 520 674 c 0
 561 671 594 669 611 669 c 2
 946 669 l 1xd0
392 123 m 2
 500 514 l 2
 507 540 512 567 512 582 c 0
 512 623 486 645 439 645 c 0xb0
 379 645 329 613 281 545 c 0
 218 454 164 275 164 158 c 0
 164 77 212 24 285 24 c 0
 343 24 372 51 392 123 c 2
EndSplineSet
EndChar
StartChar: ordmasculine
Encoding: 235 186 143
Width: 300
Flags: W
HStem: 400 20<160 169> 665 20G<195.5 274.5>
VStem: 56 81<455 489>
Fore
243 685 m 0
 306 685 350 644 347 587 c 0
 342 488 254 400 162 400 c 0
 101 400 56 438 56 489 c 0
 56 589 148 685 243 685 c 0
241 665 m 0
 221 666 198 648 181 617 c 0
 158 576 137 499 137 455 c 0
 137 433 148 420 165 420 c 0
 188 420 208 440 229 483 c 0
 248 523 264 584 266 627 c 0
 267 650 258 664 241 665 c 0
EndSplineSet
EndChar
StartChar: ae
Encoding: 241 230 144
Width: 722
Flags: W
HStem: -13 63<425 468> 419 43<271 287> 429 30<550 573>
VStem: 333 68<134 363> 583 90<370 388>
Fore
352 396 m 1xd8
 370 454 l 1
 473 459 l 1
 453 394 l 1
 496 444 524 459 573 459 c 0xb8
 636 459 673 427 673 372 c 0
 673 290 590 223 445 190 c 2
 406 181 l 1
 402 161 401 150 401 134 c 0
 401 83 427 50 468 50 c 0
 515 50 557 80 591 139 c 1
 619 122 l 1
 576 34 509 -13 425 -13 c 0
 378 -13 337 3 315 31 c 0
 298 52 290 72 282 118 c 1
 226 26 176 -12 109 -12 c 0
 43 -12 -5 38 -5 106 c 0
 -5 269 145 462 271 462 c 0
 314 462 334 446 352 396 c 1xd8
285 419 m 0xd8
 253 419 221 390 188 332 c 0
 151 266 124 182 121 124 c 0
 119 85 139 58 169 58 c 0
 202 58 233 83 262 137 c 0
 300 204 333 309 333 363 c 0
 333 395 313 419 285 419 c 0xd8
418 231 m 2
 413 214 l 1
 441 218 463 227 494 246 c 0
 552 282 583 331 583 388 c 0
 583 416 573 429 550 429 c 0xb8
 500 429 458 365 418 231 c 2
EndSplineSet
KernsSLIF: 121 -8 0 0 119 -5 0 0 118 -5 0 0
EndChar
StartChar: dotlessi
Encoding: 245 305 145
Width: 278
Flags: W
HStem: -9 70<71 138> 407 27<21 34>
DStem: 73 338 223 462 15 123 132 128
Fore
216 141 m 1
 238 127 l 1
 168 22 131 -9 71 -9 c 0
 30 -9 2 17 2 54 c 0
 2 67 7 95 15 123 c 1
 73 338 l 1
 77 355 80 370 80 378 c 0
 80 399 64 407 21 407 c 1
 21 434 l 1
 99 440 169 450 223 462 c 1
 132 128 l 2
 129 116 123 82 123 76 c 0
 123 68 130 61 138 61 c 0
 153 61 176 82 202 121 c 2
 216 141 l 1
EndSplineSet
EndChar
StartChar: lslash
Encoding: 248 322 146
Width: 278
Flags: W
HStem: -9 70<70 138>
VStem: 2 121<53 76>
Fore
216 141 m 1
 238 127 l 1
 169 22 131 -9 70 -9 c 0
 28 -9 2 15 2 53 c 0
 2 79 16 137 64 309 c 1
 -13 266 l 1
 6 336 l 1
 84 379 l 1
 127 531 144 599 144 615 c 0
 144 633 129 643 102 643 c 0
 97 643 92 643 81 642 c 1
 81 669 l 1
 156 676 204 683 290 699 c 1
 215 427 l 1
 301 474 l 1
 282 406 l 1
 196 359 l 1
 145 176 l 2
 131 125 123 90 123 76 c 0
 123 68 130 61 138 61 c 0
 156 61 176 82 216 141 c 1
EndSplineSet
EndChar
StartChar: oslash
Encoding: 249 248 147
Width: 500
Flags: W
HStem: -13 29<155 174> 433 29<265 286>
VStem: -3 119<86 134> 322 119<311 372>
DStem: 74 7 106 -5 2 -119 42 -119 307 419 321 377 116 78 128 34 387 560 424 560 328 456 359 444
Fore
424 560 m 1
 359 444 l 1
 416 416 441 375 441 311 c 0
 441 143 305 -13 157 -13 c 0
 139 -13 126 -11 106 -5 c 1
 42 -119 l 1
 2 -119 l 1
 74 7 l 1
 21 37 -3 77 -3 134 c 0
 -3 304 136 462 286 462 c 0
 300 462 310 461 328 456 c 1
 387 560 l 1
 424 560 l 1
116 78 m 1
 307 419 l 1
 297 429 288 433 275 433 c 0
 243 433 214 410 189 364 c 0
 153 300 116 160 116 86 c 2
 116 78 l 1
321 377 m 1
 128 34 l 1
 138 22 149 16 165 16 c 0
 204 16 235 50 266 125 c 0
 295 194 322 312 322 372 c 0
 322 374 322 375 321 377 c 1
EndSplineSet
EndChar
StartChar: oe
Encoding: 250 339 148
Width: 722
Flags: W
HStem: -13 29<166 183> 433 29<280 300 547 562>
VStem: 6 118<97 144> 337 69<128 359> 586 88<371 392>
Fore
591 139 m 1
 619 124 l 1
 593 75 576 52 552 32 c 0
 517 2 476 -13 431 -13 c 0
 385 -13 353 3 314 44 c 1
 271 5 224 -13 166 -13 c 0
 71 -13 6 51 6 144 c 0
 6 195 22 249 51 301 c 0
 109 401 203 462 300 462 c 0
 353 462 385 445 416 400 c 1
 475 447 510 462 562 462 c 0
 631 462 674 427 674 371 c 0
 674 326 644 282 587 245 c 0
 542 216 517 207 414 184 c 1
 408 156 406 143 406 128 c 0
 406 77 430 50 473 50 c 0
 519 50 547 71 591 139 c 1
421 218 m 1
 448 226 457 229 469 234 c 0
 536 260 586 328 586 392 c 0
 586 416 572 432 549 432 c 0
 536 432 522 426 513 416 c 0
 482 380 473 361 421 218 c 1
282 433 m 0
 234 433 199 385 159 265 c 0
 136 197 124 140 124 97 c 0
 124 45 143 16 177 16 c 0
 213 16 242 45 273 110 c 0
 302 172 337 308 337 359 c 0
 337 408 318 433 282 433 c 0
EndSplineSet
EndChar
StartChar: germandbls
Encoding: 251 223 149
Width: 500
Flags: W
HStem: -200 31<-112 -98> -7 34<199 217> 675 30<311 327>
VStem: -200 82<-158 -123> -200 99<-125 -113> 315 120<256 304> 362 111<574 615>
DStem: 76 403 214 509 -16 -20 123 102 162 50 162 50 142 15 166 45
Fore
241 384 m 1xe4
 248 421 l 1
 264 421 l 2
 265 421 266 421 268 420 c 0
 286 414 316 439 333 473 c 0
 350 509 362 568 362 615 c 0xe2
 362 655 347 675 315 675 c 0
 270 675 240 626 214 509 c 2
 123 102 l 2
 78 -98 2 -200 -103 -200 c 0
 -160 -200 -200 -169 -200 -123 c 0xf4
 -200 -91 -180 -70 -149 -70 c 0
 -119 -70 -101 -87 -101 -115 c 0xe8
 -101 -129 -103 -136 -112 -146 c 0
 -117 -151 -118 -153 -118 -158 c 0
 -118 -166 -114 -169 -102 -169 c 0
 -83 -169 -73 -164 -63 -152 c 0
 -47 -131 -30 -83 -16 -20 c 1
 76 403 l 2
 119 601 205 705 327 705 c 0
 412 705 473 650 473 574 c 0xf2
 473 538 457 501 432 477 c 0
 398 444 368 428 291 399 c 1
 344 388 368 379 392 357 c 0
 420 333 435 298 435 256 c 0
 435 117 331 -7 215 -7 c 0
 185 -7 164 -1 142 15 c 1
 162 50 l 1
 166 45 l 2
 174 35 193 27 209 27 c 0
 232 27 252 46 270 85 c 0
 294 137 315 239 315 304 c 0
 315 334 306 358 291 369 c 0
 281 377 270 380 241 384 c 1xe4
EndSplineSet
EndChar
StartChar: Adieresis
Encoding: 256 196 150
Width: 667
Flags: W
HStem: 0 25<129 129 289 299.667 579.8 593> 208 40<161 353> 663 20G<388 413> 732 130<298 309 510 512>
VStem: 234 130<785.399 801> 446 130<785.399 801>
DStem: 309 491 413 683 346 248 509 111 388 683 309 491 16 95 161 248 388 683 138 208 16 95 79 106
Fore
298 862 m 0
 334 862 364 832 364 796 c 0
 364 762 333 732 298 732 c 0
 264 732 234 762 234 796 c 0
 234 832 263 862 298 862 c 0
510 862 m 0
 546 862 576 832 576 796 c 0
 576 762 545 732 510 732 c 0
 476 732 446 762 446 796 c 0
 446 832 475 862 510 862 c 0
593 25 m 1
 593 0 l 1
 289 0 l 1
 289 25 l 1
 353 31 368 42 368 84 c 0
 368 97 366 117 360 156 c 0
 359 163 356 184 353 208 c 1
 138 208 l 1
 79 106 l 2
 69 89 64 73 64 60 c 0
 64 36 83 25 129 25 c 1
 129 0 l 1
 -67 0 l 1
 -67 25 l 1
 -31 33 -16 46 16 95 c 1
 388 683 l 1
 413 683 l 1
 509 111 l 1
 522 35 527 30 593 25 c 1
161 248 m 1
 346 248 l 1
 309 491 l 1
 161 248 l 1
EndSplineSet
KernsSLIF: 121 -67 0 0 119 -56 0 0 118 -51 0 0 117 -18 0 0 116 -4 0 0 39 -101 0 0 186 -78 0 0 113 -18 0 0 46 1 0 0 111 -23 0 0 45 -23 0 0 172 -68 0 0 171 -58 0 0 103 -20 0 0 100 -5 0 0 99 -20 0 0 98 -1 0 0 97 -5 0 0 89 -44 0 0 87 -107 0 0 86 -110 0 0 85 -61 0 0 84 -33 0 0 81 -54 0 0 79 -53 0 0 71 -59 0 0 67 -61 0 0
Ligature: 0 0 'liga' A uni0308
EndChar
StartChar: Aacute
Encoding: 257 193 151
Width: 667
Flags: W
HStem: 0 25<129 129 289 299.667 579.8 593> 208 40<161 353> 663 20G<388 413>
DStem: 309 491 413 683 346 248 509 111 388 683 309 491 16 95 161 248 388 683 138 208 16 95 79 106
Fore
374 723 m 1
 325 723 l 1
 447 854 l 2
 482 892 499 904 517 904 c 0
 543 904 565 882 565 857 c 0
 565 838 556 827 526 810 c 2
 374 723 l 1
593 25 m 1
 593 0 l 1
 289 0 l 1
 289 25 l 1
 353 31 368 42 368 84 c 0
 368 97 366 117 360 156 c 0
 359 163 356 184 353 208 c 1
 138 208 l 1
 79 106 l 2
 69 89 64 73 64 60 c 0
 64 36 83 25 129 25 c 1
 129 0 l 1
 -67 0 l 1
 -67 25 l 1
 -31 33 -16 46 16 95 c 1
 388 683 l 1
 413 683 l 1
 509 111 l 1
 522 35 527 30 593 25 c 1
161 248 m 1
 346 248 l 1
 309 491 l 1
 161 248 l 1
EndSplineSet
KernsSLIF: 121 -67 0 0 119 -56 0 0 118 -51 0 0 117 -18 0 0 116 -4 0 0 39 -101 0 0 113 -18 0 0 46 1 0 0 111 -23 0 0 45 -23 0 0 172 -68 0 0 171 -58 0 0 103 -20 0 0 101 -25 0 0 100 -5 0 0 99 -20 0 0 98 -1 0 0 97 -5 0 0 89 -44 0 0 87 -107 0 0 86 -110 0 0 85 -61 0 0 84 -33 0 0 81 -54 0 0 79 -53 0 0 71 -59 0 0 67 -61 0 0
Ligature: 0 0 'liga' A acutecomb
EndChar
StartChar: Agrave
Encoding: 258 192 152
Width: 667
Flags: W
HStem: 0 25<129 129 289 299.667 579.8 593> 208 40<161 353> 663 20G<388 413>
DStem: 309 491 413 683 346 248 509 111 388 683 309 491 16 95 161 248 388 683 138 208 16 95 79 106
Fore
468 723 m 1
 423 723 l 1
 290 812 l 2
 268 827 256 844 256 859 c 0
 256 883 277 904 301 904 c 0
 320 904 341 891 357 870 c 2
 468 723 l 1
593 25 m 1
 593 0 l 1
 289 0 l 1
 289 25 l 1
 353 31 368 42 368 84 c 0
 368 97 366 117 360 156 c 0
 359 163 356 184 353 208 c 1
 138 208 l 1
 79 106 l 2
 69 89 64 73 64 60 c 0
 64 36 83 25 129 25 c 1
 129 0 l 1
 -67 0 l 1
 -67 25 l 1
 -31 33 -16 46 16 95 c 1
 388 683 l 1
 413 683 l 1
 509 111 l 1
 522 35 527 30 593 25 c 1
161 248 m 1
 346 248 l 1
 309 491 l 1
 161 248 l 1
EndSplineSet
KernsSLIF: 46 1 0 0 89 -44 0 0 87 -107 0 0 86 -110 0 0 85 -61 0 0 84 -33 0 0 81 -54 0 0 79 -53 0 0 71 -59 0 0 67 -61 0 0
Ligature: 0 0 'liga' A gravecomb
EndChar
StartChar: Acircumflex
Encoding: 259 194 153
Width: 667
Flags: W
HStem: 0 25<129 129 289 299.667 579.8 593> 208 40<161 353> 663 20G<388 413>
DStem: 309 491 413 683 346 248 509 111 388 683 309 491 16 95 161 248 388 683 138 208 16 95 79 106
Fore
504 723 m 1
 416 818 l 1
 285 723 l 1
 228 723 l 1
 388 897 l 1
 469 897 l 1
 555 723 l 1
 504 723 l 1
593 25 m 1
 593 0 l 1
 289 0 l 1
 289 25 l 1
 353 31 368 42 368 84 c 0
 368 97 366 117 360 156 c 0
 359 163 356 184 353 208 c 1
 138 208 l 1
 79 106 l 2
 69 89 64 73 64 60 c 0
 64 36 83 25 129 25 c 1
 129 0 l 1
 -67 0 l 1
 -67 25 l 1
 -31 33 -16 46 16 95 c 1
 388 683 l 1
 413 683 l 1
 509 111 l 1
 522 35 527 30 593 25 c 1
161 248 m 1
 346 248 l 1
 309 491 l 1
 161 248 l 1
EndSplineSet
KernsSLIF: 46 1 0 0 89 -44 0 0 87 -107 0 0 86 -110 0 0 85 -61 0 0 84 -33 0 0 81 -54 0 0 79 -53 0 0 71 -59 0 0 67 -61 0 0
Ligature: 0 0 'liga' A uni0302
EndChar
StartChar: Abreve
Encoding: 260 258 154
Width: 667
Flags: W
HStem: 0 25<129 129 289 299.667 579.8 593> 208 40<161 353> 663 20G<388 413> 726 72<387 415>
DStem: 309 491 413 683 346 248 509 111 388 683 309 491 16 95 161 248 388 683 138 208 16 95 79 106
Fore
539 888 m 1
 578 888 l 1
 560 784 496 726 399 726 c 0
 306 726 262 774 262 875 c 2
 262 888 l 1
 305 888 l 1
 311 827 344 798 407 798 c 0
 472 798 508 822 539 888 c 1
593 25 m 1
 593 0 l 1
 289 0 l 1
 289 25 l 1
 353 31 368 42 368 84 c 0
 368 97 366 117 360 156 c 0
 359 163 356 184 353 208 c 1
 138 208 l 1
 79 106 l 2
 69 89 64 73 64 60 c 0
 64 36 83 25 129 25 c 1
 129 0 l 1
 -67 0 l 1
 -67 25 l 1
 -31 33 -16 46 16 95 c 1
 388 683 l 1
 413 683 l 1
 509 111 l 1
 522 35 527 30 593 25 c 1
161 248 m 1
 346 248 l 1
 309 491 l 1
 161 248 l 1
EndSplineSet
Ligature: 0 0 'liga' A uni0306
EndChar
StartChar: Atilde
Encoding: 261 195 155
Width: 667
Flags: W
HStem: 0 25<129 129 289 299.667 579.8 593> 208 40<161 353> 663 20G<388 413> 743 77<464 489> 787 75<310 338>
DStem: 309 491 413 683 346 248 509 111 388 683 309 491 16 95 161 248 388 683 138 208 16 95 79 106
Fore
540 862 m 1xe8
 581 862 l 1xe8
 559 779 524 743 464 743 c 0xf0
 445 743 433 746 407 756 c 2
 348 779 l 2
 335 784 321 787 310 787 c 0
 288 787 275 776 262 744 c 1
 222 744 l 1
 235 816 281 862 338 862 c 0xe8
 362 862 394 854 435 836 c 0
 461 825 478 820 489 820 c 0xf0
 512 820 525 831 540 862 c 1xe8
593 25 m 1
 593 0 l 1
 289 0 l 1
 289 25 l 1
 353 31 368 42 368 84 c 0
 368 97 366 117 360 156 c 0
 359 163 356 184 353 208 c 1
 138 208 l 1
 79 106 l 2
 69 89 64 73 64 60 c 0
 64 36 83 25 129 25 c 1
 129 0 l 1
 -67 0 l 1
 -67 25 l 1
 -31 33 -16 46 16 95 c 1
 388 683 l 1
 413 683 l 1
 509 111 l 1
 522 35 527 30 593 25 c 1
161 248 m 1
 346 248 l 1
 309 491 l 1
 161 248 l 1
EndSplineSet
KernsSLIF: 46 1 0 0 89 -44 0 0 87 -107 0 0 86 -110 0 0 85 -61 0 0 84 -33 0 0 81 -54 0 0 79 -53 0 0 71 -59 0 0 67 -61 0 0
Ligature: 0 0 'liga' A tildecomb
EndChar
StartChar: Aring
Encoding: 262 197 156
Width: 667
Flags: W
HStem: 0 25<129 129 289 299.667 579.8 593> 208 40<161 353> 663 20G<388 413> 736 48<396 415> 902 48<396 415>
VStem: 301 48<840 849> 466 48<831 849>
DStem: 309 491 413 683 346 248 509 111 388 683 309 491 16 95 161 248 388 683 138 208 16 95 79 106
Fore
408 950 m 0
 466 950 514 902 514 843 c 0
 514 784 466 736 407 736 c 0
 348 736 301 785 301 845 c 0
 301 902 350 950 408 950 c 0
406 902 m 0
 376 902 349 874 349 843 c 0
 349 811 375 784 406 784 c 0
 439 784 466 810 466 842 c 0
 466 875 439 902 406 902 c 0
593 25 m 1
 593 0 l 1
 289 0 l 1
 289 25 l 1
 353 31 368 42 368 84 c 0
 368 97 366 117 360 156 c 0
 359 163 356 184 353 208 c 1
 138 208 l 1
 79 106 l 2
 69 89 64 73 64 60 c 0
 64 36 83 25 129 25 c 1
 129 0 l 1
 -67 0 l 1
 -67 25 l 1
 -31 33 -16 46 16 95 c 1
 388 683 l 1
 413 683 l 1
 509 111 l 1
 522 35 527 30 593 25 c 1
161 248 m 1
 346 248 l 1
 309 491 l 1
 161 248 l 1
EndSplineSet
KernsSLIF: 121 -67 0 0 119 -56 0 0 118 -51 0 0 117 -18 0 0 116 -4 0 0 39 -101 0 0 186 -78 0 0 113 -18 0 0 46 1 0 0 111 -23 0 0 45 -23 0 0 172 -68 0 0 171 -58 0 0 103 -20 0 0 101 -25 0 0 100 -5 0 0 99 -20 0 0 98 -1 0 0 97 -5 0 0 89 -44 0 0 87 -107 0 0 86 -110 0 0 85 -61 0 0 84 -33 0 0 81 -54 0 0 79 -53 0 0 71 -59 0 0 67 -61 0 0
Ligature: 0 0 'liga' A uni030A
EndChar
StartChar: Aogonek
Encoding: 263 260 157
Width: 667
Flags: W
HStem: -173 69<606 647> 0 25<129 129 289 299.667> 208 40<161 353> 663 20G<388 413>
VStem: 500 84<-92 -39>
DStem: 309 491 413 683 346 248 509 111 388 683 309 491 16 95 161 248 388 683 138 208 16 95 79 106
Fore
353 208 m 1
 138 208 l 1
 79 106 l 2
 69 89 64 73 64 60 c 0
 64 36 83 25 129 25 c 1
 129 0 l 1
 -67 0 l 1
 -67 25 l 1
 -31 33 -16 46 16 95 c 1
 388 683 l 1
 413 683 l 1
 509 111 l 1
 522 35 527 30 593 25 c 1
 593 0 l 1
 587 -14 584 -25 584 -39 c 0
 584 -81 606 -104 647 -104 c 0
 662 -104 673 -101 693 -91 c 0
 701 -87 702 -86 707 -84 c 1
 729 -98 l 1
 704 -144 656 -173 606 -173 c 0
 545 -173 500 -139 500 -92 c 0
 500 -65 509 -45 543 0 c 1
 289 0 l 1
 289 25 l 1
 353 31 368 42 368 84 c 0
 368 97 366 117 360 156 c 0
 359 163 356 184 353 208 c 1
161 248 m 1
 346 248 l 1
 309 491 l 1
 161 248 l 1
EndSplineSet
Ligature: 0 0 'liga' A uni0328
EndChar
StartChar: Ccedilla
Encoding: 264 199 158
Width: 667
Flags: W
HStem: -218 41<175 199> -100 41<185 233> -18 53<304 336> 650 35<440 466>
VStem: 32 154<209 241> 232 91<-139 -129>
DStem: 203 -2 241 -12 142 -92 207 -62
Fore
241 -12 m 1
 207 -62 l 1
 217 -60 223 -59 233 -59 c 0
 285 -59 323 -89 323 -131 c 0
 323 -181 270 -218 199 -218 c 0
 162 -218 130 -211 87 -193 c 1
 109 -160 l 1
 137 -173 154 -177 176 -177 c 0
 210 -177 232 -161 232 -136 c 0
 232 -114 214 -100 185 -100 c 0
 175 -100 167 -101 155 -104 c 1
 142 -92 l 1
 203 -2 l 1
 94 34 32 122 32 241 c 0
 32 483 217 685 440 685 c 0
 481 685 528 677 571 664 c 0
 586 659 601 656 609 656 c 0
 624 656 633 663 647 685 c 1
 677 685 l 1
 626 451 l 1
 594 457 l 1
 596 470 597 479 597 492 c 0
 597 590 547 650 466 650 c 0
 425 650 386 634 349 604 c 0
 258 528 186 355 186 209 c 0
 186 100 242 35 336 35 c 0
 367 35 398 41 426 53 c 0
 468 71 496 94 546 153 c 1
 576 131 l 1
 544 87 528 70 498 47 c 0
 441 4 375 -18 304 -18 c 0
 283 -18 263 -16 241 -12 c 1
EndSplineSet
KernsSLIF: 65 -30 0 0
Ligature: 0 0 'liga' C uni0327
EndChar
StartChar: Cacute
Encoding: 265 262 159
Width: 667
Flags: W
HStem: -18 53<304 336> 650 35<440 466>
VStem: 32 154<209 241>
Fore
414 725 m 1
 365 725 l 1
 487 856 l 2
 522 894 539 906 557 906 c 0
 583 906 605 884 605 859 c 0
 605 840 596 829 566 812 c 2
 414 725 l 1
677 685 m 1
 626 451 l 1
 594 457 l 1
 596 470 597 479 597 492 c 0
 597 590 547 650 466 650 c 0
 425 650 386 634 349 604 c 0
 258 528 186 355 186 209 c 0
 186 100 242 35 336 35 c 0
 367 35 398 41 426 53 c 0
 468 71 496 94 546 153 c 1
 576 131 l 1
 544 87 528 69 498 47 c 0
 441 4 375 -18 304 -18 c 0
 141 -18 32 86 32 241 c 0
 32 483 217 685 440 685 c 0
 481 685 528 677 571 664 c 0
 586 659 601 656 609 656 c 0
 624 656 633 663 647 685 c 1
 677 685 l 1
EndSplineSet
Ligature: 0 0 'liga' C acutecomb
EndChar
StartChar: Ccaron
Encoding: 266 268 160
Width: 667
Flags: W
HStem: -18 53<304 336> 650 35<440 466>
VStem: 32 154<209 241>
Fore
639 900 m 1
 477 726 l 1
 395 726 l 1
 307 900 l 1
 357 900 l 1
 448 803 l 1
 583 900 l 1
 639 900 l 1
677 685 m 1
 626 451 l 1
 594 457 l 1
 596 470 597 479 597 492 c 0
 597 590 547 650 466 650 c 0
 425 650 386 634 349 604 c 0
 258 528 186 355 186 209 c 0
 186 100 242 35 336 35 c 0
 367 35 398 41 426 53 c 0
 468 71 496 94 546 153 c 1
 576 131 l 1
 544 87 528 69 498 47 c 0
 441 4 375 -18 304 -18 c 0
 141 -18 32 86 32 241 c 0
 32 483 217 685 440 685 c 0
 481 685 528 677 571 664 c 0
 586 659 601 656 609 656 c 0
 624 656 633 663 647 685 c 1
 677 685 l 1
EndSplineSet
Ligature: 0 0 'liga' C uni030C
EndChar
StartChar: Dcaron
Encoding: 267 270 161
Width: 722
Flags: W
HStem: 0 25<-24 -15.8333> 0 34<247 264> 638 31<116 408>
VStem: 560 147<396 457>
DStem: 177 543 340 600 56 97 212 126
Fore
116 644 m 1xb0
 116 669 l 1
 406 669 l 2
 595 669 707 567 707 396 c 0
 707 169 517 0 262 0 c 2x70
 -24 0 l 1
 -24 25 l 1
 25 31 41 46 56 97 c 1
 177 543 l 1
 185 575 189 592 189 602 c 0
 189 626 179 634 147 639 c 0
 143 640 130 642 116 644 c 1xb0
340 600 m 1
 212 126 l 1
 212 126 211 124 211 122 c 0
 202 96 199 80 199 68 c 0
 199 45 216 34 253 34 c 0
 348 34 419 71 472 147 c 0
 526 224 560 343 560 457 c 0
 560 579 506 638 395 638 c 0
 363 638 347 627 340 600 c 1
628 900 m 1
 466 726 l 1
 384 726 l 1
 296 900 l 1
 346 900 l 1
 437 803 l 1
 572 900 l 1
 628 900 l 1
EndSplineSet
Ligature: 0 0 'liga' D uni030C
EndChar
StartChar: Edieresis
Encoding: 268 203 162
Width: 667
Flags: W
HStem: 0 32<238 530> 338 32<269 297> 637 32<116 425> 732 130<303 313 515 521>
VStem: 239 130<785.399 801> 451 130<785.399 801>
DStem: 179 546 339 593 56 97 278 370 179 546 269 338 56 97 213 129
Fore
589 194 m 1
 530 0 l 1
 -24 0 l 1
 -24 25 l 1
 28 33 40 44 56 97 c 1
 179 546 l 2
 185 568 189 591 189 606 c 0
 189 627 178 635 147 639 c 0
 142 640 130 642 116 644 c 1
 116 669 l 1
 656 669 l 1
 613 479 l 1
 586 484 l 1
 586 546 579 571 556 595 c 0
 529 622 475 637 402 637 c 0
 361 637 349 628 339 593 c 1
 278 370 l 1
 410 369 436 382 483 476 c 1
 511 472 l 1
 437 199 l 1
 409 204 l 1
 412 223 413 234 413 248 c 0
 413 317 383 336 269 338 c 1
 213 129 l 1
 211 123 l 1
 210 115 208 109 206 104 c 0
 201 84 198 73 198 66 c 0
 198 42 216 32 259 32 c 0
 345 32 413 51 469 90 c 0
 508 117 529 142 564 199 c 1
 589 194 l 1
303 862 m 0
 339 862 369 832 369 796 c 0
 369 762 338 732 303 732 c 0
 269 732 239 762 239 796 c 0
 239 832 268 862 303 862 c 0
515 862 m 0
 551 862 581 832 581 796 c 0
 581 762 550 732 515 732 c 0
 481 732 451 762 451 796 c 0
 451 832 480 862 515 862 c 0
EndSplineSet
Ligature: 0 0 'liga' E uni0308
EndChar
StartChar: Eacute
Encoding: 269 201 163
Width: 667
Flags: W
HStem: 0 32<247 530> 338 32<269 297> 637 32<116 425>
DStem: 179 546 339 593 56 97 278 370 179 546 269 338 56 97 213 129
Fore
589 194 m 1
 530 0 l 1
 -24 0 l 1
 -24 25 l 1
 28 33 40 44 56 97 c 1
 179 546 l 2
 185 568 189 591 189 606 c 0
 189 627 178 635 147 639 c 0
 142 640 130 642 116 644 c 1
 116 669 l 1
 656 669 l 1
 613 479 l 1
 586 484 l 1
 586 546 579 571 556 595 c 0
 529 622 475 637 402 637 c 0
 361 637 349 628 339 593 c 1
 278 370 l 1
 410 369 436 382 483 476 c 1
 511 472 l 1
 437 199 l 1
 409 204 l 1
 412 223 413 234 413 248 c 0
 413 317 383 336 269 338 c 1
 213 129 l 1
 211 123 l 1
 210 115 208 109 206 104 c 0
 201 84 198 73 198 66 c 0
 198 42 216 32 259 32 c 0
 345 32 413 51 469 90 c 0
 508 117 529 142 564 199 c 1
 589 194 l 1
377 723 m 1
 328 723 l 1
 450 854 l 2
 485 892 502 904 520 904 c 0
 546 904 568 882 568 857 c 0
 568 838 559 827 529 810 c 2
 377 723 l 1
EndSplineSet
Ligature: 0 0 'liga' E acutecomb
EndChar
StartChar: Egrave
Encoding: 270 200 164
Width: 667
Flags: W
HStem: 0 32<247 530> 338 32<269 297> 637 32<116 433>
DStem: 179 546 339 593 56 97 278 370 179 546 269 338 56 97 213 129
Fore
589 194 m 1
 530 0 l 1
 -24 0 l 1
 -24 25 l 1
 28 33 40 44 56 97 c 1
 179 546 l 2
 185 568 189 591 189 606 c 0
 189 627 178 635 147 639 c 0
 142 640 130 642 116 644 c 1
 116 669 l 1
 656 669 l 1
 613 479 l 1
 586 484 l 1
 586 546 579 571 556 595 c 0
 529 622 475 637 402 637 c 0
 361 637 349 628 339 593 c 1
 278 370 l 1
 410 369 436 382 483 476 c 1
 511 472 l 1
 437 199 l 1
 409 204 l 1
 412 223 413 234 413 248 c 0
 413 317 383 336 269 338 c 1
 213 129 l 1
 211 123 l 1
 210 115 208 109 206 104 c 0
 201 84 198 73 198 66 c 0
 198 42 216 32 259 32 c 0
 345 32 413 51 469 90 c 0
 508 117 529 142 564 199 c 1
 589 194 l 1
478 723 m 1
 433 723 l 1
 300 812 l 2
 278 827 266 844 266 859 c 0
 266 883 287 904 311 904 c 0
 330 904 351 891 367 870 c 2
 478 723 l 1
EndSplineSet
Ligature: 0 0 'liga' E gravecomb
EndChar
StartChar: Ecircumflex
Encoding: 271 202 165
Width: 667
Flags: W
HStem: 0 32<247 530> 338 32<269 297> 637 32<116 425>
DStem: 179 546 339 593 56 97 278 370 179 546 269 338 56 97 213 129
Fore
589 194 m 1
 530 0 l 1
 -24 0 l 1
 -24 25 l 1
 28 33 40 44 56 97 c 1
 179 546 l 2
 185 568 189 591 189 606 c 0
 189 627 178 635 147 639 c 0
 142 640 130 642 116 644 c 1
 116 669 l 1
 656 669 l 1
 613 479 l 1
 586 484 l 1
 586 546 579 571 556 595 c 0
 529 622 475 637 402 637 c 0
 361 637 349 628 339 593 c 1
 278 370 l 1
 410 369 436 382 483 476 c 1
 511 472 l 1
 437 199 l 1
 409 204 l 1
 412 223 413 234 413 248 c 0
 413 317 383 336 269 338 c 1
 213 129 l 1
 211 123 l 1
 210 115 208 109 206 104 c 0
 201 84 198 73 198 66 c 0
 198 42 216 32 259 32 c 0
 345 32 413 51 469 90 c 0
 508 117 529 142 564 199 c 1
 589 194 l 1
507 723 m 1
 419 818 l 1
 288 723 l 1
 231 723 l 1
 391 897 l 1
 472 897 l 1
 558 723 l 1
 507 723 l 1
EndSplineSet
Ligature: 0 0 'liga' E uni0302
EndChar
StartChar: Ecaron
Encoding: 272 282 166
Width: 667
Flags: W
HStem: 0 32<247 530> 338 32<269 299> 637 32<116 425>
DStem: 179 546 339 593 56 97 278 370 179 546 269 338 56 97 213 129
Fore
589 194 m 1
 530 0 l 1
 -24 0 l 1
 -24 25 l 1
 28 33 40 44 56 97 c 1
 179 546 l 2
 185 568 189 591 189 606 c 0
 189 627 178 635 147 639 c 0
 142 640 130 642 116 644 c 1
 116 669 l 1
 656 669 l 1
 613 479 l 1
 586 484 l 1
 586 546 579 571 556 595 c 0
 529 622 475 637 402 637 c 0
 361 637 349 628 339 593 c 1
 278 370 l 1
 410 369 436 382 483 476 c 1
 511 472 l 1
 437 199 l 1
 409 204 l 1
 412 223 413 234 413 248 c 0
 413 317 383 336 269 338 c 1
 213 129 l 1
 211 123 l 1
 210 115 208 109 206 104 c 0
 201 84 198 73 198 66 c 0
 198 42 216 32 259 32 c 0
 345 32 413 51 469 90 c 0
 508 117 529 142 564 199 c 1
 589 194 l 1
581 900 m 1
 419 726 l 1
 337 726 l 1
 249 900 l 1
 299 900 l 1
 390 803 l 1
 525 900 l 1
 581 900 l 1
EndSplineSet
Ligature: 0 0 'liga' E uni030C
EndChar
StartChar: Edotaccent
Encoding: 273 278 167
Width: 667
Flags: W
HStem: 0 32<247 530> 338 32<269 297> 637 32<116 425> 735 130<397 409>
VStem: 333 130<788.399 802>
DStem: 179 546 339 593 56 97 278 370 179 546 269 338 56 97 213 129
Fore
589 194 m 1
 530 0 l 1
 -24 0 l 1
 -24 25 l 1
 28 33 40 44 56 97 c 1
 179 546 l 2
 185 568 189 591 189 606 c 0
 189 627 178 635 147 639 c 0
 142 640 130 642 116 644 c 1
 116 669 l 1
 656 669 l 1
 613 479 l 1
 586 484 l 1
 586 546 579 571 556 595 c 0
 529 622 475 637 402 637 c 0
 361 637 349 628 339 593 c 1
 278 370 l 1
 410 369 436 382 483 476 c 1
 511 472 l 1
 437 199 l 1
 409 204 l 1
 412 223 413 234 413 248 c 0
 413 317 383 336 269 338 c 1
 213 129 l 1
 211 123 l 1
 210 115 208 109 206 104 c 0
 201 84 198 73 198 66 c 0
 198 42 216 32 259 32 c 0
 345 32 413 51 469 90 c 0
 508 117 529 142 564 199 c 1
 589 194 l 1
397 865 m 0
 433 865 463 835 463 799 c 0
 463 765 432 735 397 735 c 0
 363 735 333 765 333 799 c 0
 333 835 362 865 397 865 c 0
EndSplineSet
Ligature: 0 0 'liga' E uni0307
EndChar
StartChar: Eogonek
Encoding: 274 280 168
Width: 667
Flags: W
HStem: -173 69<544 585> 0 32<244 481> 338 32<266 294> 637 32<113 422>
VStem: 438 84<-92 -41>
DStem: 176 546 336 593 53 97 275 370 176 546 266 338 53 97 210 129
Fore
586 194 m 1
 539 41 l 2
 526 -1 522 -23 522 -41 c 0
 522 -82 545 -104 585 -104 c 0
 600 -104 611 -101 631 -91 c 0
 639 -87 640 -86 645 -84 c 1
 667 -98 l 1
 642 -144 594 -173 544 -173 c 0
 483 -173 438 -139 438 -92 c 0
 438 -65 447 -45 481 0 c 1
 -27 0 l 1
 -27 25 l 1
 25 33 37 44 53 97 c 1
 176 546 l 2
 182 568 186 591 186 606 c 0
 186 627 175 635 144 639 c 0
 139 640 127 642 113 644 c 1
 113 669 l 1
 653 669 l 1
 610 479 l 1
 583 484 l 1
 583 546 576 571 553 595 c 0
 526 622 472 637 399 637 c 0
 358 637 346 628 336 593 c 1
 275 370 l 1
 407 369 433 382 480 476 c 1
 508 472 l 1
 434 199 l 1
 406 204 l 1
 409 223 410 234 410 248 c 0
 410 317 380 336 266 338 c 1
 210 129 l 1
 208 123 l 1
 207 115 205 109 203 104 c 0
 198 84 195 73 195 66 c 0
 195 42 213 32 256 32 c 0
 342 32 410 51 466 90 c 0
 505 117 526 142 561 199 c 1
 586 194 l 1
EndSplineSet
Ligature: 0 0 'liga' E uni0328
EndChar
StartChar: Gbreve
Encoding: 275 286 169
Width: 722
Flags: W
HStem: -18 38<317 348> 304 26<419 429.75 692.75 706> 649 36<442 470> 726 72<433 464>
VStem: 21 156<208 251>
Fore
582 888 m 1
 621 888 l 1
 603 784 539 726 442 726 c 0
 349 726 305 774 305 875 c 2
 305 888 l 1
 348 888 l 1
 354 827 387 798 450 798 c 0
 515 798 551 822 582 888 c 1
706 330 m 1
 706 304 l 1
 653 300 646 292 627 222 c 1
 579 41 l 1
 551 28 l 2
 494 2 394 -18 317 -18 c 0
 142 -18 21 92 21 251 c 0
 21 404 108 555 240 632 c 0
 301 667 372 685 448 685 c 0
 494 685 527 679 572 664 c 0
 591 657 599 655 608 655 c 0
 628 655 639 663 650 685 c 1
 681 685 l 1
 630 464 l 1
 601 468 l 1
 599 536 592 565 570 598 c 0
 548 630 509 649 462 649 c 0
 417 649 374 633 336 601 c 0
 245 524 177 357 177 208 c 0
 177 86 235 20 341 20 c 0
 380 20 421 33 435 50 c 0
 439 55 439 55 462 133 c 0
 489 225 493 242 493 268 c 0
 493 277 487 288 481 292 c 0
 470 298 462 300 419 304 c 1
 419 330 l 1
 706 330 l 1
EndSplineSet
Ligature: 0 0 'liga' G uni0306
EndChar
StartChar: Idieresis
Encoding: 276 207 170
Width: 389
Flags: W
HStem: 0 25<-24 -15.8333 253 272> 644 25<405.5 414> 732 130<175 185 376.208 393>
VStem: 111 130<785.399 801> 323 130<785.399 801>
DStem: 179 546 332 572 56 97 218 152
Fore
272 25 m 1
 272 0 l 1
 -24 0 l 1
 -24 25 l 1
 25 31 40 45 56 97 c 1
 179 546 l 2
 184 564 189 595 189 607 c 0
 189 627 179 635 148 639 c 0
 143 640 130 642 116 644 c 1
 116 669 l 1
 414 669 l 1
 414 644 l 1
 363 638 348 625 332 572 c 1
 218 152 l 2
 205 103 200 80 200 65 c 0
 200 37 215 28 272 25 c 1
175 862 m 0
 211 862 241 832 241 796 c 0
 241 762 210 732 175 732 c 0
 141 732 111 762 111 796 c 0
 111 832 140 862 175 862 c 0
387 862 m 0
 423 862 453 832 453 796 c 0
 453 762 422 732 387 732 c 0
 353 732 323 762 323 796 c 0
 323 832 352 862 387 862 c 0
EndSplineSet
Ligature: 0 0 'liga' I uni0308
EndChar
StartChar: Iacute
Encoding: 277 205 171
Width: 389
Flags: W
HStem: 0 25<-24 -15.8333 253 272> 644 25<405.5 414>
DStem: 179 546 332 572 56 97 218 152
Fore
272 25 m 1
 272 0 l 1
 -24 0 l 1
 -24 25 l 1
 25 31 40 45 56 97 c 1
 179 546 l 2
 184 564 189 595 189 607 c 0
 189 627 179 635 148 639 c 0
 143 640 130 642 116 644 c 1
 116 669 l 1
 414 669 l 1
 414 644 l 1
 363 638 348 625 332 572 c 1
 218 152 l 2
 205 103 200 80 200 65 c 0
 200 37 215 28 272 25 c 1
224 726 m 1
 175 726 l 1
 297 857 l 2
 332 895 349 907 367 907 c 0
 393 907 415 885 415 860 c 0
 415 841 406 830 376 813 c 2
 224 726 l 1
EndSplineSet
Ligature: 0 0 'liga' I acutecomb
EndChar
StartChar: Igrave
Encoding: 278 204 172
Width: 389
Flags: W
HStem: 0 25<-24 -15.8333 253 272> 644 25<405.5 414>
DStem: 179 546 332 572 56 97 218 152
Fore
272 25 m 1
 272 0 l 1
 -24 0 l 1
 -24 25 l 1
 25 31 40 45 56 97 c 1
 179 546 l 2
 184 564 189 595 189 607 c 0
 189 627 179 635 148 639 c 0
 143 640 130 642 116 644 c 1
 116 669 l 1
 414 669 l 1
 414 644 l 1
 363 638 348 625 332 572 c 1
 218 152 l 2
 205 103 200 80 200 65 c 0
 200 37 215 28 272 25 c 1
366 723 m 1
 321 723 l 1
 188 812 l 2
 166 827 154 844 154 859 c 0
 154 883 175 904 199 904 c 0
 218 904 239 891 255 870 c 2
 366 723 l 1
EndSplineSet
Ligature: 0 0 'liga' I gravecomb
EndChar
StartChar: Icircumflex
Encoding: 279 206 173
Width: 389
Flags: W
HStem: 0 25<-24 -15.8333 253 272> 644 25<405.5 414>
DStem: 179 546 332 572 56 97 218 152
Fore
272 25 m 1
 272 0 l 1
 -24 0 l 1
 -24 25 l 1
 25 31 40 45 56 97 c 1
 179 546 l 2
 184 564 189 595 189 607 c 0
 189 627 179 635 148 639 c 0
 143 640 130 642 116 644 c 1
 116 669 l 1
 414 669 l 1
 414 644 l 1
 363 638 348 625 332 572 c 1
 218 152 l 2
 205 103 200 80 200 65 c 0
 200 37 215 28 272 25 c 1
377 723 m 1
 289 818 l 1
 158 723 l 1
 101 723 l 1
 261 897 l 1
 342 897 l 1
 428 723 l 1
 377 723 l 1
EndSplineSet
Ligature: 0 0 'liga' I uni0302
EndChar
StartChar: Idotaccent
Encoding: 280 304 174
Width: 389
Flags: W
HStem: 0 25<-24 -15.8333 253 272> 644 25<405.5 414> 735 130<252.208 274>
VStem: 199 130<788.399 802>
DStem: 179 546 332 572 56 97 218 152
Fore
272 25 m 1
 272 0 l 1
 -24 0 l 1
 -24 25 l 1
 25 31 40 45 56 97 c 1
 179 546 l 2
 184 564 189 595 189 607 c 0
 189 627 179 635 148 639 c 0
 143 640 130 642 116 644 c 1
 116 669 l 1
 414 669 l 1
 414 644 l 1
 363 638 348 625 332 572 c 1
 218 152 l 2
 205 103 200 80 200 65 c 0
 200 37 215 28 272 25 c 1
263 865 m 0
 299 865 329 835 329 799 c 0
 329 765 298 735 263 735 c 0
 229 735 199 765 199 799 c 0
 199 835 228 865 263 865 c 0
EndSplineSet
Ligature: 0 0 'liga' I uni0307
EndChar
StartChar: Lacute
Encoding: 281 313 175
Width: 611
Flags: W
HStem: 0 32<247 529> 644 25<416.5 433>
DStem: 179 546 332 572 56 97 203 94
Fore
588 194 m 1
 529 0 l 1
 -24 0 l 1
 -24 25 l 1
 25 32 40 45 56 97 c 1
 179 546 l 2
 184 564 189 595 189 607 c 0
 189 627 179 635 148 639 c 0
 143 640 130 642 116 644 c 1
 116 669 l 1
 433 669 l 1
 433 644 l 1
 367 640 348 627 332 572 c 1
 203 94 l 2
 200 83 198 70 198 62 c 0
 198 41 218 32 262 32 c 0
 344 32 415 52 469 90 c 0
 508 118 530 143 564 199 c 1
 588 194 l 1
325 726 m 1
 276 726 l 1
 398 857 l 2
 433 895 450 907 468 907 c 0
 494 907 516 885 516 860 c 0
 516 841 507 830 477 813 c 2
 325 726 l 1
EndSplineSet
Ligature: 0 0 'liga' L acutecomb
EndChar
StartChar: Lcaron
Encoding: 282 317 176
Width: 638
Flags: W
HStem: 0 32<249 531> 644 25<418.5 435>
VStem: 510 141<597 619>
DStem: 181 546 334 572 58 97 205 94
Fore
590 194 m 1
 531 0 l 1
 -22 0 l 1
 -22 25 l 1
 27 32 42 45 58 97 c 1
 181 546 l 2
 186 564 191 595 191 607 c 0
 191 627 181 635 150 639 c 0
 145 640 132 642 118 644 c 1
 118 669 l 1
 435 669 l 1
 435 644 l 1
 369 640 350 627 334 572 c 1
 205 94 l 2
 202 83 200 70 200 62 c 0
 200 41 220 32 264 32 c 0
 346 32 417 52 471 90 c 0
 510 118 532 143 566 199 c 1
 590 194 l 1
479 401 m 1
 467 422 l 1
 538 460 573 495 573 527 c 0
 573 540 566 549 546 562 c 0
 519 581 510 595 510 619 c 0
 510 657 537 685 574 685 c 0
 620 685 651 650 651 597 c 0
 651 524 583 447 479 401 c 1
EndSplineSet
Ligature: 0 0 'liga' L uni030C
EndChar
StartChar: Nacute
Encoding: 283 323 177
Width: 722
Flags: W
HStem: 0 25<167.2 179> 644 25<109 120 537 548.8>
DStem: 192 589 216 534 72 178 117 178 216 534 304 669 473 -15 519 204 599 491 644 491 519 204 501 -15
Fore
421 726 m 1
 372 726 l 1
 494 857 l 2
 529 895 546 907 564 907 c 0
 590 907 612 885 612 860 c 0
 612 841 603 830 573 813 c 2
 421 726 l 1
304 669 m 1
 519 204 l 1
 599 491 l 2
 610 531 617 567 617 585 c 0
 617 623 596 639 537 644 c 1
 537 669 l 1
 746 669 l 1
 746 644 l 1
 688 631 683 623 644 491 c 1
 501 -15 l 1
 473 -15 l 1
 216 534 l 1
 117 178 l 1
 106 137 99 102 99 84 c 0
 99 45 120 30 179 25 c 1
 179 0 l 1
 -29 0 l 1
 -29 25 l 1
 26 36 33 47 72 178 c 1
 192 589 l 1
 173 633 164 639 109 644 c 1
 109 669 l 1
 304 669 l 1
EndSplineSet
Ligature: 0 0 'liga' N acutecomb
EndChar
StartChar: Ncaron
Encoding: 284 327 178
Width: 722
Flags: W
HStem: 0 25<167.2 179> 644 25<109 120 537 548.8>
DStem: 192 589 216 534 72 178 117 178 216 534 304 669 473 -15 519 204 599 491 644 491 519 204 501 -15
Fore
644 900 m 1
 482 726 l 1
 400 726 l 1
 312 900 l 1
 362 900 l 1
 453 803 l 1
 588 900 l 1
 644 900 l 1
304 669 m 1
 519 204 l 1
 599 491 l 2
 610 531 617 567 617 585 c 0
 617 623 596 639 537 644 c 1
 537 669 l 1
 746 669 l 1
 746 644 l 1
 688 631 683 623 644 491 c 1
 501 -15 l 1
 473 -15 l 1
 216 534 l 1
 117 178 l 1
 106 137 99 102 99 84 c 0
 99 45 120 30 179 25 c 1
 179 0 l 1
 -29 0 l 1
 -29 25 l 1
 26 36 33 47 72 178 c 1
 192 589 l 1
 173 633 164 639 109 644 c 1
 109 669 l 1
 304 669 l 1
EndSplineSet
Ligature: 0 0 'liga' N uni030C
EndChar
StartChar: Ntilde
Encoding: 285 209 179
Width: 722
Flags: W
HStem: 0 25<167.2 179> 644 25<109 120 537 548.8> 743 77<521 546> 787 75<367 395>
DStem: 192 589 216 534 72 178 117 178 216 534 304 669 473 -15 519 204 599 491 644 491 519 204 501 -15
Fore
597 862 m 1xd0
 638 862 l 1xd0
 616 779 581 743 521 743 c 0xe0
 502 743 490 746 464 756 c 2
 405 779 l 2
 392 784 378 787 367 787 c 0
 345 787 332 776 319 744 c 1
 279 744 l 1
 292 816 338 862 395 862 c 0xd0
 419 862 451 854 492 836 c 0
 518 825 535 820 546 820 c 0xe0
 569 820 582 831 597 862 c 1xd0
304 669 m 1
 519 204 l 1
 599 491 l 2
 610 531 617 567 617 585 c 0
 617 623 596 639 537 644 c 1
 537 669 l 1
 746 669 l 1
 746 644 l 1
 688 631 683 623 644 491 c 1
 501 -15 l 1
 473 -15 l 1
 216 534 l 1
 117 178 l 1
 106 137 99 102 99 84 c 0
 99 45 120 30 179 25 c 1
 179 0 l 1
 -29 0 l 1
 -29 25 l 1
 26 36 33 47 72 178 c 1
 192 589 l 1
 173 633 164 639 109 644 c 1
 109 669 l 1
 304 669 l 1
EndSplineSet
Ligature: 0 0 'liga' N tildecomb
EndChar
StartChar: Odieresis
Encoding: 286 214 180
Width: 722
Flags: W
HStem: -18 34<261 288> 651 34<427.95 460> 732 130<350 352 562 572>
VStem: 27 144<137 221> 286 130<785.399 799> 498 130<785.399 799> 547 144<454 531>
Fore
350 862 m 0xf8
 386 862 416 832 416 796 c 0
 416 762 385 732 350 732 c 0
 316 732 286 762 286 796 c 0
 286 832 315 862 350 862 c 0xf8
562 862 m 0
 598 862 628 832 628 796 c 0
 628 762 597 732 562 732 c 0
 528 732 498 762 498 796 c 0xfc
 498 832 527 862 562 862 c 0
449 685 m 0
 588 685 691 587 691 454 c 0xfa
 691 308 609 149 485 58 c 0
 418 8 342 -18 263 -18 c 0
 122 -18 27 78 27 221 c 0
 27 360 113 521 234 609 c 0
 302 659 376 685 449 685 c 0
445 651 m 0
 381 651 328 610 277 520 c 0
 222 424 171 239 171 137 c 0
 171 63 210 16 273 16 c 0
 327 16 372 46 418 113 c 0
 485 211 547 411 547 531 c 0
 547 603 506 651 445 651 c 0
EndSplineSet
KernsSLIF: 89 -56 0 0 88 -63 0 0 87 -52 0 0 86 -52 0 0 84 -18 0 0 65 -57 0 0
Ligature: 0 0 'liga' O uni0308
EndChar
StartChar: Oacute
Encoding: 287 211 181
Width: 722
Flags: W
HStem: -18 34<261 284> 651 34<431 460>
VStem: 27 144<137 221> 547 144<454 531>
Fore
433 723 m 1
 384 723 l 1
 506 854 l 2
 541 892 558 904 576 904 c 0
 602 904 624 882 624 857 c 0
 624 838 615 827 585 810 c 2
 433 723 l 1
449 685 m 0
 588 685 691 587 691 454 c 0
 691 308 609 149 485 58 c 0
 418 8 342 -18 263 -18 c 0
 122 -18 27 78 27 221 c 0
 27 360 113 521 234 609 c 0
 302 659 376 685 449 685 c 0
445 651 m 0
 381 651 328 610 277 520 c 0
 222 424 171 239 171 137 c 0
 171 63 210 16 273 16 c 0
 327 16 372 46 418 113 c 0
 485 211 547 411 547 531 c 0
 547 603 506 651 445 651 c 0
EndSplineSet
KernsSLIF: 89 -56 0 0 87 -52 0 0 86 -52 0 0 84 -18 0 0 65 -57 0 0
Ligature: 0 0 'liga' O acutecomb
EndChar
StartChar: Ograve
Encoding: 288 210 182
Width: 722
Flags: W
HStem: -18 34<261 284> 651 34<429 460>
VStem: 27 144<137 221> 547 144<454 531>
Fore
542 723 m 1
 497 723 l 1
 364 812 l 2
 342 827 330 844 330 859 c 0
 330 883 351 904 375 904 c 0
 394 904 415 891 431 870 c 2
 542 723 l 1
449 685 m 0
 588 685 691 587 691 454 c 0
 691 308 609 149 485 58 c 0
 418 8 342 -18 263 -18 c 0
 122 -18 27 78 27 221 c 0
 27 360 113 521 234 609 c 0
 302 659 376 685 449 685 c 0
445 651 m 0
 381 651 328 610 277 520 c 0
 222 424 171 239 171 137 c 0
 171 63 210 16 273 16 c 0
 327 16 372 46 418 113 c 0
 485 211 547 411 547 531 c 0
 547 603 506 651 445 651 c 0
EndSplineSet
KernsSLIF: 89 -56 0 0 86 -52 0 0 84 -18 0 0
Ligature: 0 0 'liga' O gravecomb
EndChar
StartChar: Ocircumflex
Encoding: 289 212 183
Width: 722
Flags: W
HStem: -18 34<261 284> 651 34<427.95 460>
VStem: 27 144<137 221> 547 144<454 531>
Fore
569 723 m 1
 481 818 l 1
 350 723 l 1
 293 723 l 1
 453 897 l 1
 534 897 l 1
 620 723 l 1
 569 723 l 1
449 685 m 0
 588 685 691 587 691 454 c 0
 691 308 609 149 485 58 c 0
 418 8 342 -18 263 -18 c 0
 122 -18 27 78 27 221 c 0
 27 360 113 521 234 609 c 0
 302 659 376 685 449 685 c 0
445 651 m 0
 381 651 328 610 277 520 c 0
 222 424 171 239 171 137 c 0
 171 63 210 16 273 16 c 0
 327 16 372 46 418 113 c 0
 485 211 547 411 547 531 c 0
 547 603 506 651 445 651 c 0
EndSplineSet
KernsSLIF: 89 -56 0 0 86 -52 0 0 84 -18 0 0
Ligature: 0 0 'liga' O uni0302
EndChar
StartChar: Otilde
Encoding: 290 213 184
Width: 722
Flags: W
HStem: -18 34<261 285> 651 34<427.95 460> 743 77<525 550> 787 75<371 399>
VStem: 27 144<137 221> 547 144<454 531>
Fore
601 862 m 1xdc
 642 862 l 1xdc
 620 779 585 743 525 743 c 0xec
 506 743 494 746 468 756 c 2
 409 779 l 2
 396 784 382 787 371 787 c 0
 349 787 336 776 323 744 c 1
 283 744 l 1
 296 816 342 862 399 862 c 0xdc
 423 862 455 854 496 836 c 0
 522 825 539 820 550 820 c 0xec
 573 820 586 831 601 862 c 1xdc
449 685 m 0
 588 685 691 587 691 454 c 0
 691 308 609 149 485 58 c 0
 418 8 342 -18 263 -18 c 0
 122 -18 27 78 27 221 c 0
 27 360 113 521 234 609 c 0
 302 659 376 685 449 685 c 0
445 651 m 0
 381 651 328 610 277 520 c 0
 222 424 171 239 171 137 c 0
 171 63 210 16 273 16 c 0
 327 16 372 46 418 113 c 0
 485 211 547 411 547 531 c 0
 547 603 506 651 445 651 c 0
EndSplineSet
KernsSLIF: 89 -56 0 0 86 -52 0 0 84 -18 0 0
Ligature: 0 0 'liga' O tildecomb
EndChar
StartChar: Ohungarumlaut
Encoding: 291 336 185
Width: 722
Flags: W
HStem: -18 34<261 284> 651 34<427.95 460>
VStem: 27 144<137 221> 547 144<454 531>
Fore
313 726 m 1
 264 726 l 1
 386 857 l 2
 421 895 438 907 456 907 c 0
 482 907 504 885 504 860 c 0
 504 841 495 830 465 813 c 2
 313 726 l 1
502 726 m 1
 453 726 l 1
 575 857 l 2
 610 895 627 907 645 907 c 0
 671 907 693 885 693 860 c 0
 693 841 684 830 654 813 c 2
 502 726 l 1
449 685 m 0
 588 685 691 587 691 454 c 0
 691 308 609 149 485 58 c 0
 418 8 342 -18 263 -18 c 0
 122 -18 27 78 27 221 c 0
 27 360 113 521 234 609 c 0
 302 659 376 685 449 685 c 0
445 651 m 0
 381 651 328 610 277 520 c 0
 222 424 171 239 171 137 c 0
 171 63 210 16 273 16 c 0
 327 16 372 46 418 113 c 0
 485 211 547 411 547 531 c 0
 547 603 506 651 445 651 c 0
EndSplineSet
Ligature: 0 0 'liga' O uni030B
EndChar
StartChar: Racute
Encoding: 292 340 186
Width: 667
Flags: W
HStem: 0 25<-24 -15.8333 257.5 272 595.8 607> 331 32<278 298> 637 32<116 394>
VStem: 477 151<524 544>
DStem: 179 546 338 593 56 97 278 363 179 546 269 331 56 97 214 138 298 331 436 343 405 0 519 97
Fore
116 644 m 1
 116 669 l 1
 392 669 l 2
 550 669 628 622 628 526 c 0
 628 470 599 419 548 385 c 0
 516 364 491 354 436 343 c 1
 519 97 l 1
 541 38 551 30 607 25 c 1
 607 0 l 1
 405 0 l 1
 298 331 l 1
 269 331 l 1
 214 138 l 2
 205 107 200 81 200 67 c 0
 200 37 214 29 272 25 c 1
 272 0 l 1
 -24 0 l 1
 -24 25 l 1
 25 31 40 45 56 97 c 1
 179 546 l 1
 184 563 189 595 189 607 c 0
 189 627 179 635 148 639 c 0
 143 640 130 642 116 644 c 1
338 593 m 1
 278 363 l 1
 340 364 379 371 405 388 c 0
 448 415 477 476 477 542 c 0
 477 602 444 637 387 637 c 0
 356 637 347 629 338 593 c 1
360 726 m 1
 311 726 l 1
 433 857 l 2
 468 895 485 907 503 907 c 0
 529 907 551 885 551 860 c 0
 551 841 542 830 512 813 c 2
 360 726 l 1
EndSplineSet
Ligature: 0 0 'liga' R acutecomb
EndChar
StartChar: Rcaron
Encoding: 293 344 187
Width: 667
Flags: W
HStem: 0 25<-24 -15.8333 257.5 272 595.8 607> 331 32<278 298> 637 32<116 396>
VStem: 477 151<524 544>
DStem: 179 546 338 593 56 97 278 363 179 546 269 331 56 97 214 138 298 331 436 343 405 0 519 97
Fore
116 644 m 1
 116 669 l 1
 392 669 l 2
 550 669 628 622 628 526 c 0
 628 470 599 419 548 385 c 0
 516 364 491 354 436 343 c 1
 519 97 l 1
 541 38 551 30 607 25 c 1
 607 0 l 1
 405 0 l 1
 298 331 l 1
 269 331 l 1
 214 138 l 2
 205 107 200 81 200 67 c 0
 200 37 214 29 272 25 c 1
 272 0 l 1
 -24 0 l 1
 -24 25 l 1
 25 31 40 45 56 97 c 1
 179 546 l 1
 184 563 189 595 189 607 c 0
 189 627 179 635 148 639 c 0
 143 640 130 642 116 644 c 1
338 593 m 1
 278 363 l 1
 340 364 379 371 405 388 c 0
 448 415 477 476 477 542 c 0
 477 602 444 637 387 637 c 0
 356 637 347 629 338 593 c 1
584 900 m 1
 422 726 l 1
 340 726 l 1
 252 900 l 1
 302 900 l 1
 393 803 l 1
 528 900 l 1
 584 900 l 1
EndSplineSet
Ligature: 0 0 'liga' R uni030C
EndChar
StartChar: Sacute
Encoding: 294 346 188
Width: 556
Flags: W
HStem: -18 34<219 239> 650 35<303 327>
VStem: 102 121<491 545> 347 121<142 185>
Fore
300 726 m 1
 251 726 l 1
 373 857 l 2
 408 895 425 907 443 907 c 0
 469 907 491 885 491 860 c 0
 491 841 482 830 452 813 c 2
 300 726 l 1
2 -18 m 1
 38 206 l 1
 67 204 l 1
 71 144 79 114 98 83 c 0
 123 41 169 16 221 16 c 0
 270 16 305 35 328 74 c 0
 340 96 347 120 347 142 c 0
 347 188 312 235 234 295 c 0
 178 339 137 383 115 425 c 0
 107 442 102 464 102 491 c 0
 102 601 189 685 303 685 c 0
 331 685 358 680 401 666 c 0
 426 659 443 655 452 655 c 0
 473 655 487 663 496 681 c 1
 526 681 l 1
 486 480 l 1
 459 484 l 1
 446 601 407 650 327 650 c 0
 263 650 223 609 223 545 c 0
 223 500 238 478 300 431 c 0
 422 338 468 271 468 185 c 0
 468 61 379 -18 239 -18 c 0
 199 -18 165 -11 116 6 c 0
 93 14 80 17 70 17 c 0
 51 17 44 11 32 -18 c 1
 2 -18 l 1
EndSplineSet
Ligature: 0 0 'liga' S acutecomb
EndChar
StartChar: Scaron
Encoding: 295 352 189
Width: 556
Flags: W
HStem: -18 34<219 239> 650 35<303 327>
VStem: 102 121<491 545> 347 121<142 185>
Fore
523 897 m 1
 361 723 l 1
 279 723 l 1
 191 897 l 1
 241 897 l 1
 332 800 l 1
 467 897 l 1
 523 897 l 1
2 -18 m 1
 38 206 l 1
 67 204 l 1
 71 144 79 114 98 83 c 0
 123 41 169 16 221 16 c 0
 270 16 305 35 328 74 c 0
 340 96 347 120 347 142 c 0
 347 188 312 235 234 295 c 0
 178 339 137 383 115 425 c 0
 107 442 102 464 102 491 c 0
 102 601 189 685 303 685 c 0
 331 685 358 680 401 666 c 0
 426 659 443 655 452 655 c 0
 473 655 487 663 496 681 c 1
 526 681 l 1
 486 480 l 1
 459 484 l 1
 446 601 407 650 327 650 c 0
 263 650 223 609 223 545 c 0
 223 500 238 478 300 431 c 0
 422 338 468 271 468 185 c 0
 468 61 379 -18 239 -18 c 0
 199 -18 165 -11 116 6 c 0
 93 14 80 17 70 17 c 0
 51 17 44 11 32 -18 c 1
 2 -18 l 1
EndSplineSet
Ligature: 0 0 'liga' S uni030C
EndChar
StartChar: Scedilla
Encoding: 296 350 190
Width: 556
Flags: W
HStem: -218 41<140 164> -100 41<150 197> -18 34<219 238> 650 35<303 327>
VStem: 102 121<491 545> 197 91<-139 -129> 347 121<142 185>
DStem: 163 -9 202 -16 107 -92 172 -62
Fore
202 -16 m 1xfa
 172 -62 l 1
 182 -60 188 -59 197 -59 c 0
 250 -59 288 -89 288 -131 c 0
 288 -181 235 -218 164 -218 c 0
 127 -218 95 -211 52 -193 c 1
 74 -160 l 1
 102 -173 119 -177 141 -177 c 0
 175 -177 197 -161 197 -136 c 0xf6
 197 -114 179 -100 150 -100 c 0
 139 -100 131 -101 120 -104 c 1
 107 -92 l 1
 163 -9 l 1
 147 -4 133 0 116 6 c 0
 92 14 79 17 70 17 c 0
 51 17 44 11 32 -18 c 1
 2 -18 l 1
 38 206 l 1
 67 204 l 1
 71 144 79 114 98 83 c 0
 123 41 169 16 221 16 c 0
 270 16 305 35 328 74 c 0
 340 96 347 120 347 142 c 0
 347 188 312 235 234 295 c 0
 178 339 137 383 115 425 c 0
 107 442 102 464 102 491 c 0
 102 601 189 685 303 685 c 0
 331 685 358 680 401 666 c 0
 426 659 443 655 452 655 c 0
 473 655 487 663 496 681 c 1
 526 681 l 1
 486 480 l 1
 459 484 l 1
 446 601 407 650 327 650 c 0
 263 650 223 609 223 545 c 0
 223 500 238 478 300 431 c 0
 422 338 468 271 468 185 c 0
 468 60 379 -18 236 -18 c 0
 225 -18 217 -18 202 -16 c 1xfa
EndSplineSet
Ligature: 0 0 'liga' S uni0327
EndChar
StartChar: Tcaron
Encoding: 297 356 191
Width: 611
Flags: W
HStem: 0 25<50 381 357.667 381> 634 35<99 469.876>
DStem: 303 634 449 634 155 97 309 128
Fore
600 900 m 1
 438 726 l 1
 356 726 l 1
 268 900 l 1
 318 900 l 1
 409 803 l 1
 544 900 l 1
 600 900 l 1
650 669 m 1
 614 477 l 1
 587 479 l 1
 582 590 543 633 449 634 c 1
 309 128 l 2
 302 102 298 81 298 66 c 0
 298 34 311 28 381 25 c 1
 381 0 l 1
 50 0 l 1
 50 25 l 1
 64 25 l 2
 115 25 141 46 155 97 c 2
 303 634 l 1
 201 632 138 591 86 491 c 1
 61 498 l 1
 99 669 l 1
 650 669 l 1
EndSplineSet
Ligature: 0 0 'liga' T uni030C
EndChar
StartChar: Udieresis
Encoding: 298 220 192
Width: 722
Flags: W
HStem: -18 56<290 327> 640 29<98 129> 732 130<343.208 357 566 578>
VStem: 67 138<137 159> 290 130<785.399 799> 502 130<785.399 799>
DStem: 156 529 315 572 100 323 233 272 597 491 642 491 539 282 576 263
Fore
354 862 m 0
 390 862 420 832 420 796 c 0
 420 762 389 732 354 732 c 0
 320 732 290 762 290 796 c 0
 290 832 319 862 354 862 c 0
566 862 m 0
 602 862 632 832 632 796 c 0
 632 762 601 732 566 732 c 0
 532 732 502 762 502 796 c 0
 502 832 531 862 566 862 c 0
744 669 m 1
 744 644 l 1
 689 633 682 623 642 491 c 1
 576 263 l 2
 545 155 521 101 487 62 c 0
 442 9 375 -18 290 -18 c 0
 159 -18 67 50 67 148 c 0
 67 181 79 243 100 323 c 1
 156 529 l 2
 165 562 171 593 171 605 c 0
 171 627 161 635 129 640 c 0
 125 640 112 642 98 644 c 1
 98 669 l 1
 409 669 l 1
 409 644 l 1
 347 641 332 629 315 572 c 1
 233 272 l 2
 208 181 205 166 205 139 c 0
 205 76 251 38 327 38 c 0
 382 38 426 58 460 98 c 0
 490 135 512 185 539 282 c 2
 597 491 l 1
 608 532 616 571 616 588 c 0
 616 623 593 639 536 644 c 1
 536 669 l 1
 744 669 l 1
EndSplineSet
KernsSLIF: 114 -32 0 0 46 -41 0 0 112 -30 0 0 110 -39 0 0 109 -35 0 0 44 -40 0 0 98 1 0 0 65 -65 0 0
Ligature: 0 0 'liga' U uni0308
EndChar
StartChar: Uacute
Encoding: 299 218 193
Width: 722
Flags: W
HStem: -18 56<290 327> 640 29<98 129>
VStem: 67 138<137 159>
DStem: 156 529 315 572 100 323 233 272 597 491 642 491 539 282 576 263
Fore
409 723 m 1
 360 723 l 1
 482 854 l 2
 517 892 534 904 552 904 c 0
 578 904 600 882 600 857 c 0
 600 838 591 827 561 810 c 2
 409 723 l 1
744 669 m 1
 744 644 l 1
 689 633 682 623 642 491 c 1
 576 263 l 2
 545 155 521 101 487 62 c 0
 442 9 375 -18 290 -18 c 0
 159 -18 67 50 67 148 c 0
 67 181 79 243 100 323 c 1
 156 529 l 2
 165 562 171 593 171 605 c 0
 171 627 161 635 129 640 c 0
 125 640 112 642 98 644 c 1
 98 669 l 1
 409 669 l 1
 409 644 l 1
 347 641 332 629 315 572 c 1
 233 272 l 2
 208 181 205 166 205 139 c 0
 205 76 251 38 327 38 c 0
 382 38 426 58 460 98 c 0
 490 135 512 185 539 282 c 2
 597 491 l 1
 608 532 616 571 616 588 c 0
 616 623 593 639 536 644 c 1
 536 669 l 1
 744 669 l 1
EndSplineSet
KernsSLIF: 114 -32 0 0 46 -41 0 0 112 -30 0 0 110 -39 0 0 109 -35 0 0 44 -40 0 0 65 -65 0 0
Ligature: 0 0 'liga' U acutecomb
EndChar
StartChar: Ugrave
Encoding: 300 217 194
Width: 722
Flags: W
HStem: -18 56<290 327> 640 29<98 129>
VStem: 67 138<137 159>
DStem: 156 529 315 572 100 323 233 272 597 491 642 491 539 282 576 263
Fore
551 723 m 1
 506 723 l 1
 373 812 l 2
 351 827 339 844 339 859 c 0
 339 883 360 904 384 904 c 0
 403 904 424 891 440 870 c 2
 551 723 l 1
744 669 m 1
 744 644 l 1
 689 633 682 623 642 491 c 1
 576 263 l 2
 545 155 521 101 487 62 c 0
 442 9 375 -18 290 -18 c 0
 159 -18 67 50 67 148 c 0
 67 181 79 243 100 323 c 1
 156 529 l 2
 165 562 171 593 171 605 c 0
 171 627 161 635 129 640 c 0
 125 640 112 642 98 644 c 1
 98 669 l 1
 409 669 l 1
 409 644 l 1
 347 641 332 629 315 572 c 1
 233 272 l 2
 208 181 205 166 205 139 c 0
 205 76 251 38 327 38 c 0
 382 38 426 58 460 98 c 0
 490 135 512 185 539 282 c 2
 597 491 l 1
 608 532 616 571 616 588 c 0
 616 623 593 639 536 644 c 1
 536 669 l 1
 744 669 l 1
EndSplineSet
KernsSLIF: 65 -65 0 0
Ligature: 0 0 'liga' U gravecomb
EndChar
StartChar: Ucircumflex
Encoding: 301 219 195
Width: 722
Flags: W
HStem: -18 56<290 327> 640 29<98 129>
VStem: 67 138<137 159>
DStem: 156 529 315 572 100 323 233 272 597 491 642 491 539 282 576 263
Fore
571 723 m 1
 483 818 l 1
 352 723 l 1
 295 723 l 1
 455 897 l 1
 536 897 l 1
 622 723 l 1
 571 723 l 1
744 669 m 1
 744 644 l 1
 689 633 682 623 642 491 c 1
 576 263 l 2
 545 155 521 101 487 62 c 0
 442 9 375 -18 290 -18 c 0
 159 -18 67 50 67 148 c 0
 67 181 79 243 100 323 c 1
 156 529 l 2
 165 562 171 593 171 605 c 0
 171 627 161 635 129 640 c 0
 125 640 112 642 98 644 c 1
 98 669 l 1
 409 669 l 1
 409 644 l 1
 347 641 332 629 315 572 c 1
 233 272 l 2
 208 181 205 166 205 139 c 0
 205 76 251 38 327 38 c 0
 382 38 426 58 460 98 c 0
 490 135 512 185 539 282 c 2
 597 491 l 1
 608 532 616 571 616 588 c 0
 616 623 593 639 536 644 c 1
 536 669 l 1
 744 669 l 1
EndSplineSet
KernsSLIF: 65 -65 0 0
Ligature: 0 0 'liga' U uni0302
EndChar
StartChar: Uring
Encoding: 302 366 196
Width: 722
Flags: W
HStem: -18 56<290 327> 640 29<98 129> 750 48<418 436> 916 48<418 436>
VStem: 67 138<137 159> 321 48<854 863> 486 48<845 863>
DStem: 156 529 315 572 100 323 233 272 597 491 642 491 539 282 576 263
Fore
428 964 m 0
 486 964 534 916 534 857 c 0
 534 798 486 750 427 750 c 0
 368 750 321 799 321 859 c 0
 321 916 370 964 428 964 c 0
426 916 m 0
 396 916 369 888 369 857 c 0
 369 825 395 798 426 798 c 0
 459 798 486 824 486 856 c 0
 486 889 459 916 426 916 c 0
744 669 m 1
 744 644 l 1
 689 633 682 623 642 491 c 1
 576 263 l 2
 545 155 521 101 487 62 c 0
 442 9 375 -18 290 -18 c 0
 159 -18 67 50 67 148 c 0
 67 181 79 243 100 323 c 1
 156 529 l 2
 165 562 171 593 171 605 c 0
 171 627 161 635 129 640 c 0
 125 640 112 642 98 644 c 1
 98 669 l 1
 409 669 l 1
 409 644 l 1
 347 641 332 629 315 572 c 1
 233 272 l 2
 208 181 205 166 205 139 c 0
 205 76 251 38 327 38 c 0
 382 38 426 58 460 98 c 0
 490 135 512 185 539 282 c 2
 597 491 l 1
 608 532 616 571 616 588 c 0
 616 623 593 639 536 644 c 1
 536 669 l 1
 744 669 l 1
EndSplineSet
Ligature: 0 0 'liga' U uni030A
EndChar
StartChar: Uhungarumlaut
Encoding: 303 368 197
Width: 722
Flags: W
HStem: -18 56<290 327> 640 29<98 129>
VStem: 67 138<137 159>
DStem: 156 529 315 572 100 323 233 272 597 491 642 491 539 282 576 263
Fore
353 726 m 1
 304 726 l 1
 426 857 l 2
 461 895 478 907 496 907 c 0
 522 907 544 885 544 860 c 0
 544 841 535 830 505 813 c 2
 353 726 l 1
542 726 m 1
 493 726 l 1
 615 857 l 2
 650 895 667 907 685 907 c 0
 711 907 733 885 733 860 c 0
 733 841 724 830 694 813 c 2
 542 726 l 1
744 669 m 1
 744 644 l 1
 689 633 682 623 642 491 c 1
 576 263 l 2
 545 155 521 101 487 62 c 0
 442 9 375 -18 290 -18 c 0
 159 -18 67 50 67 148 c 0
 67 181 79 243 100 323 c 1
 156 529 l 2
 165 562 171 593 171 605 c 0
 171 627 161 635 129 640 c 0
 125 640 112 642 98 644 c 1
 98 669 l 1
 409 669 l 1
 409 644 l 1
 347 641 332 629 315 572 c 1
 233 272 l 2
 208 181 205 166 205 139 c 0
 205 76 251 38 327 38 c 0
 382 38 426 58 460 98 c 0
 490 135 512 185 539 282 c 2
 597 491 l 1
 608 532 616 571 616 588 c 0
 616 623 593 639 536 644 c 1
 536 669 l 1
 744 669 l 1
EndSplineSet
Ligature: 0 0 'liga' U uni030B
EndChar
StartChar: Yacute
Encoding: 304 221 198
Width: 611
Flags: W
HStem: 0 25<73 86.8 373.333 395> 644 25<73 356 301 356 451 477.5>
DStem: 234 313 378 308 174 97 326 117 492 538 568 575 363 352 378 308
Fore
350 723 m 1
 301 723 l 1
 423 854 l 2
 458 892 475 904 493 904 c 0
 519 904 541 882 541 857 c 0
 541 838 532 827 502 810 c 2
 350 723 l 1
234 313 m 1
 146 581 l 1
 127 634 124 637 73 644 c 1
 73 669 l 1
 356 669 l 1
 356 644 l 1
 301 643 286 635 286 607 c 0
 286 590 296 554 319 488 c 0
 322 478 329 458 338 429 c 0
 341 418 356 374 363 352 c 1
 492 538 l 2
 512 567 518 580 518 598 c 0
 518 633 504 642 451 644 c 1
 451 669 l 1
 659 669 l 1
 659 644 l 1
 621 636 602 621 568 575 c 1
 378 308 l 1
 326 117 l 2
 320 94 318 84 318 72 c 0
 318 35 330 28 395 25 c 1
 395 0 l 1
 73 0 l 1
 73 25 l 1
 142 30 156 40 174 97 c 1
 234 313 l 1
EndSplineSet
Ligature: 0 0 'liga' Y acutecomb
EndChar
StartChar: Zacute
Encoding: 305 377 199
Width: 611
Flags: W
HStem: 0 35<156 495> 634 35<122 422>
DStem: 423 634 590 640 -11 29 156 35
Fore
327 726 m 1
 278 726 l 1
 400 857 l 2
 435 895 452 907 470 907 c 0
 496 907 518 885 518 860 c 0
 518 841 509 830 479 813 c 2
 327 726 l 1
554 194 m 1
 495 0 l 1
 -11 0 l 1
 -11 29 l 1
 423 634 l 1
 345 634 l 2
 235 634 172 597 93 487 c 1
 65 491 l 1
 122 669 l 1
 590 669 l 1
 590 640 l 1
 156 35 l 1
 226 35 l 2
 314 35 373 49 418 80 c 0
 458 107 496 149 527 199 c 1
 554 194 l 1
EndSplineSet
Ligature: 0 0 'liga' Z acutecomb
EndChar
StartChar: Zcaron
Encoding: 306 381 200
Width: 611
Flags: W
HStem: 0 35<156 495> 634 35<122 422>
DStem: 423 634 590 640 -11 29 156 35
Fore
551 897 m 1
 389 723 l 1
 307 723 l 1
 219 897 l 1
 269 897 l 1
 360 800 l 1
 495 897 l 1
 551 897 l 1
554 194 m 1
 495 0 l 1
 -11 0 l 1
 -11 29 l 1
 423 634 l 1
 345 634 l 2
 235 634 172 597 93 487 c 1
 65 491 l 1
 122 669 l 1
 590 669 l 1
 590 640 l 1
 156 35 l 1
 226 35 l 2
 314 35 373 49 418 80 c 0
 458 107 496 149 527 199 c 1
 554 194 l 1
EndSplineSet
Ligature: 0 0 'liga' Z uni030C
EndChar
StartChar: Zdotaccent
Encoding: 307 379 201
Width: 611
Flags: W
HStem: 0 35<156 495> 634 35<122 422> 735 130<366 374>
VStem: 302 130<788.399 802>
DStem: 423 634 590 640 -11 29 156 35
Fore
366 865 m 0
 402 865 432 835 432 799 c 0
 432 765 401 735 366 735 c 0
 332 735 302 765 302 799 c 0
 302 835 331 865 366 865 c 0
554 194 m 1
 495 0 l 1
 -11 0 l 1
 -11 29 l 1
 423 634 l 1
 345 634 l 2
 235 634 172 597 93 487 c 1
 65 491 l 1
 122 669 l 1
 590 669 l 1
 590 640 l 1
 156 35 l 1
 226 35 l 2
 314 35 373 49 418 80 c 0
 458 107 496 149 527 199 c 1
 554 194 l 1
EndSplineSet
Ligature: 0 0 'liga' Z uni0307
EndChar
StartChar: Amacron
Encoding: 308 256 202
Width: 667
Flags: W
HStem: 0 25<129 129 289 299.667 579.8 593> 208 40<161 353> 663 20G<388 413> 763 70<264 574>
DStem: 309 491 413 683 346 248 509 111 388 683 309 491 16 95 161 248 388 683 138 208 16 95 79 106
Fore
590 833 m 1
 574 763 l 1
 248 763 l 1
 265 833 l 1
 590 833 l 1
593 25 m 1
 593 0 l 1
 289 0 l 1
 289 25 l 1
 353 31 368 42 368 84 c 0
 368 97 366 117 360 156 c 0
 359 163 356 184 353 208 c 1
 138 208 l 1
 79 106 l 2
 69 89 64 73 64 60 c 0
 64 36 83 25 129 25 c 1
 129 0 l 1
 -67 0 l 1
 -67 25 l 1
 -31 33 -16 46 16 95 c 1
 388 683 l 1
 413 683 l 1
 509 111 l 1
 522 35 527 30 593 25 c 1
161 248 m 1
 346 248 l 1
 309 491 l 1
 161 248 l 1
EndSplineSet
Ligature: 0 0 'liga' A uni0304
EndChar
StartChar: Tcommaaccent
Encoding: 309 354 203
Width: 611
Flags: W
HStem: 0 25<50 381 357.667 381> 634 35<99 469.876>
VStem: 128 141<-128 -106>
DStem: 303 634 449 634 155 97 309 128
Fore
650 669 m 1
 614 477 l 1
 587 479 l 1
 582 590 543 633 449 634 c 1
 309 128 l 2
 302 102 298 81 298 66 c 0
 298 34 311 28 381 25 c 1
 381 0 l 1
 50 0 l 1
 50 25 l 1
 64 25 l 2
 115 25 141 46 155 97 c 2
 303 634 l 1
 201 632 138 591 86 491 c 1
 61 498 l 1
 99 669 l 1
 650 669 l 1
97 -324 m 1
 85 -303 l 1
 156 -265 191 -230 191 -198 c 0
 191 -185 184 -176 164 -163 c 0
 137 -144 128 -130 128 -106 c 0
 128 -68 155 -40 192 -40 c 0
 238 -40 269 -75 269 -128 c 0
 269 -201 201 -278 97 -324 c 1
EndSplineSet
Ligature: 0 0 'liga' T uni0327
EndChar
StartChar: Ydieresis
Encoding: 310 376 204
Width: 611
Flags: W
HStem: 0 25<73 86.8 373.333 395> 644 25<73 356 301 356 451 477.5> 732 130<296 298 508 520>
VStem: 232 130<785.399 801> 444 130<785.399 801>
DStem: 234 313 378 308 174 97 326 117 492 538 568 575 363 352 378 308
Fore
296 862 m 0
 332 862 362 832 362 796 c 0
 362 762 331 732 296 732 c 0
 262 732 232 762 232 796 c 0
 232 832 261 862 296 862 c 0
508 862 m 0
 544 862 574 832 574 796 c 0
 574 762 543 732 508 732 c 0
 474 732 444 762 444 796 c 0
 444 832 473 862 508 862 c 0
234 313 m 1
 146 581 l 1
 127 634 124 637 73 644 c 1
 73 669 l 1
 356 669 l 1
 356 644 l 1
 301 643 286 635 286 607 c 0
 286 590 296 554 319 488 c 0
 322 478 329 458 338 429 c 0
 341 418 356 374 363 352 c 1
 492 538 l 2
 512 567 518 580 518 598 c 0
 518 633 504 642 451 644 c 1
 451 669 l 1
 659 669 l 1
 659 644 l 1
 621 636 602 621 568 575 c 1
 378 308 l 1
 326 117 l 2
 320 94 318 84 318 72 c 0
 318 35 330 28 395 25 c 1
 395 0 l 1
 73 0 l 1
 73 25 l 1
 142 30 156 40 174 97 c 1
 234 313 l 1
EndSplineSet
Ligature: 0 0 'liga' Y uni0308
EndChar
StartChar: Emacron
Encoding: 311 274 205
Width: 667
Flags: W
HStem: 0 32<238 530> 338 32<269 297> 637 32<116 425> 763 70<256 566>
DStem: 179 546 339 593 56 97 278 370 179 546 269 338 56 97 213 129
Fore
589 194 m 1
 530 0 l 1
 -24 0 l 1
 -24 25 l 1
 28 33 40 44 56 97 c 1
 179 546 l 2
 185 568 189 591 189 606 c 0
 189 627 178 635 147 639 c 0
 142 640 130 642 116 644 c 1
 116 669 l 1
 656 669 l 1
 613 479 l 1
 586 484 l 1
 586 546 579 571 556 595 c 0
 529 622 475 637 402 637 c 0
 361 637 349 628 339 593 c 1
 278 370 l 1
 410 369 436 382 483 476 c 1
 511 472 l 1
 437 199 l 1
 409 204 l 1
 412 223 413 234 413 248 c 0
 413 317 383 336 269 338 c 1
 213 129 l 1
 211 123 l 1
 210 115 208 109 206 104 c 0
 201 84 198 73 198 66 c 0
 198 42 216 32 259 32 c 0
 345 32 413 51 469 90 c 0
 508 117 529 142 564 199 c 1
 589 194 l 1
582 833 m 1
 566 763 l 1
 240 763 l 1
 257 833 l 1
 582 833 l 1
EndSplineSet
Ligature: 0 0 'liga' E uni0304
EndChar
StartChar: Imacron
Encoding: 312 298 206
Width: 389
Flags: W
HStem: 0 25<-24 -15.8333 253 272> 644 25<405.5 414> 763 70<143 453>
DStem: 179 546 332 572 56 97 218 152
Fore
272 25 m 1
 272 0 l 1
 -24 0 l 1
 -24 25 l 1
 25 31 40 45 56 97 c 1
 179 546 l 2
 184 564 189 595 189 607 c 0
 189 627 179 635 148 639 c 0
 143 640 130 642 116 644 c 1
 116 669 l 1
 414 669 l 1
 414 644 l 1
 363 638 348 625 332 572 c 1
 218 152 l 2
 205 103 200 80 200 65 c 0
 200 37 215 28 272 25 c 1
469 833 m 1
 453 763 l 1
 127 763 l 1
 144 833 l 1
 469 833 l 1
EndSplineSet
Ligature: 0 0 'liga' I uni0304
EndChar
StartChar: Iogonek
Encoding: 313 302 207
Width: 389
Flags: W
HStem: -173 69<266 307> 0 25<-32 -23.8333> 644 25<397.5 406>
VStem: 160 84<-92 -45>
DStem: 171 546 324 572 48 97 210 152
Fore
264 25 m 1
 264 0 l 1
 251 -11 244 -27 244 -45 c 0
 244 -81 268 -104 307 -104 c 0
 323 -104 333 -101 353 -91 c 0
 361 -86 362 -86 367 -84 c 1
 389 -98 l 1
 364 -144 316 -173 266 -173 c 0
 205 -173 160 -139 160 -92 c 0
 160 -65 169 -45 203 0 c 1
 -32 0 l 1
 -32 25 l 1
 17 31 32 45 48 97 c 1
 171 546 l 2
 176 564 181 595 181 607 c 0
 181 627 171 635 140 639 c 0
 135 640 122 642 108 644 c 1
 108 669 l 1
 406 669 l 1
 406 644 l 1
 355 638 340 625 324 572 c 1
 210 152 l 2
 197 103 192 80 192 65 c 0
 192 37 207 28 264 25 c 1
EndSplineSet
Ligature: 0 0 'liga' I uni0328
EndChar
StartChar: Kcommaaccent
Encoding: 314 310 208
Width: 667
Flags: W
HStem: 0 25<-21 -12.8333 255 268 332 344 602.5 612> 642 27<491 512>
VStem: 156 141<-128 -106>
DStem: 181 546 335 572 59 97 273 344 181 546 271 337 59 97 204 88 271 337 392 398 384 95 549 60
Fore
392 398 m 1
 549 60 l 2
 560 36 574 29 612 25 c 1
 612 0 l 1
 332 0 l 1
 332 25 l 1
 344 26 355 27 359 28 c 0
 385 30 397 38 397 52 c 0
 397 63 393 75 384 95 c 2
 271 337 l 1
 204 88 l 1
 203 83 202 77 202 71 c 0
 202 38 216 29 268 25 c 1
 268 0 l 1
 -21 0 l 1
 -21 25 l 1
 28 31 43 44 59 97 c 1
 181 546 l 2
 188 572 192 593 192 604 c 0
 192 626 181 635 150 639 c 0
 145 640 133 642 119 644 c 1
 119 669 l 1
 429 669 l 1
 429 644 l 1
 370 639 351 624 335 572 c 1
 273 344 l 1
 479 520 547 588 547 617 c 0
 547 632 537 639 512 642 c 0
 509 642 500 643 491 644 c 1
 491 669 l 1
 702 669 l 1
 702 644 l 1
 659 638 651 635 608 596 c 2
 392 398 l 1
125 -324 m 1
 113 -303 l 1
 184 -265 219 -230 219 -198 c 0
 219 -185 212 -176 192 -163 c 0
 165 -144 156 -130 156 -106 c 0
 156 -68 183 -40 220 -40 c 0
 266 -40 297 -75 297 -128 c 0
 297 -201 229 -278 125 -324 c 1
EndSplineSet
Ligature: 0 0 'liga' K uni0327
EndChar
StartChar: Lcommaaccent
Encoding: 315 315 209
Width: 611
Flags: W
HStem: 0 32<249 531> 644 25<418.5 435>
VStem: 128 141<-128 -106>
DStem: 181 546 334 572 58 97 205 94
Fore
590 194 m 1
 531 0 l 1
 -22 0 l 1
 -22 25 l 1
 27 32 42 45 58 97 c 1
 181 546 l 2
 186 564 191 595 191 607 c 0
 191 627 181 635 150 639 c 0
 145 640 132 642 118 644 c 1
 118 669 l 1
 435 669 l 1
 435 644 l 1
 369 640 350 627 334 572 c 1
 205 94 l 2
 202 83 200 70 200 62 c 0
 200 41 220 32 264 32 c 0
 346 32 417 52 471 90 c 0
 510 118 532 143 566 199 c 1
 590 194 l 1
97 -324 m 1
 85 -303 l 1
 156 -265 191 -230 191 -198 c 0
 191 -185 184 -176 164 -163 c 0
 137 -144 128 -130 128 -106 c 0
 128 -68 155 -40 192 -40 c 0
 238 -40 269 -75 269 -128 c 0
 269 -201 201 -278 97 -324 c 1
EndSplineSet
Ligature: 0 0 'liga' L uni0327
EndChar
StartChar: Ncommaaccent
Encoding: 316 325 210
Width: 722
Flags: W
HStem: 0 25<169.2 181> 644 25<111 122 539 550.8>
VStem: 184 141<-128 -106>
DStem: 194 589 218 534 74 178 119 178 218 534 306 669 475 -15 521 204 601 491 646 491 521 204 503 -15
Fore
306 669 m 1
 521 204 l 1
 601 491 l 2
 612 531 619 567 619 585 c 0
 619 623 598 639 539 644 c 1
 539 669 l 1
 748 669 l 1
 748 644 l 1
 690 631 685 623 646 491 c 1
 503 -15 l 1
 475 -15 l 1
 218 534 l 1
 119 178 l 1
 108 137 101 102 101 84 c 0
 101 45 122 30 181 25 c 1
 181 0 l 1
 -27 0 l 1
 -27 25 l 1
 28 36 35 47 74 178 c 1
 194 589 l 1
 175 633 166 639 111 644 c 1
 111 669 l 1
 306 669 l 1
153 -324 m 1
 141 -303 l 1
 212 -265 247 -230 247 -198 c 0
 247 -185 240 -176 220 -163 c 0
 193 -144 184 -130 184 -106 c 0
 184 -68 211 -40 248 -40 c 0
 294 -40 325 -75 325 -128 c 0
 325 -201 257 -278 153 -324 c 1
EndSplineSet
Ligature: 0 0 'liga' N uni0327
EndChar
StartChar: Omacron
Encoding: 317 332 211
Width: 722
Flags: W
HStem: -18 34<261 288> 651 34<427.95 460> 763 70<302 612>
VStem: 27 144<137 221> 547 144<454 531>
Fore
628 833 m 1
 612 763 l 1
 286 763 l 1
 303 833 l 1
 628 833 l 1
449 685 m 0
 588 685 691 587 691 454 c 0
 691 308 609 149 485 58 c 0
 418 8 342 -18 263 -18 c 0
 122 -18 27 78 27 221 c 0
 27 360 113 521 234 609 c 0
 302 659 376 685 449 685 c 0
445 651 m 0
 381 651 328 610 277 520 c 0
 222 424 171 239 171 137 c 0
 171 63 210 16 273 16 c 0
 327 16 372 46 418 113 c 0
 485 211 547 411 547 531 c 0
 547 603 506 651 445 651 c 0
EndSplineSet
Ligature: 0 0 'liga' O uni0304
EndChar
StartChar: Rcommaaccent
Encoding: 318 342 212
Width: 667
Flags: W
HStem: 0 25<-29 -20.8333 252.5 267 590.8 602> 331 32<273 293> 637 32<111 389>
VStem: 156 141<-128 -106> 472 151<523 544>
DStem: 174 546 333 593 51 97 273 363 174 546 264 331 51 97 209 138 293 331 431 343 400 0 514 97
Fore
111 644 m 1
 111 669 l 1
 387 669 l 2
 545 669 623 622 623 526 c 0
 623 470 594 419 543 385 c 0
 511 364 486 354 431 343 c 1
 514 97 l 1
 536 38 546 30 602 25 c 1
 602 0 l 1
 400 0 l 1
 293 331 l 1
 264 331 l 1
 209 138 l 2
 200 107 195 81 195 67 c 0
 195 37 209 29 267 25 c 1
 267 0 l 1
 -29 0 l 1
 -29 25 l 1
 20 31 35 45 51 97 c 1
 174 546 l 1
 179 563 184 595 184 607 c 0
 184 627 174 635 143 639 c 0
 138 640 125 642 111 644 c 1
333 593 m 1
 273 363 l 1
 335 364 374 371 400 388 c 0
 443 415 472 476 472 542 c 0
 472 602 439 637 382 637 c 0
 351 637 342 629 333 593 c 1
125 -324 m 1
 113 -303 l 1
 184 -265 219 -230 219 -198 c 0
 219 -185 212 -176 192 -163 c 0
 165 -144 156 -130 156 -106 c 0
 156 -68 183 -40 220 -40 c 0
 266 -40 297 -75 297 -128 c 0
 297 -201 229 -278 125 -324 c 1
EndSplineSet
Ligature: 0 0 'liga' R uni0327
EndChar
StartChar: Gcommaaccent
Encoding: 319 290 213
Width: 722
Flags: W
HStem: -18 38<317 343> 304 26<419 429.75 692.75 706> 649 36<446 470>
VStem: 21 156<208 251> 184 141<-128 -106>
Fore
706 330 m 1
 706 304 l 1
 653 300 646 292 627 222 c 1
 579 41 l 1
 551 28 l 2
 494 2 394 -18 317 -18 c 0
 142 -18 21 92 21 251 c 0
 21 404 108 555 240 632 c 0
 301 667 372 685 448 685 c 0
 494 685 527 679 572 664 c 0
 591 657 599 655 608 655 c 0
 628 655 639 663 650 685 c 1
 681 685 l 1
 630 464 l 1
 601 468 l 1
 599 536 592 565 570 598 c 0
 548 630 509 649 462 649 c 0
 417 649 374 633 336 601 c 0
 245 524 177 357 177 208 c 0
 177 86 235 20 341 20 c 0
 380 20 421 33 435 50 c 0
 439 55 439 55 462 133 c 0
 489 225 493 242 493 268 c 0
 493 277 487 288 481 292 c 0
 470 298 462 300 419 304 c 1
 419 330 l 1
 706 330 l 1
153 -324 m 1
 141 -303 l 1
 212 -265 247 -230 247 -198 c 0
 247 -185 240 -176 220 -163 c 0
 193 -144 184 -130 184 -106 c 0
 184 -68 211 -40 248 -40 c 0
 294 -40 325 -75 325 -128 c 0
 325 -201 257 -278 153 -324 c 1
EndSplineSet
Ligature: 0 0 'liga' G uni0327
EndChar
StartChar: Umacron
Encoding: 320 362 214
Width: 722
Flags: W
HStem: -18 56<290 327> 640 29<98 129> 763 70<302 612>
VStem: 67 138<137 159>
DStem: 156 529 315 572 100 323 233 272 597 491 642 491 539 282 576 263
Fore
628 833 m 1
 612 763 l 1
 286 763 l 1
 303 833 l 1
 628 833 l 1
744 669 m 1
 744 644 l 1
 689 633 682 623 642 491 c 1
 576 263 l 2
 545 155 521 101 487 62 c 0
 442 9 375 -18 290 -18 c 0
 159 -18 67 50 67 148 c 0
 67 181 79 243 100 323 c 1
 156 529 l 2
 165 562 171 593 171 605 c 0
 171 627 161 635 129 640 c 0
 125 640 112 642 98 644 c 1
 98 669 l 1
 409 669 l 1
 409 644 l 1
 347 641 332 629 315 572 c 1
 233 272 l 2
 208 181 205 166 205 139 c 0
 205 76 251 38 327 38 c 0
 382 38 426 58 460 98 c 0
 490 135 512 185 539 282 c 2
 597 491 l 1
 608 532 616 571 616 588 c 0
 616 623 593 639 536 644 c 1
 536 669 l 1
 744 669 l 1
EndSplineSet
Ligature: 0 0 'liga' U uni0304
EndChar
StartChar: Uogonek
Encoding: 321 370 215
Width: 722
Flags: W
HStem: -173 69<481 521> -18 56<289 327> 640 29<98 129>
VStem: 67 138<130 150> 374 84<-92 -42>
DStem: 156 529 315 572 100 323 233 272 597 491 642 491 539 282 576 263
Fore
536 669 m 1
 744 669 l 1
 744 644 l 1
 689 633 682 623 642 491 c 1
 576 263 l 1
 557 199 543 158 533 135 c 0
 528 124 519 110 507 92 c 2
 487 62 l 2
 470 36 458 -6 458 -42 c 0
 458 -82 481 -104 521 -104 c 0
 537 -104 547 -101 567 -91 c 0
 576 -87 577 -86 582 -84 c 1
 604 -98 l 1
 579 -144 531 -173 481 -173 c 0
 419 -173 374 -139 374 -92 c 0
 374 -62 386 -39 428 13 c 1
 386 -8 342 -18 289 -18 c 0
 159 -18 67 50 67 148 c 0
 67 181 79 243 100 323 c 1
 156 529 l 2
 165 562 171 593 171 605 c 0
 171 627 161 635 129 640 c 0
 125 640 112 642 98 644 c 1
 98 669 l 1
 409 669 l 1
 409 644 l 1
 347 641 332 629 315 572 c 1
 233 272 l 2
 208 181 205 166 205 139 c 0
 205 76 251 38 327 38 c 0
 382 38 426 58 460 98 c 0
 490 135 512 185 539 282 c 2
 597 491 l 1
 608 532 616 571 616 588 c 0
 616 623 593 639 536 644 c 1
 536 669 l 1
EndSplineSet
Ligature: 0 0 'liga' U uni0328
EndChar
StartChar: adieresis
Encoding: 322 228 216
Width: 500
Flags: W
HStem: -13 71<87 147> 442 20G<190.5 273.5> 525 130<193 204 405 412>
VStem: -21 123<99.9685 129> 129 130<578.399 595> 237 113<52 72> 341 130<578.399 595>
Fore
193 655 m 0xf8
 229 655 259 625 259 589 c 0
 259 555 228 525 193 525 c 0
 159 525 129 555 129 589 c 0
 129 625 158 655 193 655 c 0xf8
405 655 m 0
 441 655 471 625 471 589 c 0
 471 555 440 525 405 525 c 0
 371 525 341 555 341 589 c 0xf2
 341 625 370 655 405 655 c 0
434 127 m 1
 455 112 l 1
 398 25 351 -14 304 -14 c 0
 267 -14 237 15 237 52 c 0
 237 66 240 80 251 119 c 1
 194 24 148 -13 87 -13 c 0
 22 -13 -21 38 -21 114 c 0
 -21 270 129 462 252 462 c 0
 295 462 317 441 326 390 c 1
 344 449 l 1
 455 456 l 1
 384 220 l 2
 360 139 350 97 350 72 c 0xf4
 350 63 355 57 362 57 c 0
 378 57 393 72 434 127 c 1
266 420 m 0
 239 422 206 391 176 338 c 0
 135 264 102 164 102 112 c 0
 102 81 121 58 147 58 c 0
 174 58 204 85 231 133 c 0
 269 201 303 314 303 373 c 0
 303 400 288 418 266 420 c 0
EndSplineSet
KernsSLIF: 121 -3 0 0 119 -5 0 0 118 -5 0 0
Ligature: 0 0 'liga' a uni0308
EndChar
StartChar: aacute
Encoding: 323 225 217
Width: 500
Flags: W
HStem: -13 71<87 147> 442 20G<190.5 273.5>
VStem: -21 123<99.9685 129> 237 113<52 72>
Fore
272 516 m 1
 223 516 l 1
 345 647 l 2
 380 685 397 697 415 697 c 0
 441 697 463 675 463 650 c 0
 463 631 454 620 424 603 c 2
 272 516 l 1
434 127 m 1
 455 112 l 1
 398 25 351 -14 304 -14 c 0
 267 -14 237 15 237 52 c 0
 237 66 240 80 251 119 c 1
 194 24 148 -13 87 -13 c 0
 22 -13 -21 38 -21 114 c 0
 -21 270 129 462 252 462 c 0
 295 462 317 441 326 390 c 1
 344 449 l 1
 455 456 l 1
 384 220 l 2
 360 139 350 97 350 72 c 0
 350 63 355 57 362 57 c 0
 378 57 393 72 434 127 c 1
266 420 m 0
 239 422 206 391 176 338 c 0
 135 264 102 164 102 112 c 0
 102 81 121 58 147 58 c 0
 174 58 204 85 231 133 c 0
 269 201 303 314 303 373 c 0
 303 400 288 418 266 420 c 0
EndSplineSet
KernsSLIF: 121 -3 0 0 119 -5 0 0 118 -5 0 0
Ligature: 0 0 'liga' a acutecomb
EndChar
StartChar: agrave
Encoding: 324 224 218
Width: 500
Flags: W
HStem: -13 71<87 147> 442 20G<190.5 273.5>
VStem: -21 123<99.9685 129> 237 113<52 72>
Fore
380 516 m 1
 335 516 l 1
 202 605 l 2
 180 620 168 637 168 652 c 0
 168 676 189 697 213 697 c 0
 232 697 253 684 269 663 c 2
 380 516 l 1
434 127 m 1
 455 112 l 1
 398 25 351 -14 304 -14 c 0
 267 -14 237 15 237 52 c 0
 237 66 240 80 251 119 c 1
 194 24 148 -13 87 -13 c 0
 22 -13 -21 38 -21 114 c 0
 -21 270 129 462 252 462 c 0
 295 462 317 441 326 390 c 1
 344 449 l 1
 455 456 l 1
 384 220 l 2
 360 139 350 97 350 72 c 0
 350 63 355 57 362 57 c 0
 378 57 393 72 434 127 c 1
266 420 m 0
 239 422 206 391 176 338 c 0
 135 264 102 164 102 112 c 0
 102 81 121 58 147 58 c 0
 174 58 204 85 231 133 c 0
 269 201 303 314 303 373 c 0
 303 400 288 418 266 420 c 0
EndSplineSet
KernsSLIF: 121 -3 0 0 119 -5 0 0 118 -5 0 0
Ligature: 0 0 'liga' a gravecomb
EndChar
StartChar: acircumflex
Encoding: 325 226 219
Width: 500
Flags: W
HStem: -13 71<87 147> 442 20G<190.5 273.5> 670 20G<284 365>
VStem: -21 123<99.9685 129> 237 113<52 72>
Fore
400 516 m 1
 312 611 l 1
 181 516 l 1
 124 516 l 1
 284 690 l 1
 365 690 l 1
 451 516 l 1
 400 516 l 1
434 127 m 1
 455 112 l 1
 398 25 351 -14 304 -14 c 0
 267 -14 237 15 237 52 c 0
 237 66 240 80 251 119 c 1
 194 24 148 -13 87 -13 c 0
 22 -13 -21 38 -21 114 c 0
 -21 270 129 462 252 462 c 0
 295 462 317 441 326 390 c 1
 344 449 l 1
 455 456 l 1
 384 220 l 2
 360 139 350 97 350 72 c 0
 350 63 355 57 362 57 c 0
 378 57 393 72 434 127 c 1
266 420 m 0
 239 422 206 391 176 338 c 0
 135 264 102 164 102 112 c 0
 102 81 121 58 147 58 c 0
 174 58 204 85 231 133 c 0
 269 201 303 314 303 373 c 0
 303 400 288 418 266 420 c 0
EndSplineSet
Ligature: 0 0 'liga' a uni0302
EndChar
StartChar: abreve
Encoding: 326 259 220
Width: 500
Flags: W
HStem: -13 71<87 147> 442 20G<190.5 273.5> 516 72<282 307> 658 20G<154 197 431 470>
VStem: -21 123<99.9685 129> 237 113<52 72>
Fore
431 678 m 1
 470 678 l 1
 452 574 388 516 291 516 c 0
 198 516 154 564 154 665 c 2
 154 678 l 1
 197 678 l 1
 203 617 236 588 299 588 c 0
 364 588 400 612 431 678 c 1
434 127 m 1
 455 112 l 1
 398 25 351 -14 304 -14 c 0
 267 -14 237 15 237 52 c 0
 237 66 240 80 251 119 c 1
 194 24 148 -13 87 -13 c 0
 22 -13 -21 38 -21 114 c 0
 -21 270 129 462 252 462 c 0
 295 462 317 441 326 390 c 1
 344 449 l 1
 455 456 l 1
 384 220 l 2
 360 139 350 97 350 72 c 0
 350 63 355 57 362 57 c 0
 378 57 393 72 434 127 c 1
266 420 m 0
 239 422 206 391 176 338 c 0
 135 264 102 164 102 112 c 0
 102 81 121 58 147 58 c 0
 174 58 204 85 231 133 c 0
 269 201 303 314 303 373 c 0
 303 400 288 418 266 420 c 0
EndSplineSet
Ligature: 0 0 'liga' a uni0306
EndChar
StartChar: atilde
Encoding: 327 227 221
Width: 500
Flags: W
HStem: -13 71<87 147> 442 20G<190.5 273.5> 536 77<374 399> 580 75<220 248>
VStem: -21 123<99.9685 129> 237 113<52 72>
Fore
450 655 m 1xdc
 491 655 l 1xdc
 469 572 434 536 374 536 c 0xec
 355 536 343 539 317 549 c 2
 258 572 l 2
 245 577 231 580 220 580 c 0
 198 580 185 569 172 537 c 1
 132 537 l 1
 145 609 191 655 248 655 c 0xdc
 272 655 304 647 345 629 c 0
 371 618 388 613 399 613 c 0xec
 422 613 435 624 450 655 c 1xdc
434 127 m 1
 455 112 l 1
 398 25 351 -14 304 -14 c 0
 267 -14 237 15 237 52 c 0
 237 66 240 80 251 119 c 1
 194 24 148 -13 87 -13 c 0
 22 -13 -21 38 -21 114 c 0
 -21 270 129 462 252 462 c 0
 295 462 317 441 326 390 c 1
 344 449 l 1
 455 456 l 1
 384 220 l 2
 360 139 350 97 350 72 c 0
 350 63 355 57 362 57 c 0
 378 57 393 72 434 127 c 1
266 420 m 0
 239 422 206 391 176 338 c 0
 135 264 102 164 102 112 c 0
 102 81 121 58 147 58 c 0
 174 58 204 85 231 133 c 0
 269 201 303 314 303 373 c 0
 303 400 288 418 266 420 c 0
EndSplineSet
Ligature: 0 0 'liga' a tildecomb
EndChar
StartChar: aring
Encoding: 328 229 222
Width: 500
Flags: W
HStem: -13 71<87 147> 442 20G<190.5 273.5> 540 48<304 326> 706 48<305 326>
VStem: -21 123<99.9685 129> 210 48<641 651> 375 48<641 651>
Fore
317 754 m 0
 375 754 423 706 423 647 c 0
 423 588 375 540 316 540 c 0
 257 540 210 589 210 649 c 0
 210 706 259 754 317 754 c 0
315 706 m 0
 285 706 258 678 258 647 c 0
 258 615 284 588 315 588 c 0
 348 588 375 614 375 646 c 0
 375 679 348 706 315 706 c 0
434 127 m 1
 455 112 l 1
 398 25 351 -14 304 -14 c 0
 267 -14 237 15 237 52 c 0
 237 66 240 80 251 119 c 1
 194 24 148 -13 87 -13 c 0
 22 -13 -21 38 -21 114 c 0
 -21 270 129 462 252 462 c 0
 295 462 317 441 326 390 c 1
 344 449 l 1
 455 456 l 1
 384 220 l 2
 360 139 350 97 350 72 c 0
 350 63 355 57 362 57 c 0
 378 57 393 72 434 127 c 1
266 420 m 0
 239 422 206 391 176 338 c 0
 135 264 102 164 102 112 c 0
 102 81 121 58 147 58 c 0
 174 58 204 85 231 133 c 0
 269 201 303 314 303 373 c 0
 303 400 288 418 266 420 c 0
EndSplineSet
KernsSLIF: 121 -3 0 0 119 -5 0 0 118 -5 0 0
Ligature: 0 0 'liga' a uni030A
EndChar
StartChar: aogonek
Encoding: 329 261 223
Width: 500
Flags: W
HStem: -173 69<377 418> -13 71<87 147> 442 20G<190.5 273.5>
VStem: -21 123<99.9685 129> 237 113<52 72> 271 84<-92 -41>
Fore
434 127 m 1xf8
 455 112 l 1
 430 74 419 60 390 27 c 0
 362 -3 355 -18 355 -41 c 0
 355 -82 378 -104 418 -104 c 0
 433 -104 444 -101 464 -91 c 0
 472 -87 473 -86 478 -84 c 1
 500 -98 l 1
 475 -144 427 -173 377 -173 c 0
 316 -173 271 -139 271 -92 c 0xf4
 271 -67 278 -50 303 -14 c 1
 262 -10 237 15 237 52 c 0
 237 66 240 79 251 119 c 1
 194 24 148 -13 87 -13 c 0
 22 -13 -21 38 -21 114 c 0
 -21 270 129 462 252 462 c 0
 295 462 317 441 326 390 c 1
 344 449 l 1
 455 456 l 1
 384 220 l 2
 360 139 350 97 350 72 c 0
 350 63 355 57 362 57 c 0
 378 57 393 72 434 127 c 1xf8
266 420 m 0
 239 422 206 391 176 338 c 0
 135 264 102 164 102 112 c 0
 102 81 121 58 147 58 c 0
 174 58 204 85 231 133 c 0
 269 201 303 314 303 373 c 0
 303 400 288 418 266 420 c 0
EndSplineSet
Ligature: 0 0 'liga' a uni0328
EndChar
StartChar: cacute
Encoding: 330 263 224
Width: 444
Flags: W
HStem: -13 64<148 196> 429 33<266 280>
VStem: -5 128<124 148> 272 120<354 372>
Fore
253 516 m 1
 204 516 l 1
 326 647 l 2
 361 685 378 697 396 697 c 0
 422 697 444 675 444 650 c 0
 444 631 435 620 405 603 c 2
 253 516 l 1
318 141 m 1
 346 123 l 1
 311 73 295 54 269 32 c 0
 235 3 192 -13 148 -13 c 0
 58 -13 -5 49 -5 138 c 0
 -5 298 139 462 280 462 c 0
 346 462 392 425 392 372 c 0
 392 331 366 302 330 302 c 0
 297 302 272 324 272 354 c 0
 272 366 276 377 285 393 c 0
 291 402 293 408 293 412 c 0
 293 422 283 429 271 429 c 0
 241 429 211 405 185 358 c 0
 149 293 123 203 123 141 c 0
 123 87 153 51 196 51 c 0
 239 51 270 74 318 141 c 1
EndSplineSet
Ligature: 0 0 'liga' c acutecomb
EndChar
StartChar: ccaron
Encoding: 331 269 225
Width: 444
Flags: W
HStem: -13 64<148 196> 429 33<266 280> 670 20G<136 186 412 468>
VStem: -5 128<124 148> 272 120<354 372>
Fore
468 690 m 1
 306 516 l 1
 224 516 l 1
 136 690 l 1
 186 690 l 1
 277 593 l 1
 412 690 l 1
 468 690 l 1
318 141 m 1
 346 123 l 1
 311 73 295 54 269 32 c 0
 235 3 192 -13 148 -13 c 0
 58 -13 -5 49 -5 138 c 0
 -5 298 139 462 280 462 c 0
 346 462 392 425 392 372 c 0
 392 331 366 302 330 302 c 0
 297 302 272 324 272 354 c 0
 272 366 276 377 285 393 c 0
 291 402 293 408 293 412 c 0
 293 422 283 429 271 429 c 0
 241 429 211 405 185 358 c 0
 149 293 123 203 123 141 c 0
 123 87 153 51 196 51 c 0
 239 51 270 74 318 141 c 1
EndSplineSet
Ligature: 0 0 'liga' c uni030C
EndChar
StartChar: ccedilla
Encoding: 332 231 226
Width: 444
Flags: W
HStem: -218 41<65 88> -100 41<74 122> -13 64<148 196> 429 33<263 280>
VStem: -5 128<124 151> 121 91<-139 -129> 272 120<354 372>
DStem: 91 -4 130 -12 31 -92 96 -62
Fore
130 -12 m 1xfa
 96 -62 l 1
 106 -60 112 -59 122 -59 c 0
 174 -59 212 -89 212 -131 c 0
 212 -181 159 -218 88 -218 c 0
 52 -218 20 -211 -24 -193 c 1
 -2 -160 l 1
 26 -173 43 -177 65 -177 c 0
 99 -177 121 -161 121 -136 c 0xf6
 121 -114 103 -100 74 -100 c 0
 64 -100 56 -101 44 -104 c 1
 31 -92 l 1
 91 -4 l 1
 30 18 -5 70 -5 138 c 0
 -5 298 139 462 280 462 c 0
 347 462 392 425 392 372 c 0
 392 331 366 302 330 302 c 0
 297 302 272 324 272 354 c 0
 272 366 276 377 285 393 c 0
 291 402 293 408 293 412 c 0
 293 422 283 429 271 429 c 0
 241 429 212 405 185 358 c 0
 149 293 123 203 123 141 c 0
 123 87 153 51 196 51 c 0
 239 51 270 74 318 141 c 1
 346 123 l 1
 311 73 295 54 269 32 c 0
 236 3 192 -13 148 -13 c 0
 142 -13 137 -13 130 -12 c 1xfa
EndSplineSet
Ligature: 0 0 'liga' c uni0327
EndChar
StartChar: dcaron
Encoding: 333 271 227
Width: 644
Flags: W
HStem: -13 72<85 144> 442 20G<190 265.5> 643 27<308 320.5>
VStem: 240 109<51 71> 523 141<597 619>
Fore
427 131 m 1
 449 115 l 1
 394 27 349 -11 300 -11 c 0
 262 -11 240 12 240 51 c 0
 240 66 243 81 251 118 c 1
 194 23 148 -13 85 -13 c 0
 24 -13 -21 40 -21 112 c 0
 -21 269 129 462 251 462 c 0
 280 462 299 453 323 429 c 1
 341 497 l 1
 364 581 370 606 370 615 c 0
 370 633 355 643 329 643 c 2
 308 643 l 1
 308 670 l 1
 408 678 457 685 517 699 c 1
 406 294 l 2
 371 167 349 80 349 71 c 0
 349 65 355 59 360 59 c 0
 375 59 400 86 427 131 c 1
271 420 m 0
 241 422 205 390 173 333 c 0
 137 268 106 176 103 122 c 0
 101 87 119 59 144 59 c 0
 173 59 202 84 230 133 c 0
 264 196 308 328 308 370 c 0
 308 398 293 419 271 420 c 0
492 401 m 1
 480 422 l 1
 551 460 586 495 586 527 c 0
 586 540 579 549 559 562 c 0
 532 581 523 595 523 619 c 0
 523 657 550 685 587 685 c 0
 633 685 664 650 664 597 c 0
 664 524 596 447 492 401 c 1
EndSplineSet
Ligature: 0 0 'liga' d uni030C
EndChar
StartChar: edieresis
Encoding: 334 235 228
Width: 444
Flags: W
HStem: -13 64<156 200> 429 33<276 293> 525 130<165 167 377 379>
VStem: 5 130<123 148> 101 130<589 596> 306 92<375 395> 313 130<589 596>
Fore
165 655 m 0xe8
 201 655 231 625 231 589 c 0
 231 555 200 525 165 525 c 0
 131 525 101 555 101 589 c 0
 101 625 130 655 165 655 c 0xe8
377 655 m 0
 413 655 443 625 443 589 c 0
 443 555 412 525 377 525 c 0
 343 525 313 555 313 589 c 0xe2
 313 625 342 655 377 655 c 0
317 142 m 1
 346 125 l 1
 286 26 232 -13 156 -13 c 0
 69 -13 5 50 5 134 c 0
 5 299 149 462 293 462 c 0
 354 462 398 426 398 375 c 0
 398 340 379 302 344 270 c 0
 294 224 245 202 141 182 c 1
 137 162 135 149 135 133 c 0xf4
 135 79 157 51 200 51 c 0
 242 51 270 73 317 142 c 1
148 214 m 1
 159 218 174 223 181 225 c 0
 258 254 306 319 306 395 c 0
 306 417 297 429 278 429 c 0
 230 429 184 352 148 214 c 1
EndSplineSet
Ligature: 0 0 'liga' e uni0308
EndChar
StartChar: eacute
Encoding: 335 233 229
Width: 444
Flags: W
HStem: -13 64<156 200> 429 33<276 293>
VStem: 5 130<123 148> 306 92<375 395>
Fore
244 516 m 1
 195 516 l 1
 317 647 l 2
 352 685 369 697 387 697 c 0
 413 697 435 675 435 650 c 0
 435 631 426 620 396 603 c 2
 244 516 l 1
317 142 m 1
 346 125 l 1
 286 26 232 -13 156 -13 c 0
 69 -13 5 50 5 134 c 0
 5 299 149 462 293 462 c 0
 354 462 398 426 398 375 c 0
 398 340 379 302 344 270 c 0
 294 224 245 202 141 182 c 1
 137 162 135 149 135 133 c 0
 135 79 157 51 200 51 c 0
 242 51 270 73 317 142 c 1
148 214 m 1
 159 218 174 223 181 225 c 0
 258 254 306 319 306 395 c 0
 306 417 297 429 278 429 c 0
 230 429 184 352 148 214 c 1
EndSplineSet
KernsSLIF: 121 -6 0 0 119 -3 0 0 118 -3 0 0
Ligature: 0 0 'liga' e acutecomb
EndChar
StartChar: egrave
Encoding: 336 232 230
Width: 444
Flags: W
HStem: -12 64<156 200> 430 33<276 293>
VStem: 5 130<124 149> 306 92<376 396>
Fore
317 143 m 1
 346 126 l 1
 286 27 232 -12 156 -12 c 0
 69 -12 5 51 5 135 c 0
 5 300 149 463 293 463 c 0
 354 463 398 427 398 376 c 0
 398 341 379 303 344 271 c 0
 294 225 245 203 141 183 c 1
 137 163 135 150 135 134 c 0
 135 80 157 52 200 52 c 0
 242 52 270 74 317 143 c 1
148 215 m 1
 159 219 174 224 181 226 c 0
 258 255 306 320 306 396 c 0
 306 418 297 430 278 430 c 0
 230 430 184 353 148 215 c 1
366 516 m 1
 321 516 l 1
 188 605 l 2
 166 620 154 637 154 652 c 0
 154 676 175 697 199 697 c 0
 218 697 239 684 255 663 c 2
 366 516 l 1
EndSplineSet
Ligature: 0 0 'liga' e gravecomb
EndChar
StartChar: ecircumflex
Encoding: 337 234 231
Width: 444
Flags: W
HStem: -13 64<156 200> 429 33<276 293> 670 20G<256 337>
VStem: 5 130<123 148> 306 92<375 395>
Fore
372 516 m 1
 284 611 l 1
 153 516 l 1
 96 516 l 1
 256 690 l 1
 337 690 l 1
 423 516 l 1
 372 516 l 1
317 142 m 1
 346 125 l 1
 286 26 232 -13 156 -13 c 0
 69 -13 5 50 5 134 c 0
 5 299 149 462 293 462 c 0
 354 462 398 426 398 375 c 0
 398 340 379 302 344 270 c 0
 294 224 245 202 141 182 c 1
 137 162 135 149 135 133 c 0
 135 79 157 51 200 51 c 0
 242 51 270 73 317 142 c 1
148 214 m 1
 159 218 174 223 181 225 c 0
 258 254 306 319 306 395 c 0
 306 417 297 429 278 429 c 0
 230 429 184 352 148 214 c 1
EndSplineSet
KernsSLIF: 121 -6 0 0 119 -3 0 0 118 -3 0 0
Ligature: 0 0 'liga' e uni0302
EndChar
StartChar: ecaron
Encoding: 338 283 232
Width: 444
Flags: W
HStem: -13 64<156 200> 429 33<274 293> 670 20G<135 185 411 467>
VStem: 5 130<123 148> 306 92<375 395>
Fore
467 690 m 1
 305 516 l 1
 223 516 l 1
 135 690 l 1
 185 690 l 1
 276 593 l 1
 411 690 l 1
 467 690 l 1
317 142 m 1
 346 125 l 1
 286 26 232 -13 156 -13 c 0
 69 -13 5 50 5 134 c 0
 5 299 149 462 293 462 c 0
 354 462 398 426 398 375 c 0
 398 340 379 302 344 270 c 0
 294 224 245 202 141 182 c 1
 137 162 135 149 135 133 c 0
 135 79 157 51 200 51 c 0
 242 51 270 73 317 142 c 1
148 214 m 1
 159 218 174 223 181 225 c 0
 258 254 306 319 306 395 c 0
 306 417 297 429 278 429 c 0
 230 429 184 352 148 214 c 1
EndSplineSet
Ligature: 0 0 'liga' e uni030C
EndChar
StartChar: edotaccent
Encoding: 339 279 233
Width: 444
Flags: W
HStem: -13 64<156 200> 429 33<276 293> 525 130<282 293>
VStem: 5 130<123 148> 218 130<589 596> 306 92<375 395>
Fore
282 655 m 0xf8
 318 655 348 625 348 589 c 0
 348 555 317 525 282 525 c 0
 248 525 218 555 218 589 c 0
 218 625 247 655 282 655 c 0xf8
317 142 m 1
 346 125 l 1
 286 26 232 -13 156 -13 c 0
 69 -13 5 50 5 134 c 0
 5 299 149 462 293 462 c 0
 354 462 398 426 398 375 c 0xf4
 398 340 379 302 344 270 c 0
 294 224 245 202 141 182 c 1
 137 162 135 149 135 133 c 0
 135 79 157 51 200 51 c 0
 242 51 270 73 317 142 c 1
148 214 m 1
 159 218 174 223 181 225 c 0
 258 254 306 319 306 395 c 0
 306 417 297 429 278 429 c 0
 230 429 184 352 148 214 c 1
EndSplineSet
Ligature: 0 0 'liga' e uni0307
EndChar
StartChar: eogonek
Encoding: 340 281 234
Width: 444
Flags: W
HStem: -173 69<281 322> -13 64<156 200> 429 33<276 293>
VStem: 5 130<123 148> 175 84<-92 -37> 306 92<375 395>
Fore
317 142 m 1
 346 125 l 1
 324 89 314 74 296 52 c 0
 266 15 259 -3 259 -37 c 0
 259 -81 280 -104 322 -104 c 0
 337 -104 348 -101 368 -91 c 0
 376 -87 377 -86 382 -84 c 1
 404 -98 l 1
 379 -144 331 -173 281 -173 c 0
 220 -173 175 -139 175 -92 c 0
 175 -65 184 -46 216 -3 c 1
 193 -10 177 -13 156 -13 c 0
 69 -13 5 50 5 134 c 0
 5 299 149 462 293 462 c 0
 354 462 398 426 398 375 c 0
 398 340 379 302 344 270 c 0
 294 224 245 202 141 182 c 1
 137 162 135 149 135 133 c 0
 135 79 157 51 200 51 c 0
 242 51 270 73 317 142 c 1
148 214 m 1
 159 218 174 223 181 225 c 0
 258 254 306 319 306 395 c 0
 306 417 297 429 278 429 c 0
 230 429 184 352 148 214 c 1
EndSplineSet
Ligature: 0 0 'liga' e uni0328
EndChar
StartChar: gbreve
Encoding: 341 287 235
Width: 500
Flags: W
HStem: -203 34<134 157> 153 31<187 205> 373 56<367 478> 431 31<251 259> 516 72<283 302> 658 20G<155 198 432 471>
VStem: -52 87<-102 -89> 35 116<243 280> 266 109<-100 -53> 300 117<331 372> 300 178<373 385.198>
Fore
432 678 m 1xff20
 471 678 l 1
 453 574 389 516 292 516 c 0
 199 516 155 564 155 665 c 2
 155 678 l 1
 198 678 l 1
 204 617 237 588 300 588 c 0
 365 588 401 612 432 678 c 1xff20
478 429 m 1
 478 373 l 1xff20
 411 373 l 1
 416 357 417 347 417 331 c 0xff40
 417 271 386 220 328 187 c 0
 289 165 245 153 201 153 c 0
 190 153 181 154 170 157 c 0
 162 160 155 161 150 161 c 0
 137 161 122 141 122 125 c 0
 122 110 141 96 173 87 c 2
 226 72 l 2
 335 41 375 7 375 -53 c 0xff80
 375 -141 276 -203 136 -203 c 0
 21 -203 -52 -162 -52 -97 c 0
 -52 -73 -41 -49 -24 -35 c 0
 -1 -16 19 -8 81 7 c 1
 37 22 19 42 19 73 c 0
 19 110 34 124 115 170 c 1
 61 193 35 229 35 280 c 0
 35 381 134 462 257 462 c 0
 303 462 334 453 367 429 c 1
 478 429 l 1
115 -6 m 0
 108 -5 77 -23 65 -35 c 0
 44 -55 35 -71 35 -91 c 0
 35 -137 81 -169 146 -169 c 0
 222 -169 266 -143 266 -100 c 0xff80
 266 -74 253 -56 225 -43 c 0
 205 -33 126 -7 115 -6 c 0
255 431 m 0
 229 431 208 415 189 382 c 0
 168 344 151 283 151 243 c 0
 151 205 166 184 194 184 c 0
 224 184 249 206 271 252 c 0
 288 288 300 338 300 372 c 0xff40
 300 406 281 431 255 431 c 0
EndSplineSet
Ligature: 0 0 'liga' g uni0306
EndChar
StartChar: idieresis
Encoding: 342 239 236
Width: 278
Flags: W
HStem: -9 70<71 138> 407 27<21 34> 525 130<82 84 294 296>
VStem: 2 121<54 76> 18 130<589 600> 230 130<589 600>
DStem: 73 338 223 462 15 123 132 128
Fore
82 655 m 0xec
 118 655 148 625 148 589 c 0
 148 555 117 525 82 525 c 0
 48 525 18 555 18 589 c 0
 18 625 47 655 82 655 c 0xec
294 655 m 0
 330 655 360 625 360 589 c 0
 360 555 329 525 294 525 c 0
 260 525 230 555 230 589 c 0
 230 625 259 655 294 655 c 0
216 141 m 1
 238 127 l 1
 168 22 131 -9 71 -9 c 0
 30 -9 2 17 2 54 c 0
 2 67 7 95 15 123 c 1
 73 338 l 1
 77 355 80 370 80 378 c 0
 80 399 64 407 21 407 c 1
 21 434 l 1
 99 440 169 450 223 462 c 1
 132 128 l 2
 129 116 123 82 123 76 c 0xf4
 123 68 130 61 138 61 c 0
 153 61 176 82 202 121 c 2
 216 141 l 1
EndSplineSet
Ligature: 0 0 'liga' i uni0308
EndChar
StartChar: iacute
Encoding: 343 237 237
Width: 278
Flags: W
HStem: -9 70<71 138> 407 27<21 34>
VStem: 2 121<54 76>
DStem: 73 338 223 462 15 123 132 128
Fore
161 516 m 1
 112 516 l 1
 234 647 l 2
 269 685 286 697 304 697 c 0
 330 697 352 675 352 650 c 0
 352 631 343 620 313 603 c 2
 161 516 l 1
216 141 m 1
 238 127 l 1
 168 22 131 -9 71 -9 c 0
 30 -9 2 17 2 54 c 0
 2 67 7 95 15 123 c 1
 73 338 l 1
 77 355 80 370 80 378 c 0
 80 399 64 407 21 407 c 1
 21 434 l 1
 99 440 169 450 223 462 c 1
 132 128 l 2
 129 116 123 82 123 76 c 0
 123 68 130 61 138 61 c 0
 153 61 176 82 202 121 c 2
 216 141 l 1
EndSplineSet
Ligature: 0 0 'liga' i acutecomb
EndChar
StartChar: igrave
Encoding: 344 236 238
Width: 278
Flags: W
HStem: -9 70<71 138> 407 27<21 34>
DStem: 73 338 223 462 15 123 132 128
Fore
260 516 m 1
 215 516 l 1
 82 605 l 2
 60 620 48 637 48 652 c 0
 48 676 69 697 93 697 c 0
 112 697 133 684 149 663 c 2
 260 516 l 1
216 141 m 1
 238 127 l 1
 168 22 131 -9 71 -9 c 0
 30 -9 2 17 2 54 c 0
 2 67 7 95 15 123 c 1
 73 338 l 1
 77 355 80 370 80 378 c 0
 80 399 64 407 21 407 c 1
 21 434 l 1
 99 440 169 450 223 462 c 1
 132 128 l 2
 129 116 123 82 123 76 c 0
 123 68 130 61 138 61 c 0
 153 61 176 82 202 121 c 2
 216 141 l 1
EndSplineSet
Ligature: 0 0 'liga' i gravecomb
EndChar
StartChar: icircumflex
Encoding: 345 238 239
Width: 278
Flags: W
HStem: -9 70<71 138> 407 27<21 34> 670 20G<158 239>
VStem: 2 121<54 76>
DStem: 73 338 223 462 15 123 132 128
Fore
274 516 m 1
 186 611 l 1
 55 516 l 1
 -2 516 l 1
 158 690 l 1
 239 690 l 1
 325 516 l 1
 274 516 l 1
216 141 m 1
 238 127 l 1
 168 22 131 -9 71 -9 c 0
 30 -9 2 17 2 54 c 0
 2 67 7 95 15 123 c 1
 73 338 l 1
 77 355 80 370 80 378 c 0
 80 399 64 407 21 407 c 1
 21 434 l 1
 99 440 169 450 223 462 c 1
 132 128 l 2
 129 116 123 82 123 76 c 0
 123 68 130 61 138 61 c 0
 153 61 176 82 202 121 c 2
 216 141 l 1
EndSplineSet
Ligature: 0 0 'liga' i uni0302
EndChar
StartChar: lacute
Encoding: 346 314 240
Width: 278
Flags: W
HStem: -9 70<69 138>
VStem: 2 121<51 76>
DStem: 110 473 290 699 36 209 145 176
Fore
201 726 m 1
 152 726 l 1
 274 857 l 2
 309 895 326 907 344 907 c 0
 370 907 392 885 392 860 c 0
 392 841 383 830 353 813 c 2
 201 726 l 1
216 141 m 1
 238 127 l 1
 169 22 131 -9 69 -9 c 0
 29 -9 2 15 2 51 c 0
 2 75 14 133 36 209 c 1
 110 473 l 1
 130 540 144 602 144 615 c 0
 144 633 129 643 102 643 c 0
 98 643 92 643 81 642 c 1
 81 669 l 1
 156 676 204 682 290 699 c 1
 145 176 l 1
 131 124 123 90 123 76 c 0
 123 68 130 61 138 61 c 0
 155 61 176 82 216 141 c 1
EndSplineSet
Ligature: 0 0 'liga' l acutecomb
EndChar
StartChar: lcaron
Encoding: 347 318 241
Width: 424
Flags: W
HStem: -9 70<69 138> 665 20G<350.5 392>
VStem: 2 121<51 76> 305 141<597 619>
DStem: 110 473 290 699 36 209 145 176
Fore
216 141 m 1
 238 127 l 1
 169 22 131 -9 69 -9 c 0
 29 -9 2 15 2 51 c 0
 2 75 14 133 36 209 c 1
 110 473 l 1
 130 540 144 602 144 615 c 0
 144 633 129 643 102 643 c 0
 98 643 92 643 81 642 c 1
 81 669 l 1
 156 676 204 682 290 699 c 1
 145 176 l 1
 131 124 123 90 123 76 c 0
 123 68 130 61 138 61 c 0
 155 61 176 82 216 141 c 1
274 401 m 1
 262 422 l 1
 333 460 368 495 368 527 c 0
 368 540 361 549 341 562 c 0
 314 581 305 595 305 619 c 0
 305 657 332 685 369 685 c 0
 415 685 446 650 446 597 c 0
 446 524 378 447 274 401 c 1
EndSplineSet
Ligature: 0 0 'liga' l uni030C
EndChar
StartChar: nacute
Encoding: 348 324 242
Width: 556
Flags: W
HStem: 0 21G<-6 115> 442 20G<382.5 424.5>
VStem: 354 120<369 387>
Fore
300 516 m 1
 251 516 l 1
 373 647 l 2
 408 685 425 697 443 697 c 0
 469 697 491 675 491 650 c 0
 491 631 482 620 452 603 c 2
 300 516 l 1
471 135 m 1
 493 122 l 1
 435 25 393 -9 334 -9 c 0
 292 -9 266 14 266 51 c 0
 266 77 278 134 294 182 c 2
 349 348 l 2
 352 358 354 366 354 369 c 0
 354 379 341 390 329 390 c 0
 311 390 280 368 260 341 c 0
 198 260 162 173 115 0 c 1
 -6 0 l 1
 23 108 l 1
 50 204 l 2
 84 324 96 371 96 382 c 0
 96 401 84 406 42 407 c 1
 42 434 l 1
 98 436 178 447 242 461 c 1
 178 263 l 1
 245 362 264 386 300 421 c 0
 328 447 364 462 401 462 c 0
 448 462 474 435 474 387 c 0
 474 363 464 318 448 272 c 1
 412 163 l 2
 394 109 387 86 387 76 c 0
 387 66 393 59 401 59 c 0
 418 59 431 73 471 135 c 1
EndSplineSet
Ligature: 0 0 'liga' n acutecomb
EndChar
StartChar: ncaron
Encoding: 349 328 243
Width: 556
Flags: W
HStem: 0 21G<-6 115> 442 20G<382.5 424.5> 670 20G<191 241 467 523>
VStem: 354 120<369 387>
Fore
523 690 m 1
 361 516 l 1
 279 516 l 1
 191 690 l 1
 241 690 l 1
 332 593 l 1
 467 690 l 1
 523 690 l 1
471 135 m 1
 493 122 l 1
 435 25 393 -9 334 -9 c 0
 292 -9 266 14 266 51 c 0
 266 77 278 134 294 182 c 2
 349 348 l 2
 352 358 354 366 354 369 c 0
 354 379 341 390 329 390 c 0
 311 390 280 368 260 341 c 0
 198 260 162 173 115 0 c 1
 -6 0 l 1
 23 108 l 1
 50 204 l 2
 84 324 96 371 96 382 c 0
 96 401 84 406 42 407 c 1
 42 434 l 1
 98 436 178 447 242 461 c 1
 178 263 l 1
 245 362 264 386 300 421 c 0
 328 447 364 462 401 462 c 0
 448 462 474 435 474 387 c 0
 474 363 464 318 448 272 c 1
 412 163 l 2
 394 109 387 86 387 76 c 0
 387 66 393 59 401 59 c 0
 418 59 431 73 471 135 c 1
EndSplineSet
Ligature: 0 0 'liga' n uni030C
EndChar
StartChar: ntilde
Encoding: 350 241 244
Width: 556
Flags: W
HStem: 0 21G<-6 115> 442 20G<382.5 424.5> 536 77<387 412> 580 75<233 261>
VStem: 354 120<369 387>
Fore
463 655 m 1xd8
 504 655 l 1xd8
 482 572 447 536 387 536 c 0xe8
 368 536 356 539 330 549 c 2
 271 572 l 2
 258 577 244 580 233 580 c 0
 211 580 198 569 185 537 c 1
 145 537 l 1
 158 609 204 655 261 655 c 0xd8
 285 655 317 647 358 629 c 0
 384 618 401 613 412 613 c 0xe8
 435 613 448 624 463 655 c 1xd8
471 135 m 1
 493 122 l 1
 435 25 393 -9 334 -9 c 0
 292 -9 266 14 266 51 c 0
 266 77 278 134 294 182 c 2
 349 348 l 2
 352 358 354 366 354 369 c 0
 354 379 341 390 329 390 c 0
 311 390 280 368 260 341 c 0
 198 260 162 173 115 0 c 1
 -6 0 l 1
 23 108 l 1
 50 204 l 2
 84 324 96 371 96 382 c 0
 96 401 84 406 42 407 c 1
 42 434 l 1
 98 436 178 447 242 461 c 1
 178 263 l 1
 245 362 264 386 300 421 c 0
 328 447 364 462 401 462 c 0
 448 462 474 435 474 387 c 0
 474 363 464 318 448 272 c 1
 412 163 l 2
 394 109 387 86 387 76 c 0
 387 66 393 59 401 59 c 0
 418 59 431 73 471 135 c 1
EndSplineSet
Ligature: 0 0 'liga' n tildecomb
EndChar
StartChar: odieresis
Encoding: 351 246 245
Width: 500
Flags: W
HStem: -13 29<154 174> 433 29<268 286> 525 130<177.208 191 400 402>
VStem: -3 119<78 135> 124 130<589 596> 322 119<311 375> 336 130<589 596>
Fore
188 655 m 0xf8
 224 655 254 625 254 589 c 0
 254 555 223 525 188 525 c 0
 154 525 124 555 124 589 c 0
 124 625 153 655 188 655 c 0xf8
400 655 m 0
 436 655 466 625 466 589 c 0
 466 555 435 525 400 525 c 0
 366 525 336 555 336 589 c 0xfa
 336 625 365 655 400 655 c 0
284 462 m 0
 375 462 441 399 441 311 c 0xfc
 441 142 305 -13 156 -13 c 0
 64 -13 -3 50 -3 135 c 0
 -3 303 137 462 284 462 c 0
275 433 m 0
 243 433 214 410 188 364 c 0
 153 302 116 156 116 78 c 0
 116 40 135 16 165 16 c 0
 200 16 230 45 259 107 c 0
 291 177 322 307 322 375 c 0
 322 411 304 433 275 433 c 0
EndSplineSet
KernsSLIF: 121 -29 0 0 120 -26 0 0 119 -21 0 0 118 -21 0 0 116 -4 0 0
Ligature: 0 0 'liga' o uni0308
EndChar
StartChar: oacute
Encoding: 352 243 246
Width: 500
Flags: W
HStem: -13 29<154 174> 433 29<268 286>
VStem: -3 119<78 135> 322 119<311 375>
Fore
272 516 m 1
 223 516 l 1
 345 647 l 2
 380 685 397 697 415 697 c 0
 441 697 463 675 463 650 c 0
 463 631 454 620 424 603 c 2
 272 516 l 1
284 462 m 0
 375 462 441 399 441 311 c 0
 441 142 305 -13 156 -13 c 0
 64 -13 -3 50 -3 135 c 0
 -3 303 137 462 284 462 c 0
275 433 m 0
 243 433 214 410 188 364 c 0
 153 302 116 156 116 78 c 0
 116 40 135 16 165 16 c 0
 200 16 230 45 259 107 c 0
 291 177 322 307 322 375 c 0
 322 411 304 433 275 433 c 0
EndSplineSet
KernsSLIF: 121 -29 0 0 119 -21 0 0 118 -21 0 0
Ligature: 0 0 'liga' o acutecomb
EndChar
StartChar: ograve
Encoding: 353 242 247
Width: 500
Flags: W
HStem: -13 29<154 174> 433 29<267 286>
VStem: -3 119<78 135> 322 119<311 375>
Fore
380 516 m 1
 335 516 l 1
 202 605 l 2
 180 620 168 637 168 652 c 0
 168 676 189 697 213 697 c 0
 232 697 253 684 269 663 c 2
 380 516 l 1
284 462 m 0
 375 462 441 399 441 311 c 0
 441 142 305 -13 156 -13 c 0
 64 -13 -3 50 -3 135 c 0
 -3 303 137 462 284 462 c 0
275 433 m 0
 243 433 214 410 188 364 c 0
 153 302 116 156 116 78 c 0
 116 40 135 16 165 16 c 0
 200 16 230 45 259 107 c 0
 291 177 322 307 322 375 c 0
 322 411 304 433 275 433 c 0
EndSplineSet
KernsSLIF: 121 -29 0 0 119 -21 0 0 118 -21 0 0
Ligature: 0 0 'liga' o gravecomb
EndChar
StartChar: ocircumflex
Encoding: 354 244 248
Width: 500
Flags: W
HStem: -13 29<154 174> 433 29<268 286> 670 20G<284 365>
VStem: -3 119<78 135> 322 119<311 375>
Fore
400 516 m 1
 312 611 l 1
 181 516 l 1
 124 516 l 1
 284 690 l 1
 365 690 l 1
 451 516 l 1
 400 516 l 1
284 462 m 0
 375 462 441 399 441 311 c 0
 441 142 305 -13 156 -13 c 0
 64 -13 -3 50 -3 135 c 0
 -3 303 137 462 284 462 c 0
275 433 m 0
 243 433 214 410 188 364 c 0
 153 302 116 156 116 78 c 0
 116 40 135 16 165 16 c 0
 200 16 230 45 259 107 c 0
 291 177 322 307 322 375 c 0
 322 411 304 433 275 433 c 0
EndSplineSet
KernsSLIF: 116 -4 0 0
Ligature: 0 0 'liga' o uni0302
EndChar
StartChar: otilde
Encoding: 355 245 249
Width: 500
Flags: W
HStem: -13 29<154 174> 433 29<268 286> 536 77<374 399> 580 75<220 248>
VStem: -3 119<78 135> 322 119<311 375>
Fore
450 655 m 1xdc
 491 655 l 1xdc
 469 572 434 536 374 536 c 0xec
 355 536 343 539 317 549 c 2
 258 572 l 2
 245 577 231 580 220 580 c 0
 198 580 185 569 172 537 c 1
 132 537 l 1
 145 609 191 655 248 655 c 0xdc
 272 655 304 647 345 629 c 0
 371 618 388 613 399 613 c 0xec
 422 613 435 624 450 655 c 1xdc
284 462 m 0
 375 462 441 399 441 311 c 0
 441 142 305 -13 156 -13 c 0
 64 -13 -3 50 -3 135 c 0
 -3 303 137 462 284 462 c 0
275 433 m 0
 243 433 214 410 188 364 c 0
 153 302 116 156 116 78 c 0
 116 40 135 16 165 16 c 0
 200 16 230 45 259 107 c 0
 291 177 322 307 322 375 c 0
 322 411 304 433 275 433 c 0
EndSplineSet
Ligature: 0 0 'liga' o tildecomb
EndChar
StartChar: ohungarumlaut
Encoding: 356 337 250
Width: 500
Flags: W
HStem: -13 29<154 174> 433 29<268 286>
VStem: -3 119<78 135> 322 119<311 375>
Fore
202 516 m 1
 153 516 l 1
 275 647 l 2
 310 685 327 697 345 697 c 0
 371 697 393 675 393 650 c 0
 393 631 384 620 354 603 c 2
 202 516 l 1
391 516 m 1
 342 516 l 1
 464 647 l 2
 499 685 516 697 534 697 c 0
 560 697 582 675 582 650 c 0
 582 631 573 620 543 603 c 2
 391 516 l 1
284 462 m 0
 375 462 441 399 441 311 c 0
 441 142 305 -13 156 -13 c 0
 64 -13 -3 50 -3 135 c 0
 -3 303 137 462 284 462 c 0
275 433 m 0
 243 433 214 410 188 364 c 0
 153 302 116 156 116 78 c 0
 116 40 135 16 165 16 c 0
 200 16 230 45 259 107 c 0
 291 177 322 307 322 375 c 0
 322 411 304 433 275 433 c 0
EndSplineSet
Ligature: 0 0 'liga' o uni030B
EndChar
StartChar: racute
Encoding: 357 341 251
Width: 389
Flags: W
HStem: 0 21G<-21 100> 361 101<270 332>
Fore
216 516 m 1
 167 516 l 1
 289 647 l 2
 324 685 341 697 359 697 c 0
 385 697 407 675 407 650 c 0
 407 631 398 620 368 603 c 2
 216 516 l 1
27 407 m 1
 27 434 l 1
 148 444 167 447 227 462 c 1
 161 253 l 1
 240 411 281 462 332 462 c 0
 366 462 389 436 389 396 c 0
 389 354 364 323 330 323 c 0
 314 323 301 331 286 348 c 0
 279 357 274 361 270 361 c 0
 257 361 235 336 209 291 c 0
 180 243 165 205 133 104 c 0
 129 89 115 46 100 0 c 1
 -21 0 l 1
 47 229 81 357 81 382 c 0
 81 401 72 405 27 407 c 1
EndSplineSet
Ligature: 0 0 'liga' r acutecomb
EndChar
StartChar: sacute
Encoding: 358 347 252
Width: 389
Flags: W
HStem: -13 30<124 133> 429 33<181 199>
VStem: 47 95<336 376> 183 96<71 119>
Fore
216 516 m 1
 167 516 l 1
 289 647 l 2
 324 685 341 697 359 697 c 0
 385 697 407 675 407 650 c 0
 407 631 398 620 368 603 c 2
 216 516 l 1
333 461 m 1
 310 308 l 1
 283 310 l 1
 267 393 241 429 195 429 c 0
 163 429 142 408 142 376 c 0
 142 354 160 323 198 278 c 0
 254 213 279 164 279 119 c 0
 279 44 215 -13 131 -13 c 0
 111 -13 92 -9 68 -1 c 0
 55 4 44 7 37 7 c 0
 24 7 12 -1 8 -13 c 1
 -19 -13 l 1
 3 153 l 1
 30 150 l 1
 38 96 46 73 66 48 c 0
 82 28 103 17 126 17 c 0
 158 17 183 41 183 71 c 0
 183 96 165 130 127 175 c 0
 61 253 47 282 47 336 c 0
 47 412 100 462 181 462 c 0
 201 462 214 459 239 449 c 0
 257 442 266 440 275 440 c 0
 290 440 293 442 304 461 c 1
 333 461 l 1
EndSplineSet
Ligature: 0 0 'liga' s acutecomb
EndChar
StartChar: scaron
Encoding: 359 353 253
Width: 389
Flags: W
HStem: -13 30<124 133> 429 33<181 199> 670 20G<107 157 383 439>
VStem: 47 95<336 376> 183 96<71 119>
Fore
439 690 m 1
 277 516 l 1
 195 516 l 1
 107 690 l 1
 157 690 l 1
 248 593 l 1
 383 690 l 1
 439 690 l 1
333 461 m 1
 310 308 l 1
 283 310 l 1
 267 393 241 429 195 429 c 0
 163 429 142 408 142 376 c 0
 142 354 160 323 198 278 c 0
 254 213 279 164 279 119 c 0
 279 44 215 -13 131 -13 c 0
 111 -13 92 -9 68 -1 c 0
 55 4 44 7 37 7 c 0
 24 7 12 -1 8 -13 c 1
 -19 -13 l 1
 3 153 l 1
 30 150 l 1
 38 96 46 73 66 48 c 0
 82 28 103 17 126 17 c 0
 158 17 183 41 183 71 c 0
 183 96 165 130 127 175 c 0
 61 253 47 282 47 336 c 0
 47 412 100 462 181 462 c 0
 201 462 214 459 239 449 c 0
 257 442 266 440 275 440 c 0
 290 440 293 442 304 461 c 1
 333 461 l 1
EndSplineSet
Ligature: 0 0 'liga' s uni030C
EndChar
StartChar: scommaaccent
Encoding: 360 537 254
Width: 389
Flags: W
HStem: -13 30<117 135> 429 33<181 199>
VStem: 17 141<-128 -106> 47 95<336 376> 183 96<71 119>
Fore
333 461 m 1xd8
 310 308 l 1
 283 310 l 1
 267 393 241 429 195 429 c 0
 163 429 142 408 142 376 c 0
 142 354 160 323 198 278 c 0
 254 213 279 164 279 119 c 0
 279 44 215 -13 131 -13 c 0
 111 -13 92 -9 68 -1 c 0
 55 4 44 7 37 7 c 0
 24 7 12 -1 8 -13 c 1
 -19 -13 l 1
 3 153 l 1
 30 150 l 1
 38 96 46 73 66 48 c 0
 82 28 103 17 126 17 c 0
 158 17 183 41 183 71 c 0
 183 96 165 130 127 175 c 0
 61 253 47 282 47 336 c 0
 47 412 100 462 181 462 c 0
 201 462 214 459 239 449 c 0
 257 442 266 440 275 440 c 0
 290 440 293 442 304 461 c 1
 333 461 l 1xd8
-14 -324 m 1
 -26 -303 l 1
 45 -265 80 -230 80 -198 c 0
 80 -185 73 -176 53 -163 c 0
 26 -144 17 -130 17 -106 c 0
 17 -68 44 -40 81 -40 c 0
 127 -40 158 -75 158 -128 c 0xe8
 158 -201 90 -278 -14 -324 c 1
EndSplineSet
Ligature: 0 0 'liga' s uni0326
EndChar
StartChar: tcaron
Encoding: 361 357 255
Width: 278
Flags: W
HStem: -9 70<59 127> 407 42<209 281> 665 20G<314.5 355.5>
VStem: -11 122<56 76> 269 140<597 619>
DStem: 81 407 198 407 13 169 165 289
Fore
281 422 m 1
 281 407 l 1
 198 407 l 1
 165 289 l 1
 129 167 111 94 111 76 c 0
 111 69 119 61 127 61 c 0
 143 61 169 88 203 141 c 1
 225 127 l 1
 159 24 119 -9 59 -9 c 0
 17 -9 -11 17 -11 56 c 0
 -11 73 -1 118 13 169 c 1
 81 407 l 1
 30 407 l 1
 30 442 l 1
 109 472 159 513 213 594 c 1
 248 594 l 1
 209 449 l 1
 271 449 l 1
 312 478 332 503 332 527 c 0
 332 540 325 549 305 562 c 0
 278 581 269 595 269 619 c 0
 269 657 296 685 333 685 c 0
 378 685 409 650 409 597 c 0
 409 536 360 470 281 422 c 1
EndSplineSet
Ligature: 0 0 'liga' t uni030C
EndChar
StartChar: udieresis
Encoding: 362 252 256
Width: 556
Flags: W
HStem: -9 72<90 155> 429 20G<370 488> 525 130<216 228 417.208 431>
VStem: 15 119<65 88> 152 130<589 600> 266 119<51 76> 364 130<589 600>
DStem: 76 306 243 462 36 173 149 154
Fore
216 655 m 0xf8
 252 655 282 625 282 589 c 0
 282 555 251 525 216 525 c 0
 182 525 152 555 152 589 c 0
 152 625 181 655 216 655 c 0xf8
428 655 m 0
 464 655 494 625 494 589 c 0
 494 555 463 525 428 525 c 0
 394 525 364 555 364 589 c 0xf2
 364 625 393 655 428 655 c 0
471 133 m 1
 492 120 l 1
 440 31 391 -9 331 -9 c 0
 287 -9 266 11 266 51 c 0
 266 79 272 106 290 161 c 1
 187 17 157 -9 90 -9 c 0
 41 -9 15 16 15 65 c 0
 15 89 22 125 36 173 c 1
 76 306 l 2
 85 335 90 363 90 379 c 0
 90 399 80 404 34 407 c 1
 34 434 l 1
 82 436 141 444 215 457 c 0
 231 460 237 461 243 462 c 1
 149 154 l 2
 136 111 134 103 134 88 c 0
 134 71 141 63 155 63 c 0
 175 63 197 80 228 118 c 0
 285 190 314 256 370 449 c 1
 488 449 l 1
 410 181 l 1
 385 86 385 86 385 76 c 0xf4
 385 67 391 59 399 59 c 0
 416 59 436 80 471 133 c 1
EndSplineSet
Ligature: 0 0 'liga' u uni0308
EndChar
StartChar: uacute
Encoding: 363 250 257
Width: 556
Flags: W
HStem: -9 72<90 155> 429 20G<370 488>
VStem: 15 119<65 88> 266 119<51 76>
DStem: 76 306 243 462 36 173 149 154
Fore
300 516 m 1
 251 516 l 1
 373 647 l 2
 408 685 425 697 443 697 c 0
 469 697 491 675 491 650 c 0
 491 631 482 620 452 603 c 2
 300 516 l 1
471 133 m 1
 492 120 l 1
 440 31 391 -9 331 -9 c 0
 287 -9 266 11 266 51 c 0
 266 79 272 106 290 161 c 1
 187 17 157 -9 90 -9 c 0
 41 -9 15 16 15 65 c 0
 15 89 22 125 36 173 c 1
 76 306 l 2
 85 335 90 363 90 379 c 0
 90 399 80 404 34 407 c 1
 34 434 l 1
 82 436 141 444 215 457 c 0
 231 460 237 461 243 462 c 1
 149 154 l 2
 136 111 134 103 134 88 c 0
 134 71 141 63 155 63 c 0
 175 63 197 80 228 118 c 0
 285 190 314 256 370 449 c 1
 488 449 l 1
 410 181 l 1
 385 86 385 86 385 76 c 0
 385 67 391 59 399 59 c 0
 416 59 436 80 471 133 c 1
EndSplineSet
Ligature: 0 0 'liga' u acutecomb
EndChar
StartChar: ugrave
Encoding: 364 249 258
Width: 556
Flags: W
HStem: -9 72<90 155> 429 20G<370 488>
VStem: 15 119<65 88> 266 119<51 76>
DStem: 76 306 243 462 36 173 149 154
Fore
408 516 m 1
 363 516 l 1
 230 605 l 2
 208 620 196 637 196 652 c 0
 196 676 217 697 241 697 c 0
 260 697 281 684 297 663 c 2
 408 516 l 1
471 133 m 1
 492 120 l 1
 440 31 391 -9 331 -9 c 0
 287 -9 266 11 266 51 c 0
 266 79 272 106 290 161 c 1
 187 17 157 -9 90 -9 c 0
 41 -9 15 16 15 65 c 0
 15 89 22 125 36 173 c 1
 76 306 l 2
 85 335 90 363 90 379 c 0
 90 399 80 404 34 407 c 1
 34 434 l 1
 82 436 141 444 215 457 c 0
 231 460 237 461 243 462 c 1
 149 154 l 2
 136 111 134 103 134 88 c 0
 134 71 141 63 155 63 c 0
 175 63 197 80 228 118 c 0
 285 190 314 256 370 449 c 1
 488 449 l 1
 410 181 l 1
 385 86 385 86 385 76 c 0
 385 67 391 59 399 59 c 0
 416 59 436 80 471 133 c 1
EndSplineSet
Ligature: 0 0 'liga' u gravecomb
EndChar
